<svg xmlns="http://www.w3.org/2000/svg" viewBox="0 0 50 50"><defs><style>.cls-1{fill:#2b2f32;}</style></defs><title>AED</title><g id="Слой_8" data-name="Слой 8"><path class="cls-1" d="M19.45,10.06h0a1.5,1.5,0,0,1,1.5,1.5l0,18.23a1.5,1.5,0,0,1-1.5,1.5h0a1.5,1.5,0,0,1-1.5-1.5l0-18.23A1.5,1.5,0,0,1,19.45,10.06Z"/><path class="cls-1" d="M22.29,37.86a.87.87,0,0,1-.07.17.88.88,0,0,1-.12.15c-.05,0-.08.1-.14.14a.89.89,0,0,1-.17.08.91.91,0,0,1-.17.09l-4,1a.73.73,0,0,1-.25,0,1,1,0,0,1-1-.75,1,1,0,0,1,.72-1.22l.27-.07A2.81,2.81,0,0,1,17,35.7l0-.15a2.73,2.73,0,0,1,.89-1.47,3.06,3.06,0,0,1,3.22-.31h0a3,3,0,0,1,.49.27,1,1,0,0,1-.53,1.84,1,1,0,0,1-.54-.16l-.24-.13a1.12,1.12,0,0,0-1.13,0A.76.76,0,0,0,19,36a.79.79,0,0,0,.26.7.87.87,0,0,0,.51.18h0l.6-.15.76-.19h.16a.91.91,0,0,1,.23,0l.13,0a.65.65,0,0,1,.23.09s.07.07.11.1a1.22,1.22,0,0,1,.17.15s0,.11.08.17a.65.65,0,0,1,.08.17s0,0,0,0h0a1.15,1.15,0,0,1,0,.18,1.47,1.47,0,0,1,0,.21A1.27,1.27,0,0,1,22.29,37.86Z"/><path class="cls-1" d="M25.55,29.58a1.3,1.3,0,1,1,1.15-1.29A1.23,1.23,0,0,1,25.55,29.58Z"/><path class="cls-1" d="M38.48,25.67a5.23,5.23,0,0,1-1.77,3.76,5.56,5.56,0,0,1-3.36,1.22,5.79,5.79,0,0,1-.72,0,8.07,8.07,0,0,1-3-.59,1.5,1.5,0,1,1,1.12-2.78,4.83,4.83,0,0,0,2.33.35,2.77,2.77,0,0,0,1.68-.52,2.32,2.32,0,0,0,.74-1.7,4.09,4.09,0,0,0-.77-2.37A7.56,7.56,0,0,0,33,21a1.5,1.5,0,1,1,2-2.28,10.69,10.69,0,0,1,2.4,2.93A6.85,6.85,0,0,1,38.48,25.67Z"/></g></svg>