<svg xmlns="http://www.w3.org/2000/svg" viewBox="0 0 50 50"><defs><style>.cls-1{fill:#2b2f32;}</style></defs><title>AFN</title><g id="Слой_9" data-name="Слой 9"><path class="cls-1" d="M27,13.5l2-2.39a.28.28,0,0,1,.35-.08l2.89,1.32a.3.3,0,0,1,.17.21.31.31,0,0,1-.08.26l-2,2.17a.28.28,0,0,1-.22.1l-.1,0L27.15,14a.27.27,0,0,1-.18-.19A.3.3,0,0,1,27,13.5Z"/><path class="cls-1" d="M27.13,42.18a.2.2,0,0,1-.22,0h0a.22.22,0,0,1-.1-.24,18.16,18.16,0,0,0,.54-4.29,10.28,10.28,0,0,0-.22-1.92,18.19,18.19,0,0,1-.25-1.9,1.33,1.33,0,0,1,.35-.82.21.21,0,0,1,.18-.08.22.22,0,0,1,.16.12C29.46,37,29.34,39.8,27.13,42.18Z"/><path class="cls-1" d="M35.56,24.23a8.21,8.21,0,0,1-4.19,5.47A13.9,13.9,0,0,1,19,30.11a9.41,9.41,0,0,1-5.43-10.26,1.63,1.63,0,0,1,1.67-1.17,1.6,1.6,0,0,1,.39.05,1.79,1.79,0,0,1,1.16,2.12A5.47,5.47,0,0,0,18,25.31,9.23,9.23,0,0,0,24.91,28h0a10,10,0,0,0,2.91-.42c1.64-.51,4.44-2,4.54-4.26l0-.46-.45.08a22.1,22.1,0,0,0-2.84.6,1.91,1.91,0,0,1-1.8-.6A1.21,1.21,0,0,1,27,22c.25-1.85,1-4.14,2.94-4.5a4.49,4.49,0,0,1,4.33,1.69A6,6,0,0,1,35.56,24.23Z"/></g></svg>