<svg xmlns="http://www.w3.org/2000/svg" viewBox="0 0 50 50"><defs><style>.cls-1{fill:#2b2f32;}</style></defs><title>AMD</title><g id="Слой_11" data-name="Слой 11"><path class="cls-1" d="M35.33,30a1.5,1.5,0,0,1,0,3H30.22c0,2.57,0,4.6,0,5.9a1.49,1.49,0,0,1-1.49,1.51h0A1.5,1.5,0,0,1,27.22,39c0-1.31,0-3.35,0-5.86V33H21.85a1.5,1.5,0,0,1,0-3h5.38q0-1.76,0-3.42H21.85a1.5,1.5,0,0,1,0-3h5.31c-.09-3.81-.21-4.46-.63-5.34a6.51,6.51,0,0,0-3-3.21,6.45,6.45,0,0,0-5-.09c-3.51,1.41-4.24,5.56-4.24,5.6a1.51,1.51,0,0,1-1.73,1.23,1.48,1.48,0,0,1-1.23-1.72c0-.24,1-5.87,6.09-7.89a9.48,9.48,0,0,1,7.43.17A9.37,9.37,0,0,1,29.24,17c.71,1.5.83,2.69.92,6.63h5.17a1.5,1.5,0,0,1,0,3H30.21c0,1.11,0,2.25,0,3.42Z"/></g></svg>