<svg xmlns="http://www.w3.org/2000/svg" viewBox="0 0 50 50"><defs><style>.cls-1{fill:#2b2f32;}</style></defs><title>AOA</title><g id="Слой_12" data-name="Слой 12"><path class="cls-1" d="M24.4,34.26a1.34,1.34,0,0,1-.95.39,1.39,1.39,0,0,1-1-.39l-7.09-7.11-.71.72v5.41a1.37,1.37,0,1,1-2.74,0V17.87a1.37,1.37,0,0,1,2.74,0V24l7.08-7.09a1.42,1.42,0,0,1,1.94,0,1.39,1.39,0,0,1,0,1.95l-6.4,6.39,7.09,7.11a1.32,1.32,0,0,1,.41.93A1.37,1.37,0,0,1,24.4,34.26Z"/><path class="cls-1" d="M38.67,34.65H28.82a1.35,1.35,0,0,1-1.24-.78,1.38,1.38,0,0,1,.2-1.47l7.7-9.2h-6.1a1.36,1.36,0,1,1,0-2.71h9.05a1.34,1.34,0,0,1,1,2.22l-7.73,9.21h6.93a1.37,1.37,0,0,1,0,2.73Z"/></g></svg>