<svg xmlns="http://www.w3.org/2000/svg" viewBox="0 0 50 50"><defs><style>.cls-1{fill:#2b2f32;}</style></defs><title>ARS</title><g id="Слой_13" data-name="Слой 13"><path class="cls-1" d="M36.67,23.34h-2l0-.27c0-.25,0-.51,0-.76s0-.53,0-.79l0-.28h2a1.08,1.08,0,0,0,0-2.16H34L34,18.93A8.25,8.25,0,0,0,26.45,14H19.61a1.4,1.4,0,0,0-1.41,1.41v3.64H14.83a1.08,1.08,0,0,0,0,2.16H18.2v2.1H14.83a1.08,1.08,0,0,0,0,2.16H18.2V36A1.41,1.41,0,1,0,21,36V30.56h5.43A8.28,8.28,0,0,0,34,25.65l.06-.15h2.62a1.08,1.08,0,0,0,0-2.16ZM21,16.82h5.43a5.44,5.44,0,0,1,4.05,1.84l.37.42H21Zm9.46,9.1a5.47,5.47,0,0,1-4,1.85H21V25.5h9.84Zm1.34-2.79,0,.21H21v-2.1H31.79l0,.21a4.72,4.72,0,0,1,.09.86A5.14,5.14,0,0,1,31.82,23.13Z"/></g></svg>