<svg xmlns="http://www.w3.org/2000/svg" viewBox="0 0 50 50"><defs><style>.cls-1,.cls-2{fill:#2b2f32;}.cls-2{stroke:#2b2f32;stroke-miterlimit:10;stroke-width:0.25px;}</style></defs><title>AUD</title><g id="Слой_7" data-name="Слой 7"><path class="cls-1" d="M25.87,31.6l-6.6-14.72a1,1,0,0,0-.91-.57h-.22a1,1,0,0,0-.92.59L10.58,31.6A1,1,0,0,0,11.5,33h.88a1,1,0,0,0,.91-.59l1.44-3.25h7l1.45,3.23a1,1,0,0,0,.93.61H25a1,1,0,0,0,.87-.45A1,1,0,0,0,25.87,31.6Zm-10-5,2.35-5.29c.37.85.75,1.69,1.12,2.54l1.23,2.75Z"/><path class="cls-2" d="M37.54,25.6c.07.13.14.26,0,0s-.08-.14,0,0a4.37,4.37,0,0,0-2.26-1.77,13.24,13.24,0,0,0-1.86-.55V19.15a3.59,3.59,0,0,1,1.49.59,2.22,2.22,0,0,1,.52.54,1.35,1.35,0,0,1,.17.34c0,.12.07.24.12.36a1.1,1.1,0,0,0,1,.7,1.13,1.13,0,0,0,1-.63,1.1,1.1,0,0,0,.09-.62,1.9,1.9,0,0,0-.11-.39,3.12,3.12,0,0,0-.15-.39,4.19,4.19,0,0,0-.87-1.25A5.32,5.32,0,0,0,33.84,17L33.41,17v-1.2a1.08,1.08,0,0,0-1.8-.81,1.05,1.05,0,0,0-.37.81V17a5.47,5.47,0,0,0-2.93,1.3,4,4,0,0,0-.89,1.22,3.82,3.82,0,0,0,0,3.13,3.27,3.27,0,0,0,1,1.16A7.72,7.72,0,0,0,31.24,25v4.3a3.29,3.29,0,0,1-1.38-.76,2.59,2.59,0,0,1-.48-.61,3.78,3.78,0,0,1-.17-.35l-.11-.38a1.09,1.09,0,0,0-2-.16,1.08,1.08,0,0,0-.11.61,2.21,2.21,0,0,0,.08.37c0,.13.09.26.14.39A4.62,4.62,0,0,0,28,29.77a5.35,5.35,0,0,0,2.65,1.63l.56.13v1.26a1.11,1.11,0,0,0,.63,1,1.09,1.09,0,0,0,1.54-1V31.64a5.77,5.77,0,0,0,3.07-1.09A3.85,3.85,0,0,0,38,27.92,3.89,3.89,0,0,0,37.54,25.6Zm-6.3-2.86a5.55,5.55,0,0,1-.69-.24,3.64,3.64,0,0,1-.71-.36,1.23,1.23,0,0,1-.48-.53,1.69,1.69,0,0,1-.09-.77,1.57,1.57,0,0,1,.26-.69,2.67,2.67,0,0,1,1.71-1Zm4.38,5.55a2.82,2.82,0,0,1-2.21,1.17V25.51A7.12,7.12,0,0,1,34.9,26a2.13,2.13,0,0,1,.59.43,1.22,1.22,0,0,1,.3.6A1.81,1.81,0,0,1,35.62,28.29Z"/></g></svg>