<svg xmlns="http://www.w3.org/2000/svg" viewBox="0 0 50 50"><defs><style>.cls-1{fill:#2b2f32;}</style></defs><title>AWG</title><g id="Слой_14" data-name="Слой 14"><path class="cls-1" d="M32.29,17.05a1.74,1.74,0,0,1-.42.63,1.94,1.94,0,0,1-.62.4A2.12,2.12,0,0,1,29.6,18l-.35-.15-.25-.7.12-.39a2.54,2.54,0,0,0,.13-.34.77.77,0,0,0,0-.15c-.07-.1-.1-.12-.15-.13a1,1,0,0,0-.85.12,1.49,1.49,0,0,0-.46.5,3.93,3.93,0,0,0-.39,1,13.16,13.16,0,0,0-.24,1.38q-.09.78-.12,1.62c0,.28,0,.55,0,.83h1.34l.39,0,.74-.08.21.72a2.13,2.13,0,0,1,.1.6A1.23,1.23,0,0,1,29,23.94a4.69,4.69,0,0,1-1.92.1l-.15,0,0,.59c0,.55-.05,1.13-.09,1.72s-.08,1.2-.14,1.81-.12,1.22-.21,1.81-.18,1.16-.29,1.7a13,13,0,0,1-.41,1.53,8.57,8.57,0,0,1-.88,1.87,5.39,5.39,0,0,1-1.1,1.28,4,4,0,0,1-1.31.74,4.24,4.24,0,0,1-2.39.09,3.47,3.47,0,0,1-.9-.37,2.31,2.31,0,0,1-.71-.64,1.76,1.76,0,0,1-.33-1A1.59,1.59,0,0,1,18.69,34a1.67,1.67,0,0,1,.52-.34,1.61,1.61,0,0,1,.69-.14h.53l.26.46a1.22,1.22,0,0,0,.24.33,1.06,1.06,0,0,0,.24.2,1,1,0,0,0,.26.11.87.87,0,0,0,.82-.16,2.58,2.58,0,0,0,.56-.91,8.26,8.26,0,0,0,.45-1.74c.12-.73.21-1.55.27-2.44s.11-1.9.13-2.95c0-.78,0-1.58,0-2.42h0a2.28,2.28,0,0,0-.54.09l-.79.3L22,23.6a1.29,1.29,0,0,1-.1-.48,1.25,1.25,0,0,1,.44-.93,2,2,0,0,1,.65-.38,3.64,3.64,0,0,1,.76-.2h.05c0-.1,0-.2,0-.3,0-.35.06-.69.1-1s.08-.68.14-1,.13-.71.22-1.08a7.07,7.07,0,0,1,.47-1.41,5.89,5.89,0,0,1,.66-1.13,5.15,5.15,0,0,1,.85-.89,5,5,0,0,1,.93-.61,4.6,4.6,0,0,1,1-.36,4.37,4.37,0,0,1,2.29.09,3.31,3.31,0,0,1,1,.54,2.41,2.41,0,0,1,.7.83,2.15,2.15,0,0,1,.27,1A2,2,0,0,1,32.29,17.05Z"/></g></svg>