<svg xmlns="http://www.w3.org/2000/svg" viewBox="0 0 50 50"><defs><style>.cls-1{fill:#2b2f32;}</style></defs><title>AZN</title><g id="Слой_15" data-name="Слой 15"><path class="cls-1" d="M35.91,35.5H35.8a1.5,1.5,0,0,1-1.5-1.39,40.6,40.6,0,0,0-1.25-7.71,16,16,0,0,0-1.41-3.62A13.05,13.05,0,0,0,30.5,21a8,8,0,0,0-3.94-2.81L26.5,31.86a1.5,1.5,0,0,1-1.5,1.5h0a1.51,1.51,0,0,1-1.49-1.51l.06-13.6A8.78,8.78,0,0,0,19.73,21a11.58,11.58,0,0,0-.92,1.24A15.77,15.77,0,0,0,17.1,26a35.76,35.76,0,0,0-1.4,8,1.52,1.52,0,0,1-1.6,1.39,1.5,1.5,0,0,1-1.4-1.6,39.43,39.43,0,0,1,1.54-8.7,18.78,18.78,0,0,1,2.06-4.5A15.24,15.24,0,0,1,17.46,19a10.75,10.75,0,0,1,6.11-3.88V14a1.5,1.5,0,0,1,1.5-1.49h0A1.51,1.51,0,0,1,26.58,14v1.13a10.53,10.53,0,0,1,6.26,4,15.35,15.35,0,0,1,1.44,2.2,19.2,19.2,0,0,1,1.67,4.27,44.29,44.29,0,0,1,1.36,8.29A1.51,1.51,0,0,1,35.91,35.5Z"/></g></svg>