<svg xmlns="http://www.w3.org/2000/svg" viewBox="0 0 50 50"><defs><style>.cls-1{fill:#2b2f32;}</style></defs><title>BAM</title><g id="Слой_16" data-name="Слой 16"><path class="cls-1" d="M22,33.74a1.31,1.31,0,0,1-.92.37,1.35,1.35,0,0,1-.95-.37l-6.85-6.88-.69.7v5.23a1.33,1.33,0,0,1-2.65,0V17.89a1.33,1.33,0,0,1,2.65,0V23.8L19.43,17a1.37,1.37,0,0,1,1.87,0,1.36,1.36,0,0,1,0,1.89L15.14,25,22,31.87a1.23,1.23,0,0,1,.39.9A1.34,1.34,0,0,1,22,33.74Z"/><path class="cls-1" d="M41,32.79a1.33,1.33,0,0,1-2.65,0V22.21l-4.29,6.38a1.38,1.38,0,0,1-2.2,0l-4.27-6.38V32.79a1.33,1.33,0,0,1-2.65,0V17.89a1.33,1.33,0,0,1,1-1.27,1.28,1.28,0,0,1,1.47.56L33,25.49l5.6-8.34a1.33,1.33,0,0,1,1.49-.53A1.36,1.36,0,0,1,41,17.89Z"/></g></svg>