<svg xmlns="http://www.w3.org/2000/svg" viewBox="0 0 50 50"><defs><style>.cls-1,.cls-2{fill:#2b2f32;}.cls-2{stroke:#2b2f32;stroke-miterlimit:10;stroke-width:0.25px;}</style></defs><title>BBD</title><g id="Слой_17" data-name="Слой 17"><path class="cls-1" d="M15.48,25.32a3.18,3.18,0,0,0-2.58-5.05H9.15A1,1,0,0,0,8.1,21.32v9a1,1,0,0,0,1.05,1.05h4.18a3.4,3.4,0,0,0,2.15-6Zm-5.29-3H12.9a1.1,1.1,0,0,1,0,2.2H10.19Zm3.14,6.91H10.19V26.64h3.14a1.31,1.31,0,1,1,0,2.62Z"/><path class="cls-1" d="M25.09,20.27a1,1,0,0,0-1,1.05v1.82A4.13,4.13,0,0,0,22,22.59,4.2,4.2,0,0,0,17.77,27,4.2,4.2,0,0,0,22,31.36a4.07,4.07,0,0,0,2.18-.61,1,1,0,0,0,2-.44v-9A1,1,0,0,0,25.09,20.27Zm-3.13,9A2.15,2.15,0,0,1,19.87,27a2.1,2.1,0,1,1,4.18,0A2.15,2.15,0,0,1,22,29.26Z"/><path class="cls-1" d="M32.32,30.49a3.14,3.14,0,0,1-2.24.87,3,3,0,0,1-2.82-1.64,1.07,1.07,0,0,1,.5-1.39,1,1,0,0,1,1.41.52c.08.19.37.41.91.41s1-.35,1-.69,0-.44-1.21-.75c-1-.26-2.67-.68-2.67-2.58a2.65,2.65,0,0,1,.78-1.83,3,3,0,0,1,2.14-.82,2.83,2.83,0,0,1,2.65,1.54,1,1,0,0,1-.51,1.39,1,1,0,0,1-.76,0,1.08,1.08,0,0,1-.62-.53c0-.05-.18-.36-.76-.36-.8,0-.82.56-.82.57,0,.19,0,.29,1.08.55s2.8.72,2.8,2.78A2.75,2.75,0,0,1,32.32,30.49Z"/><path class="cls-2" d="M41.7,27.12h0c-.1-.18-.05-.09,0,0A2.75,2.75,0,0,0,40.26,26a9.43,9.43,0,0,0-1.18-.35V23a2.24,2.24,0,0,1,1,.38,1.16,1.16,0,0,1,.32.34.94.94,0,0,1,.12.22c0,.07,0,.15.07.23a.69.69,0,0,0,1.27,0,.66.66,0,0,0,.06-.39,1.83,1.83,0,0,0-.06-.25c0-.09-.07-.17-.1-.25a2.63,2.63,0,0,0-.56-.8,3.39,3.39,0,0,0-1.8-.87l-.27-.05v-.76a.69.69,0,0,0-.41-.62.67.67,0,0,0-.74.11.69.69,0,0,0-.24.51v.77a3.4,3.4,0,0,0-1.86.83,2.41,2.41,0,0,0-.57.77,2.5,2.5,0,0,0-.21,1,2.42,2.42,0,0,0,.22,1,2,2,0,0,0,.61.73,5,5,0,0,0,1.81.79v2.74a2.3,2.3,0,0,1-.88-.48,1.85,1.85,0,0,1-.3-.39,2.4,2.4,0,0,1-.11-.23c0-.08,0-.16-.07-.24a.69.69,0,0,0-.6-.47.68.68,0,0,0-.67.37.74.74,0,0,0-.08.39,2,2,0,0,0,.06.23,1.83,1.83,0,0,0,.08.25,3,3,0,0,0,.53.86,3.29,3.29,0,0,0,1.69,1l.35.09v.8a.7.7,0,0,0,1.39,0V31a3.55,3.55,0,0,0,2-.69A2.43,2.43,0,0,0,42,28.6,2.37,2.37,0,0,0,41.7,27.12Zm-4-1.82-.44-.15a2.79,2.79,0,0,1-.45-.24.74.74,0,0,1-.3-.33,1.16,1.16,0,0,1-.06-.49.88.88,0,0,1,.17-.44A1.72,1.72,0,0,1,37.69,23Zm2.8,3.53a1.79,1.79,0,0,1-1.41.75V27.06a4.69,4.69,0,0,1,1,.34,1.11,1.11,0,0,1,.37.27.81.81,0,0,1,.19.38A1.16,1.16,0,0,1,40.49,28.83Z"/></g></svg>