<svg id="Слой_1" data-name="Слой 1" xmlns="http://www.w3.org/2000/svg" viewBox="0 0 40 40">
  <defs>
    <style>
    .cls-1 {
      fill: none;
      stroke: #f8a524;
      stroke-miterlimit: 10;
      stroke-width: 3px;
    }

    </style>
  </defs>
  <title>BitcoinCash </title>
  <circle class="cls-1" cx="20" cy="20" r="18.33" />
  <path fill="#f8a524" d="M29.91,21.83A5.14,5.14,0,0,0,29,19.54a4.2,4.2,0,0,0-1.24-1.28,4.35,4.35,0,0,0-1.16-.48,4.56,4.56,0,0,0-1.11-.17,3.73,3.73,0,0,0-.74.06,4.46,4.46,0,0,0,.43-.35,3,3,0,0,0,.87-3.11,4.27,4.27,0,0,0-.67-1.54,4.3,4.3,0,0,0-2.45-1.85,4.93,4.93,0,0,0-2.24-.07,7.42,7.42,0,0,0-1.61.41L17.84,7.21l-2.07.66,1.14,3.89-2,.65L13.72,8.47l-2,.62L13,13.16,8.19,14.62l.52,1.91,3.09-1,3.81,12.71-2.38.66.43,2.5,4.56-1.33,1.21,3.79,1.88-.57-1.06-3.87,2.07-.66,1.18,3.86,2-.64-1.31-3.86a9.91,9.91,0,0,0,3.9-2.1,5.08,5.08,0,0,0,1.53-2A4.61,4.61,0,0,0,29.91,21.83Zm-12.41-3-1.29-4.16c.77-.21,1.38-.39,1.8-.52A4.38,4.38,0,0,1,19,14a2.47,2.47,0,0,1,1.5.25,2.06,2.06,0,0,1,1,1.21,2,2,0,0,1,0,1.14,2.32,2.32,0,0,1-.92,1.35,2.75,2.75,0,0,1-1,.36C19.08,18.4,18.38,18.59,17.5,18.87Zm7.43,4.82a1.93,1.93,0,0,1-.6.87,3.16,3.16,0,0,1-.77.54,7.5,7.5,0,0,1-1.6.65c-.58.17-1.34.38-2.24.58l-1.25-4.42c1-.33,1.8-.57,2.39-.73a15.18,15.18,0,0,1,1.5-.29,2.43,2.43,0,0,1,.82,0,2,2,0,0,1,1.07.54,2.32,2.32,0,0,1,.58,1.05A2.08,2.08,0,0,1,24.93,23.69Z" />
</svg>
