<svg xmlns="http://www.w3.org/2000/svg" viewBox="0 0 50 50"><defs><style>.cls-1{fill:#2b2f32;}</style></defs><title>BDT</title><g id="Слой_18" data-name="Слой 18"><path class="cls-1" d="M36.77,35.3a5.51,5.51,0,0,1-2.94,2.55,7.51,7.51,0,0,1-3,.63,8.74,8.74,0,0,1-1.05-.06,6.76,6.76,0,0,1-3.9-1.35,7.24,7.24,0,0,1-2.38-4.76,19.22,19.22,0,0,1-.08-2.17c0-1.83,0-2.74,0-4,0-.32,0-.62,0-.91H20.54a1.25,1.25,0,1,1,0-2.5h2.87c0-.85,0-1.58,0-2.3,0-.87,0-1.72,0-2.77a2,2,0,0,0-.14-1c-.49-1-2.37-1.52-3.9-1.42a3.52,3.52,0,0,0-1.79.44,3.89,3.89,0,0,0-1.45,2.95,1.25,1.25,0,1,1-2.5-.11,6.29,6.29,0,0,1,2.6-4.94,5.91,5.91,0,0,1,3-.84c2.37-.13,5.24.69,6.29,2.83a4.33,4.33,0,0,1,.39,2.06c0,1,0,1.89,0,2.74s0,1.47,0,2.34h2.8a1.25,1.25,0,0,1,0,2.5H25.89c0,.3,0,.61,0,.95,0,1.25,0,2.14,0,3.94a15,15,0,0,0,.06,1.81,4.94,4.94,0,0,0,1.47,3.2,4.45,4.45,0,0,0,2.57.8,5.32,5.32,0,0,0,2.84-.37,3.07,3.07,0,0,0,1.72-1.36,2.48,2.48,0,0,0,.17-1.62,3.18,3.18,0,0,0-2.07-2A1.26,1.26,0,0,1,31.79,29a1.25,1.25,0,0,1,1.55-.84A5.58,5.58,0,0,1,37.13,32,5,5,0,0,1,36.77,35.3Z"/></g></svg>