<svg xmlns="http://www.w3.org/2000/svg" viewBox="0 0 50 50"><defs><style>.cls-1{fill:#2b2f32;}</style></defs><title>BGN</title><g id="Слой_19" data-name="Слой 19"><path class="cls-1" d="M24.42,32.13a.77.77,0,0,1-.14.45.92.92,0,0,1-.38.28,1.68,1.68,0,0,1-.44.1,5,5,0,0,1-1.09,0,1.59,1.59,0,0,1-.44-.1.81.81,0,0,1-.38-.28.71.71,0,0,1-.14-.45V19.49H18.08c-.19,1.63-.39,3.09-.58,4.35s-.44,2.59-.67,3.61a16.75,16.75,0,0,1-.8,2.61A6.27,6.27,0,0,1,15,31.82a3.58,3.58,0,0,1-1.43,1,5.2,5.2,0,0,1-1.74.28,1,1,0,0,1-.43-.1.84.84,0,0,1-.36-.34,1.15,1.15,0,0,1-.16-.44,3.34,3.34,0,0,1,0-.49,2.92,2.92,0,0,1,0-.56,1.89,1.89,0,0,1,.1-.41.74.74,0,0,1,.33-.4c.31-.2.71-.1,1-.25a1.41,1.41,0,0,0,.54-.51,5.09,5.09,0,0,0,.61-1.24,16.66,16.66,0,0,0,.61-2.2c.2-.92.4-2.05.59-3.36s.39-2.9.57-4.7a1.78,1.78,0,0,1,.35-1,1.12,1.12,0,0,1,.9-.38h6.74a1.17,1.17,0,0,1,.88.36,1.41,1.41,0,0,1,.32,1Z"/><path class="cls-1" d="M38.18,26.48a4.15,4.15,0,0,0-.72-1.27,3.87,3.87,0,0,0-1.08-.9l-.24-.13,0,0a3.79,3.79,0,0,0,.74-.86,4.15,4.15,0,0,0,.43-1,4.45,4.45,0,0,0,.15-1.16,4.75,4.75,0,0,0-.33-1.81,3.65,3.65,0,0,0-1-1.4A4.37,4.37,0,0,0,34.52,17a8.36,8.36,0,0,0-2.37-.28H28.7a1.31,1.31,0,0,0-.81.28,1.23,1.23,0,0,0-.44,1V31.6a1.23,1.23,0,0,0,.44,1,1.31,1.31,0,0,0,.81.28h4a8.67,8.67,0,0,0,1.61-.13,6.41,6.41,0,0,0,1.35-.4,5.06,5.06,0,0,0,1.15-.68,4.27,4.27,0,0,0,.9-.95,4.43,4.43,0,0,0,.58-1.22,5.28,5.28,0,0,0,.2-1.47A4.58,4.58,0,0,0,38.18,26.48ZM30.46,19.4H32a4.14,4.14,0,0,1,1.24.14,1.67,1.67,0,0,1,.66.36,1.37,1.37,0,0,1,.35.55,2.86,2.86,0,0,1,0,1.64,1.64,1.64,0,0,1-.35.62,1.8,1.8,0,0,1-.63.43,2.72,2.72,0,0,1-1.06.17H30.46Zm4.69,9.69a1.68,1.68,0,0,1-.48.63,2.29,2.29,0,0,1-.74.4,3.56,3.56,0,0,1-1,.14H30.46V25.91h1.91a5.59,5.59,0,0,1,1.43.16,2.49,2.49,0,0,1,.86.44,1.78,1.78,0,0,1,.49.68,2.55,2.55,0,0,1,.18,1A2.06,2.06,0,0,1,35.15,29.09Z"/></g></svg>