<svg xmlns="http://www.w3.org/2000/svg" viewBox="0 0 50 50"><defs><style>.cls-1{fill:#2b2f32;}</style></defs><title>BHD</title><g id="Слой_20" data-name="Слой 20"><rect class="cls-1" x="16.07" y="30.6" width="1.4" height="1.4"/><path class="cls-1" d="M24.58,26.34c-.46.76-1.42,1.84-4.41,2.51a22.93,22.93,0,0,1-4.77.59c-2.35,0-4.62-.56-5.62-2.45a4.9,4.9,0,0,1,0-4.18,1.25,1.25,0,0,1,2.34.88c-.54,1.42-.26,1.94-.16,2.13.66,1.25,3.66,1.48,7.64.59,1-.24,2.38-.66,2.81-1.37A2.89,2.89,0,0,0,22.69,23a1.25,1.25,0,0,1,2.45-.5A5.43,5.43,0,0,1,24.58,26.34Z"/><ellipse class="cls-1" cx="28.47" cy="27.9" rx="1.04" ry="1.17"/><path class="cls-1" d="M38.17,26.59a4.46,4.46,0,0,1-2,2.38,4.66,4.66,0,0,1-2.44.65,5.84,5.84,0,0,1-2.21-.44,1.25,1.25,0,1,1,1-2.3,2.79,2.79,0,0,0,2.38-.06,2,2,0,0,0,.91-1,2.44,2.44,0,0,0-.15-1.6A4.67,4.67,0,0,0,34.09,22a1.25,1.25,0,1,1,1.56-2A7.19,7.19,0,0,1,38,23.41,4.82,4.82,0,0,1,38.17,26.59Z"/><path class="cls-1" d="M41.45,29.07a1.17,1.17,0,1,1,1.13-1.17A1.16,1.16,0,0,1,41.45,29.07Z"/></g></svg>