<svg xmlns="http://www.w3.org/2000/svg" viewBox="0 0 50 50"><defs><style>.cls-1{fill:#2b2f32;}</style></defs><title>BIF</title><g id="Слой_21" data-name="Слой 21"><path class="cls-1" d="M19,21.35H14.19v2.2H17.5a1,1,0,0,1,1.05,1,1,1,0,0,1-1.05,1.05H14.19v3.67a1,1,0,0,1-1,1.05,1,1,0,0,1-1.05-1.05v-9a1,1,0,0,1,1.05-1.05H19a1,1,0,0,1,1,1.05A1,1,0,0,1,19,21.35Z"/><path class="cls-1" d="M38.09,29.31a1,1,0,0,1-1.92.58,3.72,3.72,0,0,1-1.8.47,3.46,3.46,0,0,1-2.63-1.17,4,4,0,0,1-1-2.67V22.63a1.05,1.05,0,0,1,2.1,0v3.89a1.57,1.57,0,0,0,1.5,1.74A1.67,1.67,0,0,0,36,26.52V22.63a1,1,0,0,1,2.09,0Z"/><path class="cls-1" d="M28.49,24.32a3.19,3.19,0,0,0-2.59-5.05H22.15a1,1,0,0,0-1,1.05v9a1,1,0,0,0,1,1.05h4.18a3.4,3.4,0,0,0,2.16-6Zm-5.29-3h2.7a1.1,1.1,0,1,1,0,2.2H23.2Zm3.13,6.91H23.2V25.64h3.13a1.31,1.31,0,1,1,0,2.62Z"/></g></svg>