<svg xmlns="http://www.w3.org/2000/svg" viewBox="0 0 50 50"><defs><style>.cls-1{fill:#2b2f32;}</style></defs><title>BMD</title><g id="Слой_22" data-name="Слой 22"><path class="cls-1" d="M18.09,25.12a3.44,3.44,0,0,0-2.75-5.49H11.23a1.08,1.08,0,0,0-1.09,1.1v9.84a1.07,1.07,0,0,0,1.09,1.09h4.58a3.67,3.67,0,0,0,2.28-6.54ZM12.32,21.8h3a1.27,1.27,0,0,1,0,2.53h-3Zm3.49,7.68H12.32v-3h3.49a1.5,1.5,0,0,1,0,3Z"/><path class="cls-1" d="M24.31,19.63H21.83a1.08,1.08,0,0,0-1.09,1.1v9.84a1.08,1.08,0,0,0,1.09,1.09h2.48a6,6,0,1,0,0-12Zm0,9.85H22.92V21.8h1.39a3.84,3.84,0,1,1,0,7.68Z"/><path class="cls-1" d="M40.46,25.38a5.06,5.06,0,0,0-1.87-.79l-.66-.15V21.69a.06.06,0,0,0,.06,0s0,0,0,0a1.5,1.5,0,0,1,.75.74,1,1,0,0,0,.9.62h.22a1,1,0,0,0,.93-1.33,3,3,0,0,0-1-1.28,4.46,4.46,0,0,0-1.88-.78V19a.83.83,0,0,0-.83-.82h-.37a.83.83,0,0,0-.83.82v.65a4.05,4.05,0,0,0-2.24.91A3.11,3.11,0,0,0,32.58,23a2.67,2.67,0,0,0,1.11,2.35,6.74,6.74,0,0,0,2.22.79v2.95a1.78,1.78,0,0,1-.91-.54,2.07,2.07,0,0,1-.27-.45,1,1,0,0,0-.92-.62h-.23a1,1,0,0,0-.94,1.3,3.07,3.07,0,0,0,1,1.33,4.74,4.74,0,0,0,2.28.88v.31a.82.82,0,0,0,.82.82h.38a.82.82,0,0,0,.82-.82V31a4.39,4.39,0,0,0,2.36-.93,3.15,3.15,0,0,0,1.14-2.5A2.65,2.65,0,0,0,40.46,25.38ZM35.91,24a4.23,4.23,0,0,1-.68-.24,1,1,0,0,1-.54-.88,1.08,1.08,0,0,1,.54-1,2.73,2.73,0,0,1,.68-.29ZM38.27,29a1,1,0,0,1-.34.09V26.6a3.65,3.65,0,0,1,.77.31,1.13,1.13,0,0,1,.54.92A1.26,1.26,0,0,1,38.27,29Z"/></g></svg>