<svg xmlns="http://www.w3.org/2000/svg" viewBox="0 0 50 50"><defs><style>.cls-1,.cls-2{fill:#2b2f32;}.cls-2{stroke:#2b2f32;stroke-miterlimit:10;stroke-width:0.25px;}</style></defs><title>BND</title><g id="Слой_23" data-name="Слой 23"><path class="cls-1" d="M22.49,25.37a4.4,4.4,0,0,0-3.41-7.21H13.55a1.25,1.25,0,0,0-1.26,1.26V32.67a1.25,1.25,0,0,0,1.26,1.26h6.17a4.73,4.73,0,0,0,4.73-4.73A4.68,4.68,0,0,0,22.49,25.37Zm-7.68-4.71h4.27a1.91,1.91,0,0,1,0,3.81H14.81Zm4.91,10.75H14.81V27h4.91a2.22,2.22,0,0,1,0,4.44Z"/><path class="cls-2" d="M37.08,27.45c.07.12.14.25,0,0h0a4.14,4.14,0,0,0-2.16-1.7,14,14,0,0,0-1.78-.53V21.28a3.35,3.35,0,0,1,1.43.56,2,2,0,0,1,.49.51c.06.11.12.22.17.33s.06.23.11.35a1,1,0,0,0,.92.66,1,1,0,0,0,1-.6,1.08,1.08,0,0,0,.08-.59,1.66,1.66,0,0,0-.09-.37c0-.13-.09-.25-.15-.38a3.93,3.93,0,0,0-.83-1.19,5.13,5.13,0,0,0-2.71-1.32l-.41-.06V18a1,1,0,0,0-1.73-.78,1.05,1.05,0,0,0-.35.78v1.15a5.14,5.14,0,0,0-2.8,1.24,3.67,3.67,0,0,0-.85,1.17,3.51,3.51,0,0,0-.31,1.5,3.47,3.47,0,0,0,.32,1.49,3.07,3.07,0,0,0,.92,1.1,7.34,7.34,0,0,0,2.72,1.18V31a3.11,3.11,0,0,1-1.32-.72,2.51,2.51,0,0,1-.45-.58,1.74,1.74,0,0,1-.16-.34A2.47,2.47,0,0,1,29,29a1,1,0,0,0-.9-.71,1,1,0,0,0-1,.55,1.09,1.09,0,0,0-.11.59,1.47,1.47,0,0,0,.08.35c0,.13.08.25.13.37a4.41,4.41,0,0,0,.78,1.3A5.14,5.14,0,0,0,30.52,33a5,5,0,0,0,.53.12v1.21a1,1,0,1,0,2.08,0v-1.1a5.5,5.5,0,0,0,2.93-1,3.69,3.69,0,0,0,1.44-2.52A3.76,3.76,0,0,0,37.08,27.45Zm-6-2.74c-.24-.07-.46-.15-.66-.23a3.13,3.13,0,0,1-.68-.35,1.09,1.09,0,0,1-.45-.5,1.52,1.52,0,0,1-.09-.73,1.48,1.48,0,0,1,.25-.67,2.62,2.62,0,0,1,1.63-.94ZM35.25,30a2.69,2.69,0,0,1-2.12,1.11V27.36a6.56,6.56,0,0,1,1.43.5,2.07,2.07,0,0,1,.56.41,1.14,1.14,0,0,1,.28.57A1.78,1.78,0,0,1,35.25,30Z"/></g></svg>