<svg xmlns="http://www.w3.org/2000/svg" viewBox="0 0 50 50"><defs><style>.cls-1{fill:#2b2f32;}</style></defs><title>BOB</title><g id="Слой_24" data-name="Слой 24"><path class="cls-1" d="M25,24.46a5,5,0,0,0-3.82-8.3H14.76a1.35,1.35,0,0,0-1.36,1.37V32.94a1.35,1.35,0,0,0,1.36,1.36h7.18A5.4,5.4,0,0,0,25,24.46Zm-8.89-5.59H21.2a2.32,2.32,0,0,1,0,4.63H16.13Zm5.81,12.7H16.13V26.21h5.81a2.68,2.68,0,0,1,0,5.36Z"/><path class="cls-1" d="M38.08,33a5,5,0,0,1-3.54,1.35,4.7,4.7,0,0,1-4.43-2.56,1.39,1.39,0,0,1,.66-1.81,1.36,1.36,0,0,1,1.82.68,2,2,0,0,0,1.95,1c1.37,0,2.09-.81,2.09-1.61s-.28-1.16-2.4-1.7c-1.71-.44-4.25-1.09-4.25-4a4,4,0,0,1,1.21-2.83,4.68,4.68,0,0,1,3.35-1.28,4.41,4.41,0,0,1,4.17,2.39,1.34,1.34,0,0,1,.06,1,1.38,1.38,0,0,1-.73.77,1.32,1.32,0,0,1-1,.06,1.38,1.38,0,0,1-.8-.7,1.79,1.79,0,0,0-1.7-.85c-1.5,0-1.82,1-1.82,1.4,0,.62.17.87,2.18,1.36,1.7.43,4.46,1.15,4.46,4.35A4.24,4.24,0,0,1,38.08,33Z"/></g></svg>