<svg xmlns="http://www.w3.org/2000/svg" viewBox="0 0 50 50"><defs><style>.cls-1{fill:#2b2f32;stroke:#2b2f32;stroke-miterlimit:10;stroke-width:0.25px;}</style></defs><title>BRL</title><g id="Слой_25" data-name="Слой 25"><path class="cls-1" d="M36.08,26.45c.07.12.14.25,0,0h0a4.14,4.14,0,0,0-2.16-1.7,14,14,0,0,0-1.78-.53V20.28a3.35,3.35,0,0,1,1.43.56,2,2,0,0,1,.49.51c.06.11.12.22.17.33s.06.23.11.35a1,1,0,0,0,.92.66,1,1,0,0,0,1-.6,1.08,1.08,0,0,0,.08-.59,1.66,1.66,0,0,0-.09-.37c0-.13-.09-.25-.15-.38a3.93,3.93,0,0,0-.83-1.19,5.13,5.13,0,0,0-2.71-1.32l-.41-.06V17a1,1,0,0,0-1.73-.78,1.05,1.05,0,0,0-.35.78v1.15a5.14,5.14,0,0,0-2.8,1.24,3.67,3.67,0,0,0-.85,1.17,3.51,3.51,0,0,0-.31,1.5,3.47,3.47,0,0,0,.32,1.49,3.07,3.07,0,0,0,.92,1.1,7.34,7.34,0,0,0,2.72,1.18V30a3.11,3.11,0,0,1-1.32-.72,2.51,2.51,0,0,1-.45-.58,1.74,1.74,0,0,1-.16-.34A2.47,2.47,0,0,1,28,28a1,1,0,0,0-.9-.71,1,1,0,0,0-1,.55,1.09,1.09,0,0,0-.11.59,1.47,1.47,0,0,0,.08.35c0,.13.08.25.13.37a4.41,4.41,0,0,0,.78,1.3A5.14,5.14,0,0,0,29.52,32a5,5,0,0,0,.53.12v1.21a1,1,0,1,0,2.08,0v-1.1a5.5,5.5,0,0,0,2.93-1,3.69,3.69,0,0,0,1.44-2.52A3.76,3.76,0,0,0,36.08,26.45Zm-6-2.74c-.24-.07-.46-.15-.66-.23a3.13,3.13,0,0,1-.68-.35,1.09,1.09,0,0,1-.45-.5,1.52,1.52,0,0,1-.09-.73,1.48,1.48,0,0,1,.25-.67,2.62,2.62,0,0,1,1.63-.94ZM34.25,29a2.69,2.69,0,0,1-2.12,1.11V26.36a6.56,6.56,0,0,1,1.43.5,2.07,2.07,0,0,1,.56.41,1.14,1.14,0,0,1,.28.57A1.78,1.78,0,0,1,34.25,29Z"/><path class="cls-1" d="M23.44,30.8a1.32,1.32,0,0,1,0,1.84,1.29,1.29,0,0,1-1.83,0l-3.78-3.92H15.3v3a1.3,1.3,0,0,1-2.59,0v-13a1.3,1.3,0,0,1,1.3-1.3h4.34A5.65,5.65,0,0,1,20.82,28.1ZM15.3,26.1h3.05a3.07,3.07,0,0,0,0-6.14H15.3Z"/></g></svg>