<svg xmlns="http://www.w3.org/2000/svg" viewBox="0 0 50 50"><defs><style>.cls-1{fill:#2b2f32;}</style></defs><title>BSD</title><g id="Слой_26" data-name="Слой 26"><path class="cls-1" d="M22.49,25.37a4.4,4.4,0,0,0-3.41-7.21H13.55a1.25,1.25,0,0,0-1.26,1.26V32.67a1.25,1.25,0,0,0,1.26,1.26h6.17a4.73,4.73,0,0,0,4.73-4.73A4.68,4.68,0,0,0,22.49,25.37Zm-7.68-4.71h4.27a1.91,1.91,0,0,1,0,3.81H14.81Zm4.91,10.75H14.81V27h4.91a2.22,2.22,0,0,1,0,4.44Z"/><path class="cls-1" d="M38.07,25.68a6.8,6.8,0,0,0-2.52-1.06l-.88-.19v-3.7a.11.11,0,0,0,.08,0s0,0,0,0a2,2,0,0,1,1,1,1.37,1.37,0,0,0,1.22.84h.3a1.32,1.32,0,0,0,1.25-1.78,4.21,4.21,0,0,0-1.35-1.73,6,6,0,0,0-2.53-1.05v-1A1.11,1.11,0,0,0,33.56,16h-.51A1.1,1.1,0,0,0,32,17.11V18a5.41,5.41,0,0,0-3,1.22,4.21,4.21,0,0,0-1.45,3.28A3.56,3.56,0,0,0,29,25.64a9.2,9.2,0,0,0,3,1.07v4A2.43,2.43,0,0,1,30.74,30a2.92,2.92,0,0,1-.37-.61,1.35,1.35,0,0,0-1.23-.84h-.31a1.33,1.33,0,0,0-1.27,1.76,4.22,4.22,0,0,0,1.33,1.79A6.44,6.44,0,0,0,32,33.23v.41a1.11,1.11,0,0,0,1.11,1.11h.5a1.11,1.11,0,0,0,1.11-1.11v-.38A6.12,6.12,0,0,0,37.85,32a4.26,4.26,0,0,0,1.52-3.36A3.56,3.56,0,0,0,38.07,25.68ZM32,23.77a4.23,4.23,0,0,1-.92-.34,1.26,1.26,0,0,1-.73-1.18A1.49,1.49,0,0,1,31,20.92a3.51,3.51,0,0,1,.92-.38Zm3.17,6.83a2.39,2.39,0,0,1-.46.12v-3.4a5.18,5.18,0,0,1,1,.42A1.5,1.5,0,0,1,36.43,29,1.69,1.69,0,0,1,35.13,30.6Z"/></g></svg>