<svg id="Слой_1" data-name="Слой 1" 
  xmlns="http://www.w3.org/2000/svg" viewBox="0 0 50 50">
  <defs>
    <style>.cls-1{fill:#ff9300;}.cls-2{fill:#fff;}</style>
  </defs>
  <title>Монтажная область 1</title>
  <circle class="cls-1" cx="25" cy="25" r="25"/>
  <path class="cls-2" d="M24.15,10.63l2.07.42-.9,4.1,2.12.42.91-4,2.18.43-.85,4.14a7.91,7.91,0,0,1,1.65.43,5.1,5.1,0,0,1,2,1.17,4.37,4.37,0,0,1,1.28,2.87,4.73,4.73,0,0,1-.16,1.7,3.39,3.39,0,0,1-.69,1.39,3.22,3.22,0,0,1-1.63,1,3,3,0,0,1-.55.1,5.49,5.49,0,0,1,.69.32,4.12,4.12,0,0,1,.9.69,4.25,4.25,0,0,1,.8,1,4.13,4.13,0,0,1,.48,1.76A5.14,5.14,0,0,1,34.09,31a4.66,4.66,0,0,1-1.33,1.87,5.43,5.43,0,0,1-2.34,1,10.3,10.3,0,0,1-4.52-.06l-.74,4.1L23,37.48l.85-4L21.7,33l-1,4-2-.42.79-4-4.73-1.06.85-2.45,2.45.59L21,16.42l-3.24-.63.47-2,5,1.06Z"/>
  <path class="cls-1" d="M25.37,17.86l-.9,4.36c.91.18,1.63.35,2.12.48a3,3,0,0,0,1.07.16,2.48,2.48,0,0,0,1.49-.75,2.13,2.13,0,0,0,.58-1,2.11,2.11,0,0,0-.32-1.59,2.6,2.6,0,0,0-1.22-1,4.53,4.53,0,0,0-1-.26Z"/>
  <path class="cls-1" d="M23.83,25.41,22.76,30c.91.27,1.69.46,2.29.59a7.79,7.79,0,0,0,1.76.21,3.12,3.12,0,0,0,1-.1A1.76,1.76,0,0,0,29.25,29a2.31,2.31,0,0,0,0-1.23,2.13,2.13,0,0,0-.69-1,2.73,2.73,0,0,0-.74-.37,13.85,13.85,0,0,0-1.49-.48C25.71,25.79,24.87,25.6,23.83,25.41Z"/>
</svg>