<svg xmlns="http://www.w3.org/2000/svg" viewBox="0 0 50 50"><defs><style>.cls-1{fill:#2b2f32;}</style></defs><title>BTN</title><g id="Слой_27" data-name="Слой 27"><path class="cls-1" d="M25.25,31.67a1.23,1.23,0,0,1-.85,1.19,1.47,1.47,0,0,1-.41.07,1.26,1.26,0,0,1-1-.49L14.82,22.05v9.62a1.26,1.26,0,0,1-2.52,0V18.42a1.28,1.28,0,0,1,.83-1.2,1.27,1.27,0,0,1,1.43.43L22.73,28V18.42A1.27,1.27,0,0,1,24,17.16a1.24,1.24,0,0,1,1.26,1.26Z"/><path class="cls-1" d="M37.57,31.67a1.26,1.26,0,0,1-2.44.45,5,5,0,0,1-2.76.81A4.84,4.84,0,0,1,28.7,31.3a5.62,5.62,0,0,1-1.34-3.74V21.82a1.26,1.26,0,0,1,2.52,0v5.74a2.56,2.56,0,0,0,2.49,2.84,2.73,2.73,0,0,0,2.68-2.84V21.82a1.26,1.26,0,0,1,2.52,0Z"/></g></svg>