<svg xmlns="http://www.w3.org/2000/svg" viewBox="0 0 50 50"><defs><style>.cls-1{fill:#2b2f32;}</style></defs><title>CDF</title><g id="Слой_32" data-name="Слой 32"><path class="cls-1" d="M19.4,29.81a6.94,6.94,0,1,1,0-9.18,1.18,1.18,0,0,1-.11,1.67,1.17,1.17,0,0,1-.84.29,1.19,1.19,0,0,1-.82-.41,4.61,4.61,0,1,0,0,6.07,1.19,1.19,0,0,1,1.65-.12,1.24,1.24,0,0,1,.4.86A1.1,1.1,0,0,1,19.4,29.81Z"/><path class="cls-1" d="M25.48,18.27H22.56a1.17,1.17,0,0,0-1.18,1.17V31a1.17,1.17,0,0,0,1.18,1.18h2.92a7,7,0,0,0,0-13.91Zm0,11.56H23.73V20.6h1.75a4.62,4.62,0,1,1,0,9.23Z"/><path class="cls-1" d="M42.83,20.6H36.46v3.18h4.42a1.17,1.17,0,1,1,0,2.33H36.46V31a1.18,1.18,0,0,1-1.18,1.18A1.16,1.16,0,0,1,34.11,31V19.44a1.16,1.16,0,0,1,1.17-1.17h7.55a1.17,1.17,0,1,1,0,2.33Z"/></g></svg>