<svg xmlns="http://www.w3.org/2000/svg" viewBox="0 0 50 50"><defs><style>.cls-1{fill:#2b2f32;stroke:#2b2f32;stroke-miterlimit:10;stroke-width:0.25px;}</style></defs><title>CLP</title><g id="Слой_34" data-name="Слой 34"><path class="cls-1" d="M32.35,27c.11.19.21.37,0,0s-.11-.19,0,0a6.16,6.16,0,0,0-3.18-2.5,20,20,0,0,0-2.61-.77V18a5.06,5.06,0,0,1,2.09.82,2.89,2.89,0,0,1,.72.76,2.19,2.19,0,0,1,.25.48c.07.17.1.35.17.51a1.52,1.52,0,0,0,2.93-.77,2.61,2.61,0,0,0-.14-.55,3.71,3.71,0,0,0-.22-.55,5.67,5.67,0,0,0-1.22-1.76,7.45,7.45,0,0,0-4-1.93l-.59-.1V13.2a1.53,1.53,0,0,0-3.06,0v1.69a7.7,7.7,0,0,0-4.12,1.83,5.47,5.47,0,0,0-1.25,1.72,5.1,5.1,0,0,0-.46,2.21,5.17,5.17,0,0,0,.47,2.19,4.72,4.72,0,0,0,1.35,1.63,11,11,0,0,0,4,1.73v6a4.51,4.51,0,0,1-1.94-1.06,3.5,3.5,0,0,1-.67-.86,2.88,2.88,0,0,1-.24-.5c-.06-.17-.1-.35-.16-.53a1.53,1.53,0,0,0-2.81-.22,1.58,1.58,0,0,0-.16.86,3.14,3.14,0,0,0,.12.51c.05.19.12.37.19.56A6.85,6.85,0,0,0,19,32.9a7.5,7.5,0,0,0,3.74,2.3l.78.18v1.78a1.53,1.53,0,0,0,3.06,0V35.53A8.05,8.05,0,0,0,30.86,34,5.5,5.5,0,0,0,33,30.3,5.43,5.43,0,0,0,32.35,27Zm-8.86-4c-.35-.11-.68-.22-1-.34a5.23,5.23,0,0,1-1-.51,1.65,1.65,0,0,1-.67-.74,2.21,2.21,0,0,1-.12-1.08,2,2,0,0,1,.36-1A3.83,3.83,0,0,1,23.49,18Zm6.17,7.81a4,4,0,0,1-3.11,1.64V26.91a10.48,10.48,0,0,1,2.1.74,3,3,0,0,1,.82.6,1.81,1.81,0,0,1,.42.84A2.56,2.56,0,0,1,29.66,30.83Z"/></g></svg>