<svg xmlns="http://www.w3.org/2000/svg" viewBox="0 0 50 50"><defs><style>.cls-1{fill:#2b2f32;}</style></defs><title>CRC</title><g id="Слой_36" data-name="Слой 36"><path class="cls-1" d="M33.45,30a1.61,1.61,0,0,0-2.23.16,7.32,7.32,0,0,1-4.59,2.45l3.92-12.8a6,6,0,0,1,.67.66,1.55,1.55,0,0,0,1.11.55,1.5,1.5,0,0,0,1.12-.39A1.53,1.53,0,0,0,34,19.59a1.55,1.55,0,0,0-.39-1.17,10.27,10.27,0,0,0-2.06-1.79l1.05-3.44a1.16,1.16,0,1,0-2.22-.68l-.93,3A10.74,10.74,0,0,0,27.68,15l1-3.13a1.16,1.16,0,0,0-.77-1.45,1.17,1.17,0,0,0-1.45.77l-1.11,3.63a10.5,10.5,0,0,0-5.82,19l-1.21,4a1.16,1.16,0,0,0,.77,1.45,1.27,1.27,0,0,0,.34.05,1.15,1.15,0,0,0,1.1-.82L21.55,35a10.23,10.23,0,0,0,1.75.57l-1.07,3.49A1.16,1.16,0,0,0,23,40.54a1.4,1.4,0,0,0,.34.05,1.15,1.15,0,0,0,1.11-.82l1.19-3.89h.05a10.48,10.48,0,0,0,7.91-3.59A1.52,1.52,0,0,0,34,31.13,1.71,1.71,0,0,0,33.45,30Zm-13,.53a7.35,7.35,0,0,1,3.81-12.44Zm3.73,2A7.44,7.44,0,0,1,22.49,32l4.26-13.9a7.75,7.75,0,0,1,1.77.49Z"/></g></svg>