<svg xmlns="http://www.w3.org/2000/svg" viewBox="0 0 50 50"><defs><style>.cls-1{fill:#2b2f32;}</style></defs><title>CUP</title><g id="Слой_37" data-name="Слой 37"><path class="cls-1" d="M15.61,29.29a5,5,0,1,1,0-6.58,1.09,1.09,0,0,1,.28.84,1.11,1.11,0,0,1-.39.77,1.1,1.1,0,0,1-.8.27,1.14,1.14,0,0,1-.79-.39,2.72,2.72,0,1,0,0,3.58,1.15,1.15,0,0,1,1.59-.11,1.16,1.16,0,0,1,.39.82A1.07,1.07,0,0,1,15.61,29.29Z"/><path class="cls-1" d="M24.63,26.83a4.15,4.15,0,1,1-8.3,0V22.15a1.13,1.13,0,1,1,2.26,0v4.68a1.89,1.89,0,0,0,3.77,0V22.15a1.14,1.14,0,1,1,2.27,0Z"/><path class="cls-1" d="M30,28.71a2.72,2.72,0,0,0,2.05-.93,1.13,1.13,0,1,1,1.69,1.51,5,5,0,1,1,0-6.58,1.09,1.09,0,0,1,.28.84,1.07,1.07,0,0,1-.39.76,1.13,1.13,0,0,1-.81.28,1.15,1.15,0,0,1-.79-.4,2.72,2.72,0,1,0-2,4.52Z"/><path class="cls-1" d="M42.18,26a4.57,4.57,0,0,0-1.6-.67L40,25.22V22.88l0,0s0,0,0,0a1.29,1.29,0,0,1,.63.63.86.86,0,0,0,.77.53h.19A.84.84,0,0,0,42.48,23a2.54,2.54,0,0,0-.86-1.09A3.61,3.61,0,0,0,40,21.2v-.61a.7.7,0,0,0-.7-.7H39a.7.7,0,0,0-.7.7v.56a3.36,3.36,0,0,0-1.91.77A2.69,2.69,0,0,0,35.47,24a2.26,2.26,0,0,0,1,2,5.79,5.79,0,0,0,1.89.68v2.5a1.46,1.46,0,0,1-.77-.46,1.33,1.33,0,0,1-.23-.38.86.86,0,0,0-.78-.53h-.2a.84.84,0,0,0-.8,1.11A2.65,2.65,0,0,0,36.37,30a4.13,4.13,0,0,0,1.94.75v.26a.7.7,0,0,0,.7.7h.31a.71.71,0,0,0,.71-.7v-.24A3.91,3.91,0,0,0,42,30a2.7,2.7,0,0,0,1-2.13A2.26,2.26,0,0,0,42.18,26ZM38.31,24.8a2.86,2.86,0,0,1-.58-.21.79.79,0,0,1-.46-.74,1,1,0,0,1,.46-.85,2.45,2.45,0,0,1,.58-.24Zm2,4.32a1.57,1.57,0,0,1-.29.08V27.05a4,4,0,0,1,.65.26,1,1,0,0,1,.46.79A1.06,1.06,0,0,1,40.32,29.12Z"/></g></svg>