<svg xmlns="http://www.w3.org/2000/svg" viewBox="0 0 50 50"><defs><style>.cls-1{fill:#2b2f32;}</style></defs><title>CZK</title><g id="Слой_39" data-name="Слой 39"><path class="cls-1" d="M24.16,32.56h0a1.27,1.27,0,0,1-1.78,0l-6-6.05-.53.53v4.63a1.26,1.26,0,0,1-2.52,0V18.42a1.26,1.26,0,1,1,2.52,0v5l5.94-5.95a1.29,1.29,0,0,1,1.78,0,1.27,1.27,0,0,1,0,1.79l-5.43,5.43,6,6.06a1.2,1.2,0,0,1,.38.85A1.28,1.28,0,0,1,24.16,32.56Z"/><path class="cls-1" d="M28.67,15.59a.75.75,0,0,1,1.06,0L32.16,18l2.43-2.43a.75.75,0,1,1,1.06,1.06l-3,3a.75.75,0,0,1-.53.22h0a.71.71,0,0,1-.53-.22l-3-3A.74.74,0,0,1,28.67,15.59Z"/><path class="cls-1" d="M37.24,30.47a5.66,5.66,0,0,1-4.74,2.46,5.9,5.9,0,0,1-5.86-6.18,5.89,5.89,0,0,1,5.86-6.17A5.69,5.69,0,0,1,37.25,23a1.27,1.27,0,0,1,.2,1,1.21,1.21,0,0,1-.53.79A1.23,1.23,0,0,1,36,25a1.26,1.26,0,0,1-.8-.51,3.17,3.17,0,0,0-2.69-1.4,3.45,3.45,0,0,0-3.36,3.67A3.43,3.43,0,0,0,32.5,30.4,3.15,3.15,0,0,0,35.19,29a1.23,1.23,0,0,1,.8-.52,1.28,1.28,0,0,1,.95.21,1.21,1.21,0,0,1,.51.8A1.23,1.23,0,0,1,37.24,30.47Z"/></g></svg>