<svg id="Слой_1" data-name="Слой 1" 
  xmlns="http://www.w3.org/2000/svg" viewBox="0 0 50 50">
  <defs>
    <style>.cls-1{fill:#0076c0;}.cls-2{fill:#fff;}</style>
  </defs>
  <title>Монтажная область 1</title>
  <circle class="cls-1" cx="25" cy="25" r="25"/>
  <path class="cls-2" d="M16.22,21l1.29-4,17.89.08a5.38,5.38,0,0,1,.61.1,2.92,2.92,0,0,1,1.37.55,2.14,2.14,0,0,1,.59.87,3.19,3.19,0,0,1,.27,1.46,4,4,0,0,1-.11.91l-2.55,8a7.18,7.18,0,0,1-.36.83,6.11,6.11,0,0,1-.78,1.26,5.68,5.68,0,0,1-.78.79,4.59,4.59,0,0,1-1.22.79,4.78,4.78,0,0,1-1.1.28,4.48,4.48,0,0,1-.94.12h-18l1.3-4,16.2,0,2.59-8Z"/>
  <polygon class="cls-2" points="12.98 23.15 11.77 26.9 21.38 26.9 22.63 23.15 12.98 23.15"/>
</svg>