<svg xmlns="http://www.w3.org/2000/svg" viewBox="0 0 50 50"><defs><style>.cls-1{fill:#2b2f32;}</style></defs><title>DJF</title><g id="Слой_40" data-name="Слой 40"><path class="cls-1" d="M23,18.72A1.24,1.24,0,0,1,21.72,20H14.84v3.45h4.79a1.25,1.25,0,0,1,0,2.49H14.84v5.3a1.25,1.25,0,0,1-2.49,0V18.72a1.24,1.24,0,0,1,1.24-1.23h8.13A1.24,1.24,0,0,1,23,18.72Z"/><path class="cls-1" d="M35,18.72V31.2a1.24,1.24,0,0,1-2.45.28,5.53,5.53,0,0,1-3.13.95,5.35,5.35,0,0,1-4-1.76,6.26,6.26,0,0,1,0-8.2,5.36,5.36,0,0,1,4-1.77,5.48,5.48,0,0,1,3.11.94V18.72a1.24,1.24,0,0,1,2.47,0Zm-2.47,7.86a3.12,3.12,0,1,0-6.21,0,3.12,3.12,0,1,0,6.21,0Z"/><path class="cls-1" d="M38.67,21.94V33.48A3.14,3.14,0,0,1,32.79,35,1.24,1.24,0,1,1,35,33.8a.66.66,0,0,0,.58.34.64.64,0,0,0,.63-.66V21.94a1.25,1.25,0,0,1,2.5,0Zm0-3.68A1.32,1.32,0,1,1,37.39,17,1.26,1.26,0,0,1,38.71,18.26Z"/></g></svg>