<svg xmlns="http://www.w3.org/2000/svg" viewBox="0 0 50 50"><defs><style>.cls-1{fill:#2b2f32;}</style></defs><title>DKK</title><g id="Слой_41" data-name="Слой 41"><path class="cls-1" d="M26.87,33.91a1.34,1.34,0,0,1-.95.39,1.37,1.37,0,0,1-1-.39L17.85,26.8l-.72.72v5.42a1.37,1.37,0,0,1-2.73,0V17.53a1.37,1.37,0,1,1,2.73,0v6.11l7.09-7.09a1.44,1.44,0,0,1,1.94,0,1.39,1.39,0,0,1,0,1.95l-6.39,6.39L26.87,32a1.32,1.32,0,0,1,.41.93A1.37,1.37,0,0,1,26.87,33.91Z"/><path class="cls-1" d="M35.76,22.85a3.2,3.2,0,0,0-3.12,3.41v6.68a1.36,1.36,0,1,1-2.72,0V21.49a1.36,1.36,0,0,1,2.65-.42,5.84,5.84,0,0,1,3.19-.93,1.36,1.36,0,1,1,0,2.71Z"/></g></svg>