<svg xmlns="http://www.w3.org/2000/svg" viewBox="0 0 50 50"><defs><style>.cls-1{fill:#2b2f32;}</style></defs><title>EGP</title><g id="Слой_44" data-name="Слой 44"><path class="cls-1" d="M19.43,20.77a4,4,0,0,0-3.37-1.25,4.11,4.11,0,0,0-2.88,1.67,3.93,3.93,0,0,0-.7,2.55,3.32,3.32,0,0,0-.8.34,3.69,3.69,0,0,0-1.41,1.69,7.1,7.1,0,0,0-.44,3.06c0,.38,0,.61,0,1.12v2.58A1.16,1.16,0,0,0,11,33.69h0a1.18,1.18,0,0,0,1.17-1.16V29.94c0-.49,0-.7,0-1.06a7.86,7.86,0,0,1,.21-2.13,1.45,1.45,0,0,1,.53-.69,1.27,1.27,0,0,1,.58-.17,5.17,5.17,0,0,0,3,1.07,3.86,3.86,0,0,0,1.9-.48,3.66,3.66,0,0,0,1-5.71ZM18,23.48a1.51,1.51,0,0,1-.75,1,2.33,2.33,0,0,1-2.41-.4,1.81,1.81,0,0,1,.21-1.52,1.75,1.75,0,0,1,1.22-.7,1.73,1.73,0,0,1,1.39.48A1.5,1.5,0,0,1,18,23.48Z"/><rect class="cls-1" x="23.96" y="24.85" width="2.09" height="2.56"/><path class="cls-1" d="M42.38,31.68a10.32,10.32,0,0,1-3.44,1.13,13.08,13.08,0,0,1-2.07.19,6.75,6.75,0,0,1-4.38-1.44A6.49,6.49,0,0,1,31.15,23a7.07,7.07,0,0,1,2.46-2.36,26,26,0,0,0-3.29.43,1.16,1.16,0,0,1-.46-2.28,27.8,27.8,0,0,1,5.54-.52,27.4,27.4,0,0,1,4.51.41A1.17,1.17,0,0,1,39.79,21a10.11,10.11,0,0,0-4.37,1.29,5.7,5.7,0,0,0-2.29,1.94,4.31,4.31,0,0,0-.63,3A4.25,4.25,0,0,0,34,29.75c1.51,1.23,3.47.94,4.64.77a8.36,8.36,0,0,0,2.69-.89,1.16,1.16,0,1,1,1.09,2.05Z"/><rect class="cls-1" x="36.32" y="25.68" width="1.44" height="1.55"/></g></svg>