<svg xmlns="http://www.w3.org/2000/svg" viewBox="0 0 50 50"><defs><style>.cls-1{fill:#2b2f32;}</style></defs><title>ERN</title><g id="Слой_45" data-name="Слой 45"><path class="cls-1" d="M21.68,31a1.16,1.16,0,0,1-.8,1.12,1.67,1.67,0,0,1-.38.06,1.16,1.16,0,0,1-.93-.46l-7-8.89V31a1.18,1.18,0,1,1-2.35,0V19.44a1.17,1.17,0,0,1,2.11-.71l7,8.89V19.44a1.18,1.18,0,0,1,2.35,0Z"/><path class="cls-1" d="M28.51,21.8A1.16,1.16,0,0,1,29.69,23a1.18,1.18,0,0,1-1.18,1.18H26.84V31a1.18,1.18,0,1,1-2.35,0V24.15A1.17,1.17,0,0,1,23.36,23a1.16,1.16,0,0,1,1.13-1.17v-.23a3.28,3.28,0,0,1,3.28-3.28,3.11,3.11,0,0,1,1.19.22,1.17,1.17,0,0,1,.66,1.5,1.19,1.19,0,0,1-.65.67,1.17,1.17,0,0,1-.9,0,1.21,1.21,0,0,0-.3,0,.93.93,0,0,0-.93.93v.23Z"/><path class="cls-1" d="M39.25,31.94l0,0a1.18,1.18,0,0,1-.67.21,1.23,1.23,0,0,1-.92-.44L35,28.19a8.25,8.25,0,0,1-1.3.3V31a1.18,1.18,0,1,1-2.35,0V19.44a1.18,1.18,0,0,1,2.35,0v6.67a3.72,3.72,0,0,0,1-.35l.17-.1a5.68,5.68,0,0,0,2.24-3.55,1.15,1.15,0,0,1,.53-.7,1.18,1.18,0,0,1,.92-.11,1.16,1.16,0,0,1,.8,1.45A8.79,8.79,0,0,1,37.05,27l2.44,3.33A1.19,1.19,0,0,1,39.25,31.94Z"/></g></svg>