<svg xmlns="http://www.w3.org/2000/svg" viewBox="0 0 50 50"><defs><style>.cls-1{fill:#2b2f32;}</style></defs><title>ETB</title><g id="Слой_46" data-name="Слой 46"><path class="cls-1" d="M35.81,22.85a3.2,3.2,0,0,0-3.12,3.41v6.68a1.36,1.36,0,1,1-2.71,0V21.49a1.35,1.35,0,0,1,1.34-1.35,1.38,1.38,0,0,1,1.31.93,5.81,5.81,0,0,1,3.18-.93,1.36,1.36,0,1,1,0,2.71Z"/><path class="cls-1" d="M25,24.46a5,5,0,0,0-3.82-8.3H14.76a1.35,1.35,0,0,0-1.36,1.37V32.94a1.35,1.35,0,0,0,1.36,1.36h7.18A5.4,5.4,0,0,0,25,24.46Zm-8.89-5.59H21.2a2.32,2.32,0,0,1,0,4.63H16.13Zm5.81,12.7H16.13V26.21h5.81a2.68,2.68,0,0,1,0,5.36Z"/></g></svg>