<svg id="Слой_1" data-name="Слой 1" xmlns="http://www.w3.org/2000/svg" viewBox="0 0 50 50"><defs><style>.cls-1{fill:#2b2f32;}</style></defs><title>EUR_1</title><path class="cls-1" d="M34.61,34.4a1.52,1.52,0,0,1-.72,1,12,12,0,0,1-17.35-6.51H14.87a1.56,1.56,0,1,1,0-3.12h1.05c0-.26,0-.49,0-.74s0-.48,0-.73H14.87a1.57,1.57,0,0,1,0-3.13h1.67a12,12,0,0,1,17.35-6.52,1.58,1.58,0,0,1,.57,2.14,1.61,1.61,0,0,1-2.14.57,8.87,8.87,0,0,0-4.44-1.19,8.71,8.71,0,0,0-8,5h7.17a1.57,1.57,0,1,1,0,3.13h-8A6.18,6.18,0,0,0,19,25a6.46,6.46,0,0,0,0,.74h8a1.56,1.56,0,1,1,0,3.12H19.92a8.83,8.83,0,0,0,12.4,3.8,1.61,1.61,0,0,1,2.14.57A1.57,1.57,0,0,1,34.61,34.4Z"/></svg>