<svg xmlns="http://www.w3.org/2000/svg" viewBox="0 0 50 50"><defs><style>.cls-1,.cls-2{fill:#2b2f32;}.cls-2{stroke:#2b2f32;stroke-miterlimit:10;stroke-width:0.25px;}</style></defs><title>FJD</title><g id="Слой_47" data-name="Слой 47"><path class="cls-1" d="M16.55,24.61a1.18,1.18,0,1,1,0,2.35H12v5a1.19,1.19,0,0,1-1.19,1.19A1.17,1.17,0,0,1,9.66,32V20.18A1.17,1.17,0,0,1,10.84,19h7.69a1.18,1.18,0,1,1,0,2.36H12v3.26Z"/><path class="cls-1" d="M26.61,29a4.13,4.13,0,0,1-7.75,2,1.18,1.18,0,0,1,1.38-1.71,1.17,1.17,0,0,1,.69.58,1.77,1.77,0,0,0,3.3-.88V20.18A1.17,1.17,0,0,1,25.42,19a1.19,1.19,0,0,1,1.19,1.19Z"/><path class="cls-2" d="M40.1,26.88c.07.12.13.23,0,0h0a3.93,3.93,0,0,0-2.05-1.6,11.15,11.15,0,0,0-1.68-.5V21.05a3.15,3.15,0,0,1,1.35.52,2,2,0,0,1,.46.49,1.3,1.3,0,0,1,.16.31c0,.11.07.22.11.33a1,1,0,0,0,.87.63,1,1,0,0,0,.93-.57,1.07,1.07,0,0,0,.09-.56,2.3,2.3,0,0,0-.1-.35,2.67,2.67,0,0,0-.14-.36,3.63,3.63,0,0,0-.78-1.13,4.85,4.85,0,0,0-2.57-1.24l-.38-.06V18a1,1,0,0,0-.57-.89,1,1,0,0,0-1.06.16,1,1,0,0,0-.33.73v1.09a4.81,4.81,0,0,0-2.65,1.17A3.42,3.42,0,0,0,31,21.35a3.54,3.54,0,0,0,0,2.83,3,3,0,0,0,.87,1,6.84,6.84,0,0,0,2.58,1.11v3.89a2.94,2.94,0,0,1-1.25-.68,2.59,2.59,0,0,1-.44-.55c0-.11-.1-.21-.15-.33s-.06-.22-.1-.34a1,1,0,0,0-.85-.67,1,1,0,0,0-.95.53,1,1,0,0,0-.11.55,1.23,1.23,0,0,0,.08.33,2.53,2.53,0,0,0,.12.36,4.11,4.11,0,0,0,.74,1.22,4.79,4.79,0,0,0,2.4,1.48c.17.05.34.08.51.12v1.14a1,1,0,0,0,.57.89,1,1,0,0,0,1.39-.89V32.33a5.18,5.18,0,0,0,2.77-1A3.57,3.57,0,0,0,40.5,29,3.53,3.53,0,0,0,40.1,26.88Zm-5.69-2.59-.63-.21a3.28,3.28,0,0,1-.64-.34,1.08,1.08,0,0,1-.43-.47,1.52,1.52,0,0,1-.08-.7,1.27,1.27,0,0,1,.23-.62,2.41,2.41,0,0,1,1.55-.89Zm4,5a2.51,2.51,0,0,1-2,1.05V26.79a6.38,6.38,0,0,1,1.35.48,1.69,1.69,0,0,1,.53.39,1.08,1.08,0,0,1,.27.53A1.6,1.6,0,0,1,38.37,29.31Z"/></g></svg>