<svg xmlns="http://www.w3.org/2000/svg" viewBox="0 0 50 50"><defs><style>.cls-1{fill:#2b2f32;}</style></defs><title>FKP</title><g id="Слой_48" data-name="Слой 48"><path class="cls-1" d="M17.94,21.6H11.57v3.18H16a1.17,1.17,0,1,1,0,2.33H11.57V32a1.18,1.18,0,0,1-1.18,1.18A1.16,1.16,0,0,1,9.22,32V20.44a1.16,1.16,0,0,1,1.17-1.17h7.55a1.17,1.17,0,1,1,0,2.33Z"/><path class="cls-1" d="M30.4,32.84a1.17,1.17,0,0,1-1.65,0l-5.22-5.23-.39.39v4a1.18,1.18,0,1,1-2.35,0V20.44a1.18,1.18,0,0,1,2.35,0v4.23l5.07-5.06a1.22,1.22,0,0,1,1.65,0,1.2,1.2,0,0,1,0,1.68L25.19,26l5.21,5.23a1,1,0,0,1,.35.79A1.12,1.12,0,0,1,30.4,32.84Z"/><path class="cls-1" d="M37.47,19.27H33.61a1.16,1.16,0,0,0-1.17,1.17V32a1.18,1.18,0,1,0,2.35,0V29.35h2.68a5,5,0,0,0,0-10.08Zm0,7.74H34.79V21.6h2.68a2.71,2.71,0,0,1,0,5.41Z"/></g></svg>