<svg xmlns="http://www.w3.org/2000/svg" viewBox="0 0 50 50"><defs><style>.cls-1{fill:#2b2f32;}</style></defs><title>GPB</title><g id="Слой_4" data-name="Слой 4"><path class="cls-1" d="M34.43,34.72l-.59.23a10.46,10.46,0,0,1-3.35.69h-.07a4.8,4.8,0,0,1-.85-.11l-1.12-.25c-.42-.09-.84-.2-1.29-.31l-1.28-.31c-.41-.09-.79-.18-1.14-.24a4.85,4.85,0,0,0-.78-.1,12.58,12.58,0,0,0-5.1,1.3l-.1,0-.2,0A1.59,1.59,0,0,1,17,34.38c-.1-.55.11-1.31,1.68-1.83a6.81,6.81,0,0,0,1.23-.83,4.5,4.5,0,0,0,.92-1.11,5.25,5.25,0,0,0,.58-1.47,8.15,8.15,0,0,0,.21-1.95,6.77,6.77,0,0,0-.16-1.48l0-.14-2.84,0a1.3,1.3,0,0,1,0-2.58h2.07l-.06-.23c-.19-.64-.33-1.23-.43-1.74a9.25,9.25,0,0,1-.18-1.66,6.58,6.58,0,0,1,.51-2.64,5.48,5.48,0,0,1,1.42-2,6.27,6.27,0,0,1,2.17-1.25,9.09,9.09,0,0,1,5.36-.07,6.08,6.08,0,0,1,2.06,1.1,5.53,5.53,0,0,1,1.4,1.8,7,7,0,0,1,.67,2.47v.11h0v.2a1.63,1.63,0,0,1-3.23.05.78.78,0,0,1,0-.22v0h0v-.08c-.2-2.16-1.31-3.16-3.49-3.16a3.75,3.75,0,0,0-1.45.27,3.53,3.53,0,0,0-1.09.75,3.62,3.62,0,0,0-.71,1.12,3.36,3.36,0,0,0-.26,1.33,13.47,13.47,0,0,0,.7,3.77l0,.13H28.7a1.3,1.3,0,0,1,.14,2.52.76.76,0,0,1-.25.06H24.73l.06.22a4.32,4.32,0,0,1,.1.88,8.89,8.89,0,0,1-.15,1.7,5,5,0,0,1-.48,1.45,6.13,6.13,0,0,1-.85,1.27c-.06.08-.14.16-.21.24l-.33.35.47-.05c.27,0,.53,0,.79,0a9.89,9.89,0,0,1,1.48.16l1.85.33,1.75.31a7.58,7.58,0,0,0,1.07.15,6.82,6.82,0,0,0,3.12-.77l.09,0,.07,0,0,0,.39,0a1.57,1.57,0,0,1,.51,3.09Z"/></g></svg>