<svg xmlns="http://www.w3.org/2000/svg" viewBox="0 0 50 50"><defs><style>.cls-1{fill:#2b2f32;}</style></defs><title>GEL</title><g id="Слой_49" data-name="Слой 49"><path class="cls-1" d="M35.54,30.24a1.15,1.15,0,0,1-1.79-1.46c.16-.2,3.9-4.81,2.71-8.15a3.41,3.41,0,0,0-1.34-1.89,3.28,3.28,0,0,0-2.38-.3,3.19,3.19,0,0,0-2,1.17,3.58,3.58,0,0,0-.57,1.52,7.78,7.78,0,0,0-.07,1.31,20.84,20.84,0,0,1,0,2.62,1.14,1.14,0,0,1-1.15,1.08h0A1.16,1.16,0,0,1,27.76,25V22.5c0-.48-.08-.95-.15-1.42a4.19,4.19,0,0,0-.52-1.88,3,3,0,0,0-1.87-1.1,2.52,2.52,0,0,0-1.45.19,2.78,2.78,0,0,0-1.25,1.37,6.82,6.82,0,0,0-.51,2.8c-.06.74-.08,1.48-.07,2.22,0,.11,0,.21,0,.31a1.16,1.16,0,0,1-1.13,1.18,1.14,1.14,0,0,1-1.18-1.12c0-.11,0-.22,0-.33,0-.61,0-1.42,0-2.38v-.82a3.59,3.59,0,0,0-1.41-2.78,3.46,3.46,0,0,0-2.82-.34,4,4,0,0,0-2.21,2.73c-.54,1.69-.12,3.61,1.24,5.71a10,10,0,0,0,4.06,3.46A34.9,34.9,0,0,0,23.21,32c.8.27,1.42.46,1.92.61a9.47,9.47,0,0,1,2.81,1.16,9.41,9.41,0,0,1,3.39,4.49,1.15,1.15,0,0,1-.66,1.49,1,1,0,0,1-.42.08,1.14,1.14,0,0,1-1.07-.74,7.09,7.09,0,0,0-2.54-3.41,7.27,7.27,0,0,0-2.19-.86l-1.37-.44a12.14,12.14,0,0,0-7.9,2.45,1.17,1.17,0,0,1-.69.23,1.15,1.15,0,0,1-.7-2.07,14.4,14.4,0,0,1,3.46-1.94c.32-.12.65-.22,1-.32-.31-.13-.59-.26-.83-.39a12.44,12.44,0,0,1-4.92-4.24c-1.75-2.71-2.25-5.29-1.5-7.67a6,6,0,0,1,3.64-4.2,5.65,5.65,0,0,1,4.89.61,5.12,5.12,0,0,1,1.27,1.22,4.64,4.64,0,0,1,4.77-2.24,5.2,5.2,0,0,1,3.42,2l.09.14a5.55,5.55,0,0,1,3.23-1.81,5.48,5.48,0,0,1,4,.59,5.7,5.7,0,0,1,2.3,3.08C40.2,24.24,36.33,29.28,35.54,30.24Z"/></g></svg>