<svg xmlns="http://www.w3.org/2000/svg" viewBox="0 0 50 50"><defs><style>.cls-1{fill:#2b2f32;}</style></defs><title>GHS</title><g id="Слой_50" data-name="Слой 50"><path class="cls-1" d="M31.22,30.14a7.33,7.33,0,0,1-5.54,2.52,7.51,7.51,0,0,1-1.51-.16l4.29-14a7.35,7.35,0,0,1,2.76,2,1.55,1.55,0,0,0,1.11.55,1.51,1.51,0,0,0,1.12-.39A1.58,1.58,0,0,0,34,19.54a1.6,1.6,0,0,0-.4-1.17,10.5,10.5,0,0,0-4.21-2.89l1.11-3.62a1.16,1.16,0,0,0-2.22-.68l-1.14,3.73a10.15,10.15,0,0,0-1.46-.12,10.51,10.51,0,0,0-4.62,20l-.93,3a1.17,1.17,0,0,0,.77,1.45,1.4,1.4,0,0,0,.34,0,1.15,1.15,0,0,0,1.11-.82l.89-2.91a10.42,10.42,0,0,0,10.35-3.29A1.52,1.52,0,0,0,34,31.08a1.71,1.71,0,0,0-.55-1.1A1.61,1.61,0,0,0,31.22,30.14ZM22,31.66a7.35,7.35,0,0,1,3.68-13.72l.52,0Z"/></g></svg>