<svg xmlns="http://www.w3.org/2000/svg" viewBox="0 0 50 50"><defs><style>.cls-1{fill:#2b2f32;}</style></defs><title>GNF</title><g id="Слой_52" data-name="Слой 52"><path class="cls-1" d="M18.84,28.94a1.13,1.13,0,0,1-.27.74,6.79,6.79,0,1,1,0-8.94,1.16,1.16,0,0,1,.28.85,1.14,1.14,0,0,1-2,.65,4.51,4.51,0,1,0-3.4,7.48,4.48,4.48,0,0,0,3.11-1.24V26.81H13.87a1.15,1.15,0,0,1,0-2.3h3.82a1.14,1.14,0,0,1,1.15,1.15Z"/><path class="cls-1" d="M31.69,30.87a1.15,1.15,0,0,1-2.06.71l-6.85-8.69v8a1.15,1.15,0,0,1-2.3,0V19.57a1.15,1.15,0,0,1,2.07-.69l6.84,8.68v-8a1.15,1.15,0,0,1,2.3,0Z"/><path class="cls-1" d="M41.85,20.71H35.63v3.1H40a1.14,1.14,0,1,1,0,2.28H35.63v4.78A1.15,1.15,0,0,1,34.48,32a1.13,1.13,0,0,1-1.15-1.15V19.57a1.13,1.13,0,0,1,1.15-1.14h7.37A1.15,1.15,0,0,1,43,19.57,1.16,1.16,0,0,1,41.85,20.71Z"/></g></svg>