<svg xmlns="http://www.w3.org/2000/svg" viewBox="0 0 50 50"><defs><style>.cls-1,.cls-2{fill:#2b2f32;}.cls-2{stroke:#2b2f32;stroke-miterlimit:10;stroke-width:0.25px;}</style></defs><title>HKD</title><g id="Слой_55" data-name="Слой 55"><path class="cls-1" d="M18.81,32a1.2,1.2,0,0,1-1.2,1.19A1.17,1.17,0,0,1,16.42,32v-4.3H9.86V32a1.19,1.19,0,0,1-1.19,1.19A1.17,1.17,0,0,1,7.48,32V20.07a1.17,1.17,0,0,1,1.19-1.19,1.19,1.19,0,0,1,1.19,1.19V25.3h6.56V20.07a1.17,1.17,0,0,1,1.19-1.19,1.2,1.2,0,0,1,1.2,1.19Z"/><path class="cls-1" d="M30.45,32.84a1.17,1.17,0,0,1-.83.34,1.19,1.19,0,0,1-.85-.34l-5.39-5.4-.42.42V32a1.2,1.2,0,0,1-2.39,0V20.07a1.2,1.2,0,0,1,2.39,0v4.4l5.25-5.25a1.23,1.23,0,0,1,1.68,0,1.2,1.2,0,0,1,0,1.7l-4.85,4.84,5.39,5.4a1.1,1.1,0,0,1,.35.81A1.21,1.21,0,0,1,30.45,32.84Z"/><path class="cls-2" d="M41.12,27.36h0c-.13-.23-.07-.12,0,0a3.76,3.76,0,0,0-1.94-1.52,13.11,13.11,0,0,0-1.59-.47V21.84a2.92,2.92,0,0,1,1.27.5,1.48,1.48,0,0,1,.44.46,1.64,1.64,0,0,1,.16.29c0,.1.06.21.09.31a1,1,0,0,0,.83.6.92.92,0,0,0,1-1.07,2,2,0,0,0-.08-.33,3.42,3.42,0,0,0-.13-.34,3.63,3.63,0,0,0-.75-1.07A4.53,4.53,0,0,0,38,20L37.59,20v-1a.94.94,0,0,0-1.87,0v1a4.7,4.7,0,0,0-2.51,1.11,3.19,3.19,0,0,0-1,2.4,3.18,3.18,0,0,0,.29,1.33,2.81,2.81,0,0,0,.82,1,6.65,6.65,0,0,0,2.44,1.06v3.68a2.84,2.84,0,0,1-1.18-.64,2.6,2.6,0,0,1-.41-.53c-.05-.1-.1-.2-.14-.3s-.07-.22-.1-.33a.94.94,0,0,0-.8-.63,1,1,0,0,0-.91.5.94.94,0,0,0-.1.52,1.55,1.55,0,0,0,.07.31,3.4,3.4,0,0,0,.12.34,4,4,0,0,0,.7,1.16,4.56,4.56,0,0,0,2.28,1.4,4,4,0,0,0,.47.11v1.09a.93.93,0,0,0,.55.84.9.9,0,0,0,1-.15.92.92,0,0,0,.32-.69v-1a5,5,0,0,0,2.62-.93,3.34,3.34,0,0,0,.91-4.25Zm-5.4-2.45c-.21-.06-.41-.13-.59-.2a3.55,3.55,0,0,1-.61-.32,1,1,0,0,1-.41-.45,1.46,1.46,0,0,1-.07-.66,1.29,1.29,0,0,1,.22-.59,2.35,2.35,0,0,1,1.46-.84Zm3.76,4.76a2.39,2.39,0,0,1-1.89,1V27.28a6.72,6.72,0,0,1,1.28.45,2,2,0,0,1,.5.37,1.11,1.11,0,0,1,.25.51A1.51,1.51,0,0,1,39.48,29.67Z"/></g></svg>