<svg xmlns="http://www.w3.org/2000/svg" viewBox="0 0 50 50"><defs><style>.cls-1{fill:#2b2f32;}</style></defs><title>HNL</title><g id="Слой_56" data-name="Слой 56"><path class="cls-1" d="M19.25,31a1.18,1.18,0,0,1-1.18,1.18A1.16,1.16,0,0,1,16.9,31V26.85H10.57V31a1.18,1.18,0,0,1-1.18,1.18A1.16,1.16,0,0,1,8.22,31V19.44a1.16,1.16,0,0,1,1.17-1.17,1.18,1.18,0,0,1,1.18,1.17V24.5H16.9V19.44a1.16,1.16,0,0,1,1.17-1.17,1.18,1.18,0,0,1,1.18,1.17Z"/><path class="cls-1" d="M32.57,31a1.17,1.17,0,0,1-.8,1.12,1.67,1.67,0,0,1-.38.06,1.15,1.15,0,0,1-.93-.46l-7-8.89V31a1.18,1.18,0,0,1-2.36,0V19.44a1.18,1.18,0,0,1,2.12-.71l7,8.89V19.44a1.18,1.18,0,0,1,1.18-1.17,1.17,1.17,0,0,1,1.18,1.17Z"/><path class="cls-1" d="M41.74,32.18H35.42A1.18,1.18,0,0,1,34.24,31V19.44a1.18,1.18,0,0,1,1.18-1.17,1.17,1.17,0,0,1,1.18,1.17V29.83h5.14a1.18,1.18,0,1,1,0,2.35Z"/></g></svg>