<svg xmlns="http://www.w3.org/2000/svg" viewBox="0 0 50 50"><defs><style>.cls-1{fill:#2b2f32;}</style></defs><title>HRK</title><g id="Слой_57" data-name="Слой 57"><path class="cls-1" d="M23.58,33l0,0a1.41,1.41,0,0,1-1.87-.27l-3.55-4.85a8.5,8.5,0,0,1-2,.46v3.54a1.37,1.37,0,0,1-2.73,0V16.53a1.37,1.37,0,1,1,2.73,0v9.13a5.67,5.67,0,0,0,1.7-.56L18,25c1.82-1,2.61-3.14,3.1-4.86a1.28,1.28,0,0,1,.62-.81,1.37,1.37,0,0,1,2,1.55,11.55,11.55,0,0,1-3.21,5.68l3.36,4.57A1.41,1.41,0,0,1,23.58,33Z"/><path class="cls-1" d="M38.43,31.94a1.36,1.36,0,1,1-2.71,0V25.26a3.12,3.12,0,0,0-3-3.41,3.29,3.29,0,0,0-3.24,3.41v6.68a1.36,1.36,0,1,1-2.72,0V20.49a1.36,1.36,0,0,1,1.35-1.35,1.39,1.39,0,0,1,1.32,1,5.89,5.89,0,0,1,3.29-1A5.45,5.45,0,0,1,36.91,21a6.41,6.41,0,0,1,1.52,4.26Z"/></g></svg>