<svg xmlns="http://www.w3.org/2000/svg" viewBox="0 0 50 50"><defs><style>.cls-1{fill:#2b2f32;}</style></defs><title>HUF</title><g id="Слой_59" data-name="Слой 59"><path class="cls-1" d="M24.82,19.87H16.13V24.5h6.1a1.37,1.37,0,0,1,1.37,1.35,1.35,1.35,0,0,1-1.37,1.36h-6.1v6.73a1.36,1.36,0,0,1-1.37,1.36,1.35,1.35,0,0,1-1.36-1.36V18.53a1.35,1.35,0,0,1,1.36-1.37H24.82a1.37,1.37,0,0,1,1.37,1.37A1.38,1.38,0,0,1,24.82,19.87Z"/><path class="cls-1" d="M36.81,34a3.71,3.71,0,0,1-6.54-2.38V23.85h-.1a1.36,1.36,0,0,1,0-2.71h.1V19.29a1.36,1.36,0,0,1,1.37-1.36A1.35,1.35,0,0,1,33,19.29v1.85h2.12a1.36,1.36,0,1,1,0,2.71H33v7.76a1,1,0,0,0,1,1,.91.91,0,0,0,.71-.33,1.37,1.37,0,0,1,.95-.48,1.32,1.32,0,0,1,1,.33A1.36,1.36,0,0,1,36.81,34Z"/></g></svg>