<svg xmlns="http://www.w3.org/2000/svg" viewBox="0 0 50 50"><defs><style>.cls-1{fill:#2b2f32;}</style></defs><title>IDR</title><g id="Слой_60" data-name="Слой 60"><path class="cls-1" d="M20.56,27.62A6.51,6.51,0,0,0,17.9,15.16H12.76a1.35,1.35,0,0,0-1.36,1.37V31.94a1.37,1.37,0,0,0,2.73,0V28.19h3.18l4.5,4.66a1.26,1.26,0,0,0,1,.45,1.36,1.36,0,0,0,1-2.3Zm-6.43-2.14V17.87H17.9a3.81,3.81,0,0,1,0,7.61Z"/><path class="cls-1" d="M33.79,19.14a6.6,6.6,0,0,0-4,1.31,1.36,1.36,0,0,0-1.37-1.31A1.38,1.38,0,0,0,27,20.49V38.54a1.37,1.37,0,0,0,1.37,1.36,1.35,1.35,0,0,0,1.37-1.36V32a6.6,6.6,0,0,0,4,1.31,6.75,6.75,0,0,0,6.72-7.08A6.76,6.76,0,0,0,33.79,19.14Zm0,11.43a4.1,4.1,0,0,1-4-4.35,4,4,0,1,1,8,0A4.1,4.1,0,0,1,33.79,30.57Z"/></g></svg>