<svg xmlns="http://www.w3.org/2000/svg" viewBox="0 0 50 50"><defs><style>.cls-1{fill:#2b2f32;stroke:#2b2f32;stroke-miterlimit:10;stroke-width:0.25px;}</style></defs><title>ILS</title><g id="Слой_5" data-name="Слой 5"><path class="cls-1" d="M18.93,35.15a1.43,1.43,0,0,1-2.86,0v-20A1.43,1.43,0,0,1,17.5,13.8h6c4.44,0,6.42,2.85,6.42,5.67v9.27a1.43,1.43,0,1,1-2.85,0V19.47c0-.85-.35-2.81-3.57-2.81H18.93Z"/><path class="cls-1" d="M35.11,35.25a1.43,1.43,0,0,1-1.43,1.33h-6c-4.44,0-6.43-2.85-6.43-5.67V21.64a1.43,1.43,0,1,1,2.85,0v9.27c0,.84.35,2.81,3.58,2.81h4.56V15.23a1.43,1.43,0,1,1,2.86,0Z"/></g></svg>