<svg xmlns="http://www.w3.org/2000/svg" viewBox="0 0 50 50"><defs><style>.cls-1{fill:#2b2f32;}</style></defs><title>IMP</title><g id="Слой_61" data-name="Слой 61"><path class="cls-1" d="M33.93,36.38l-.61.24a11,11,0,0,1-3.57.74h-.06a4.64,4.64,0,0,1-.91-.12L27.58,37l-1.37-.33-1.36-.33-1.21-.26a5.49,5.49,0,0,0-.83-.1,13.49,13.49,0,0,0-5.43,1.38l-.1,0h-.21A1.67,1.67,0,0,1,15.44,36c-.11-.58.12-1.39,1.78-1.94a7,7,0,0,0,1.31-.89,4.67,4.67,0,0,0,1-1.18,5.47,5.47,0,0,0,.62-1.56,8.68,8.68,0,0,0,.22-2.08,7.62,7.62,0,0,0-.17-1.57l0-.15-3,0a1.37,1.37,0,0,1-1.22-1.36,1.38,1.38,0,0,1,1.25-1.38h2.21l-.08-.24c-.19-.69-.35-1.31-.45-1.85A10.72,10.72,0,0,1,18.65,20a7.08,7.08,0,0,1,.54-2.81,6.11,6.11,0,0,1,1.51-2.14A6.83,6.83,0,0,1,23,13.74a9,9,0,0,1,3-.46,9.23,9.23,0,0,1,2.75.39,6.26,6.26,0,0,1,2.18,1.17,5.94,5.94,0,0,1,1.5,1.92,7.13,7.13,0,0,1,.7,2.62l-.24.1.25,0v.25a1.73,1.73,0,0,1-3.44.06,1.44,1.44,0,0,1-.05-.24v-.12c-.21-2.31-1.39-3.36-3.71-3.36a3.86,3.86,0,0,0-1.55.29,3.37,3.37,0,0,0-1.16.79,4,4,0,0,0-.76,1.18,3.83,3.83,0,0,0-.27,1.43,14,14,0,0,0,.75,4l0,.13h4.73l.18,0A1.38,1.38,0,0,1,28,26.57a.62.62,0,0,1-.26.07H23.63l.06.24a4.06,4.06,0,0,1,.11.92,10,10,0,0,1-.16,1.82,5.58,5.58,0,0,1-.51,1.54,6.75,6.75,0,0,1-.9,1.35c-.08.08-.15.17-.23.26l-.35.36.5,0a7.78,7.78,0,0,1,2.41.13l2,.34,1.86.33a6.32,6.32,0,0,0,1.15.16,7.28,7.28,0,0,0,3.31-.81l.1,0,.18-.06v0l.28,0a1.67,1.67,0,0,1,.53,3.29Z"/></g></svg>