<svg xmlns="http://www.w3.org/2000/svg" viewBox="0 0 50 50"><defs><style>.cls-1{fill:#2b2f32;}</style></defs><title>INR</title><g id="Слой_6" data-name="Слой 6"><path class="cls-1" d="M30.7,18.7h2a1.35,1.35,0,0,1,0,2.69H30.5a6.27,6.27,0,0,1-3.94,4.13c1.61.69,2.66,2.23,3.23,4.7a38,38,0,0,0,1.77,6.33,0,0,0,0,1,0,0,1.57,1.57,0,0,1-1.2,2.6,1.56,1.56,0,0,1-1.1-.44,6.64,6.64,0,0,1-1.47-2.86c-.3-.91-.69-2.43-1.22-4.75-.67-3.14-1.84-4.28-4.49-4.39h-4a1.31,1.31,0,0,1,0-2.62h4.24c2.42,0,4.17-1,4.8-2.73H16.94a1.35,1.35,0,0,1,0-2.69H27.27c-.51-2.14-2.49-2.87-4.37-3h-6A1.3,1.3,0,0,1,15.6,14.4a1.31,1.31,0,0,1,1.34-1.31H32.66a1.3,1.3,0,1,1,0,2.6h-3.1A6.09,6.09,0,0,1,30.7,18.7Z"/></g></svg>