<svg xmlns="http://www.w3.org/2000/svg" viewBox="0 0 50 50"><defs><style>.cls-1{fill:#2b2f32;}</style></defs><title>IQD</title><g id="Слой_62" data-name="Слой 62"><path class="cls-1" d="M18.14,27.57a5.51,5.51,0,0,1-4.66,2.14,8.57,8.57,0,0,1-3.15-.62,1.22,1.22,0,1,1,.91-2.26c2.19.87,4.2.36,4.88-.63s.14-2.71-.08-3.34a6.07,6.07,0,0,0-2.21-2.94,1.22,1.22,0,1,1,1.43-2,8.52,8.52,0,0,1,3.09,4.12C18.64,22.93,19.52,25.53,18.14,27.57Z"/><path class="cls-1" d="M23.1,29.24a1.51,1.51,0,1,1,1.37-1.5A1.44,1.44,0,0,1,23.1,29.24Z"/><path class="cls-1" d="M40.81,33.77A12.63,12.63,0,0,1,35,35.35a8.64,8.64,0,0,1-3.41-.68c-.85-.35-3.41-1.44-4.13-4a5.72,5.72,0,0,1,.38-3.88A6.76,6.76,0,0,1,30,24.1a2.58,2.58,0,0,1-.37-.24,3.9,3.9,0,0,1-1.23-3.71c.4-2.32,2.67-3.29,3.42-3.61a7,7,0,0,1,3.75-.46,1.22,1.22,0,0,1-.36,2.41,4.49,4.49,0,0,0-2.43.29c-.54.23-1.8.77-2,1.79a1.63,1.63,0,0,0,.31,1.36,6.36,6.36,0,0,0,2.21-.24l1.76-.29c.72-.12,1.37-.22,1.91-.29.27-.05.55-.08.83-.12a1.24,1.24,0,0,1,1.35,1.07,1.21,1.21,0,0,1-1.06,1.35l-.76.11a12.57,12.57,0,0,0-4.82,1.8,5.57,5.57,0,0,0-2.42,2.41A3.54,3.54,0,0,0,29.81,30c.41,1.45,2,2.14,2.74,2.44,3,1.27,6.17-.29,7.07-.79a1.22,1.22,0,1,1,1.19,2.13Z"/></g></svg>