<svg xmlns="http://www.w3.org/2000/svg" viewBox="0 0 50 50"><defs><style>.cls-1{fill:#2b2f32;}</style></defs><title>IRR</title><g id="Слой_63" data-name="Слой 63"><path class="cls-1" d="M21.12,17.79c.13,1.21.27,2.45.41,3.64v.1c.2,1.64.39,3.33.55,5A6,6,0,0,1,21,31.16a5.37,5.37,0,0,1-3.88,1.7c-.72,0-1.36.08-2,.08a17.73,17.73,0,0,1-2-.11,4,4,0,0,1-2.91-1.67A3.91,3.91,0,0,1,9.73,28a11.93,11.93,0,0,1,1.61-3.88.74.74,0,0,1,1-.21.72.72,0,0,1,.21,1A9,9,0,0,0,11.31,28a1.59,1.59,0,0,0,.36,1.14A4,4,0,0,0,15,30.35h.62c.25,0,.55,0,.85,0,1.73-.16,2.77-.55,3.36-1.26a4.51,4.51,0,0,0,.61-3.36l-.09-.95A55.89,55.89,0,0,0,19.27,17l-.07-.31c-.33-1.34-.61-2.49.16-3.81a.35.35,0,0,1,.23-.16h.05a.32.32,0,0,1,.21.08l.41.39a4.73,4.73,0,0,0,.75.63,2,2,0,0,1,1.13,1.35A2.27,2.27,0,0,1,21.27,17,1.25,1.25,0,0,0,21.12,17.79Z"/><path class="cls-1" d="M24.62,27.65c-.15-.89-.24-1.78-.33-2.65-.07-.69-.15-1.46-.25-2.2s-.25-1.47-.37-2.19v0c-.21-1.15-.42-2.32-.54-3.49a3.32,3.32,0,0,1,.42-1.59,5.59,5.59,0,0,0,.26-.63.32.32,0,0,1,.61,0,21.34,21.34,0,0,1,1,4c.07.81.19,2.23.31,3.75C25.8,23.73,25.9,25,26,26c.06.79.45,1.11,1.33,1.11h.11c.68,0,1.41,0,2.31,0h3.19q-.07-.36-.15-.69a4.28,4.28,0,0,0-.59-1.75,2.42,2.42,0,0,1-.08-3.28.36.36,0,0,1,.22-.13h0a.35.35,0,0,1,.2.07c1.48,1.24,1.87,3.31,1.53,8.21a.33.33,0,0,1-.32.3H29.65l-2.88,0A2.21,2.21,0,0,1,24.62,27.65Z"/><path class="cls-1" d="M29.2,32.61l-1.36,1.24a.35.35,0,0,1-.22.08h0a.3.3,0,0,1-.23-.11L26,32.23a.32.32,0,0,1,0-.45l1.37-1.25a.35.35,0,0,1,.22-.08.29.29,0,0,1,.24.11l1.26,1.49a.24.24,0,0,1,.09-.15l1.38-1.28a.31.31,0,0,1,.22-.09.38.38,0,0,1,.24.11l1.35,1.56a.31.31,0,0,1,0,.44L31,33.92a.29.29,0,0,1-.21.09h0a.28.28,0,0,1-.2-.1l-1.27-1.45A.32.32,0,0,1,29.2,32.61Z"/><path class="cls-1" d="M40.92,32.44C39.15,35,37.46,36.72,35,36.87h-.27A10.38,10.38,0,0,1,31.27,36c-.5-.18-1.07-.38-1.61-.54a.32.32,0,0,1-.23-.37.44.44,0,0,1,.49-.27l.38.08.32.06a12.74,12.74,0,0,0,1.5.27q.3,0,.6,0h0c2.5,0,4.77-1.5,6.73-4.44A3,3,0,0,0,39,27.08l-.19-.24c-.07-.09-.13-.18-.22-.28-.49-.61-1.19-1.49-1.81-2.2a1.18,1.18,0,0,1,.11-1.67,1.2,1.2,0,0,1,1.67.11c.85,1,1.8,2.17,2.16,2.65l.19.22A5.4,5.4,0,0,1,42,29.15,4.92,4.92,0,0,1,40.92,32.44Z"/></g></svg>