<svg xmlns="http://www.w3.org/2000/svg" viewBox="0 0 50 50"><defs><style>.cls-1{fill:#2b2f32;}</style></defs><title>ISK</title><g id="Слой_64" data-name="Слой 64"><path class="cls-1" d="M25.58,33l0,0a1.41,1.41,0,0,1-1.87-.27l-3.55-4.85a8.5,8.5,0,0,1-2,.46v3.54a1.37,1.37,0,0,1-2.73,0V16.53a1.37,1.37,0,1,1,2.73,0v9.13a6,6,0,0,0,1.7-.56L20,25c1.82-1,2.62-3.14,3.1-4.86a1.28,1.28,0,0,1,.62-.81,1.35,1.35,0,0,1,1.06-.13,1.38,1.38,0,0,1,.83.66,1.35,1.35,0,0,1,.11,1,11.55,11.55,0,0,1-3.21,5.68l3.36,4.57A1.41,1.41,0,0,1,25.58,33Z"/><path class="cls-1" d="M34.6,21.85a3.2,3.2,0,0,0-3.12,3.41v6.68a1.36,1.36,0,1,1-2.72,0V20.49a1.36,1.36,0,0,1,1.35-1.35,1.37,1.37,0,0,1,1.3.93,5.84,5.84,0,0,1,3.19-.93,1.36,1.36,0,1,1,0,2.71Z"/></g></svg>