<svg xmlns="http://www.w3.org/2000/svg" viewBox="0 0 50 50"><defs><style>.cls-1{fill:#2b2f32;}</style></defs><title>JEP</title><g id="Слой_65" data-name="Слой 65"><path class="cls-1" d="M17,28.11a4.07,4.07,0,0,1-7.63,2,1.19,1.19,0,0,1,.44-1.6,1.24,1.24,0,0,1,.94-.1,1.15,1.15,0,0,1,.68.58,1.73,1.73,0,0,0,3.22-.86V19.44a1.16,1.16,0,0,1,1.17-1.17A1.18,1.18,0,0,1,17,19.44Z"/><path class="cls-1" d="M25.44,23.78a1.17,1.17,0,1,1,0,2.33H21v3.72h6.37A1.19,1.19,0,0,1,28.56,31a1.17,1.17,0,0,1-1.17,1.18H19.84A1.16,1.16,0,0,1,18.67,31V19.44a1.16,1.16,0,0,1,1.17-1.17h7.55a1.17,1.17,0,1,1,0,2.33H21v3.18Z"/><path class="cls-1" d="M35.27,18.27H31.42a1.17,1.17,0,0,0-1.18,1.17V31a1.18,1.18,0,1,0,2.35,0V28.35h2.68a5,5,0,0,0,0-10.08Zm0,7.74H32.59V20.6h2.68a2.71,2.71,0,0,1,0,5.41Z"/></g></svg>