<svg xmlns="http://www.w3.org/2000/svg" viewBox="0 0 50 50"><defs><style>.cls-1{fill:#2b2f32;}</style></defs><title>JOD</title><g id="Слой_67" data-name="Слой 67"><path class="cls-1" d="M16.35,36.56a1.17,1.17,0,0,1-1.17,1.17h0A1.18,1.18,0,0,1,14,36.55l.05-23.38A1.18,1.18,0,0,1,15.23,12h0a1.17,1.17,0,0,1,1.16,1.17Z"/><path class="cls-1" d="M23.62,36.81a1.89,1.89,0,1,1,1.73-1.88A1.81,1.81,0,0,1,23.62,36.81Z"/><path class="cls-1" d="M39.08,32.78c-.48,1.26-1.68,2.95-4.64,3.84a7.84,7.84,0,0,1-2.31.34,8.91,8.91,0,0,1-3.28-.64,1.17,1.17,0,0,1,.88-2.17,6.08,6.08,0,0,0,4,.24,4.45,4.45,0,0,0,3.14-2.45,4.61,4.61,0,0,0-.27-3.28,7.86,7.86,0,0,0-3.33-4,1.17,1.17,0,0,1,1.23-2,10.26,10.26,0,0,1,4.3,5.16A6.8,6.8,0,0,1,39.08,32.78Z"/></g></svg>