<svg xmlns="http://www.w3.org/2000/svg" viewBox="0 0 50 50"><defs><style>.cls-1{fill:#2b2f32;}</style></defs><title>KGS</title><g id="Слой_69" data-name="Слой 69"><path class="cls-1" d="M25.77,11a11.38,11.38,0,0,1,8.54,3.85,1.72,1.72,0,0,1,.42,1.27,1.75,1.75,0,0,1-1.8,1.58,1.68,1.68,0,0,1-1.19-.6,7.94,7.94,0,1,0,0,10.45,1.73,1.73,0,0,1,2.4-.17,1.71,1.71,0,0,1,.59,1.18,1.64,1.64,0,0,1-.43,1.25A11.34,11.34,0,1,1,25.77,11Z"/><path class="cls-1" d="M34,39.25H16a1.25,1.25,0,0,1,0-2.5H34a1.25,1.25,0,0,1,0,2.5Z"/></g></svg>