<svg xmlns="http://www.w3.org/2000/svg" viewBox="0 0 50 50"><defs><style>.cls-1{fill:#2b2f32;}</style></defs><title>KHR</title><g id="Слой_70" data-name="Слой 70"><path class="cls-1" d="M26.39,18.11a1.26,1.26,0,0,1,.8,1.16l0,5.75a8.86,8.86,0,0,0,5.24-2.89A1.26,1.26,0,0,1,34.22,22a1.25,1.25,0,0,1,.13,1.76,11.33,11.33,0,0,1-7.14,3.78l0,11.46a1.25,1.25,0,0,1-.42.94,1.27,1.27,0,0,1-.83.31h-.16a9.67,9.67,0,0,1-3.22-1,6.8,6.8,0,0,1-3.57-3.46c-.75-1.94-.47-4.67,1.27-5.7a3.57,3.57,0,0,1,2.55-.32,1.25,1.25,0,0,1-.58,2.43,1.11,1.11,0,0,0-.69.05c-.44.25-.62,1.58-.22,2.64A4.46,4.46,0,0,0,23.78,37a6.41,6.41,0,0,0,1,.41l0-9.9a11.56,11.56,0,0,1-7.2-3.91A1.25,1.25,0,1,1,19.43,22a9,9,0,0,0,5.28,3l0-4.89L19.76,18.2a1.25,1.25,0,0,1-.44-2l5.91-6a1.25,1.25,0,0,1,1-.38,1.29,1.29,0,0,1,.93.54c.51.75,1.05,1.47,1.61,2.16,1.2,1.46,1.57,1.63,1.63,1.64a2.23,2.23,0,0,0,1.46-.17,2.16,2.16,0,0,0,.72-.56A1.25,1.25,0,1,1,34.48,15,4.83,4.83,0,0,1,33,16.17a4.64,4.64,0,0,1-3.27.32c-.7-.2-1.39-.67-2.85-2.46-.29-.35-.58-.72-.86-1.09l-3.55,3.62Z"/></g></svg>