<svg xmlns="http://www.w3.org/2000/svg" viewBox="0 0 50 50"><defs><style>.cls-1{fill:#2b2f32;}</style></defs><title>KMF</title><g id="Слой_71" data-name="Слой 71"><path class="cls-1" d="M25.29,31.32a9.06,9.06,0,1,1,0-12,1.38,1.38,0,0,1,.34,1,1.39,1.39,0,0,1-1.44,1.26,1.32,1.32,0,0,1-.95-.48,6.35,6.35,0,1,0,0,8.36,1.39,1.39,0,0,1,1.92-.14,1.47,1.47,0,0,1,.47.95A1.28,1.28,0,0,1,25.29,31.32Z"/><path class="cls-1" d="M39.71,19H31v4.64h6.1a1.36,1.36,0,1,1,0,2.71H31v6.72a1.37,1.37,0,1,1-2.74,0V17.64a1.36,1.36,0,0,1,1.37-1.37H39.71a1.36,1.36,0,1,1,0,2.71Z"/></g></svg>