<svg xmlns="http://www.w3.org/2000/svg" viewBox="0 0 50 50"><defs><style>.cls-1{fill:#2b2f32;}</style></defs><title>KPW</title><g id="Слой_72" data-name="Слой 72"><path class="cls-1" d="M42,26.42H35.18l.76-2.56H42a1,1,0,1,0,0-2H36.55l1.08-3.6a1.42,1.42,0,0,0-.1-1.07,1.35,1.35,0,0,0-.85-.7,1.45,1.45,0,0,0-1.08.1,1.32,1.32,0,0,0-.69.84l-1.34,4.43H27.4L27,20.79a1.45,1.45,0,0,0-2.67,0l-.38,1h-6.2l-1.34-4.43a1.39,1.39,0,0,0-1.75-.94,1.38,1.38,0,0,0-.85.68,1.41,1.41,0,0,0-.12,1.1l1.08,3.59H10a1,1,0,1,0,0,2h5.37l.77,2.56H10a1,1,0,1,0,0,2h6.75L19,35.86a1.4,1.4,0,0,0,1.31,1A1.44,1.44,0,0,0,21.69,36l2.83-7.52h2.3L29.63,36a1.41,1.41,0,0,0,1.33.93h0a1.44,1.44,0,0,0,1.35-1l2.23-7.43H42a1,1,0,1,0,0-2ZM20.52,31l-.78-2.57h1.74Zm1.71-4.58h-3.1l-.77-2.56h4.83Zm3,0,.4-1.06.39,1.06ZM30.82,31l-1-2.57H31.6Zm1.38-4.58H29.11l-1-2.56H33Z"/></g></svg>