<svg xmlns="http://www.w3.org/2000/svg" viewBox="0 0 50 50"><defs><style>.cls-1{fill:#2b2f32;}</style></defs><title>KWD</title><g id="Слой_73" data-name="Слой 73"><path class="cls-1" d="M13.86,25.15a5.4,5.4,0,0,0,1.65,0,1.84,1.84,0,0,0,.7-.17l0,0a2.67,2.67,0,0,1-.8-.23,2.52,2.52,0,0,1-1.33-1.21,2.41,2.41,0,0,1,.06-2.07,3,3,0,0,1,2-1.37,6.74,6.74,0,0,1,1.73-.29A1.18,1.18,0,0,1,18,22.18a4.24,4.24,0,0,0-1.12.19,4.59,4.59,0,0,0-.6.21l.11.05a.67.67,0,0,0,.27.06,2.15,2.15,0,0,1,1.11.44,2.27,2.27,0,0,1,.82,1.23,2.52,2.52,0,0,1-.69,2.29,3.2,3.2,0,0,1-2.07.86,7.17,7.17,0,0,1-1,.07,7.65,7.65,0,0,1-1.34-.11,1.18,1.18,0,0,1,.4-2.32Z"/><path class="cls-1" d="M24.09,25.38c-.08,3.78-.2,4.89-.93,6.06a7.2,7.2,0,0,1-2.75,2.46,10.1,10.1,0,0,1-5,1.14c-.39,0-.82,0-1.27,0-1.79,0-3.9-.24-5.2-1.74a4.81,4.81,0,0,1-1.06-2.21,4.26,4.26,0,0,1,.16-2,1.18,1.18,0,0,1,2.24.73,1.77,1.77,0,0,0-.08.88,2.47,2.47,0,0,0,.52,1c.89,1,3.12,1,4.61.9a7.81,7.81,0,0,0,3.93-.84,4.93,4.93,0,0,0,1.92-1.65c.35-.57.49-1.13.57-4.86.05-2.22,0-3.73,0-3.73,0-1.59,0-3.63,0-6a1.19,1.19,0,0,1,1.17-1.19,1.21,1.21,0,0,1,1.18,1.17c0,2.39,0,4.43,0,6C24.13,21.6,24.14,23.12,24.09,25.38Z"/><path class="cls-1" d="M29.5,34.38a1.47,1.47,0,1,1,1.41-1.46A1.43,1.43,0,0,1,29.5,34.38Z"/><path class="cls-1" d="M36.33,34.7a8,8,0,0,1-2.73-.48A1.17,1.17,0,1,1,34.39,32c2.27.81,4.31.12,5-1a3.58,3.58,0,0,0,.06-2.78,6.59,6.59,0,0,0-1-1.62l-.08-.11a13.28,13.28,0,0,0-1.46-1.63,1.18,1.18,0,0,1,1.62-1.71,15.81,15.81,0,0,1,1.72,1.93l.08.11a8.66,8.66,0,0,1,1.34,2.2,5.93,5.93,0,0,1-.21,4.77A5.68,5.68,0,0,1,36.33,34.7Z"/></g></svg>