<svg xmlns="http://www.w3.org/2000/svg" viewBox="0 0 50 50"><defs><style>.cls-1{fill:#2b2f32;}</style></defs><title>LTL</title><g id="Слой_81" data-name="Слой 81"><path class="cls-1" d="M24.85,34H16.42a1.37,1.37,0,0,1-1.37-1.37V17.25a1.38,1.38,0,0,1,1.37-1.37,1.36,1.36,0,0,1,1.37,1.37v14h7.06a1.37,1.37,0,0,1,1.36,1.37A1.35,1.35,0,0,1,24.85,34Z"/><path class="cls-1" d="M37,32.72a3.72,3.72,0,0,1-6.55-2.39V22.58h-.09a1.36,1.36,0,0,1,0-2.71h.09V18a1.38,1.38,0,0,1,1.37-1.37A1.35,1.35,0,0,1,33.22,18v1.85h2.11a1.36,1.36,0,1,1,0,2.71H33.22v7.75a1,1,0,0,0,1,1,.89.89,0,0,0,.7-.32,1.42,1.42,0,0,1,1-.49,1.38,1.38,0,0,1,.93.33,1.33,1.33,0,0,1,.48.93A1.4,1.4,0,0,1,37,32.72Z"/></g></svg>