<svg xmlns="http://www.w3.org/2000/svg" viewBox="0 0 50 50"><defs><style>.cls-1{fill:#2b2f32;}</style></defs><title>LYD</title><g id="Слой_83" data-name="Слой 83"><path class="cls-1" d="M22.85,35H14.42a1.37,1.37,0,0,1-1.37-1.37V18.25a1.38,1.38,0,0,1,1.37-1.37,1.36,1.36,0,0,1,1.37,1.37v14h7.06a1.37,1.37,0,0,1,1.36,1.37A1.35,1.35,0,0,1,22.85,35Z"/><path class="cls-1" d="M32.3,16.88H28.41A1.37,1.37,0,0,0,27,18.25V33.66A1.36,1.36,0,0,0,28.41,35H32.3a9.08,9.08,0,0,0,0-18.15Zm0,15.41H29.78V19.6H32.3a6.35,6.35,0,1,1,0,12.69Z"/></g></svg>