<svg xmlns="http://www.w3.org/2000/svg" viewBox="0 0 50 50"><defs><style>.cls-1{fill:#2b2f32;}</style></defs><title>MAD</title><g id="Слой_84" data-name="Слой 84"><path class="cls-1" d="M18.83,21.8a4.43,4.43,0,0,0-3.74-1.39,4.59,4.59,0,0,0-3.21,1.86,4.42,4.42,0,0,0-.77,2.93,3.64,3.64,0,0,0-1,.41,4.08,4.08,0,0,0-1.56,1.87c-.22.46-.44,1.1-.49,3.45,0,.43,0,.69,0,1.26v3h2.4v-3c0-.54,0-.79,0-1.2a9.82,9.82,0,0,1,.26-2.48,1.78,1.78,0,0,1,.66-.85,1.57,1.57,0,0,1,.77-.21,5.74,5.74,0,0,0,3.41,1.22,4.27,4.27,0,0,0,2.11-.53,4.06,4.06,0,0,0,1.14-6.33Zm-1.38,3A1.85,1.85,0,0,1,16.53,26a2.83,2.83,0,0,1-2.93-.49,2.22,2.22,0,0,1,.25-1.88,2.18,2.18,0,0,1,1.49-.86,2,2,0,0,1,1.69.59A1.81,1.81,0,0,1,17.45,24.84Z"/><ellipse class="cls-1" cx="24.54" cy="28.17" rx="1.44" ry="1.48"/><path class="cls-1" d="M36.74,27.35c-.83,1.7-3,2.69-5.46,2.69a10.39,10.39,0,0,1-2.43-.29l.56-2.34c2.56.62,4.67-.09,5.16-1.1s-.28-2.57-.68-3.43a8.26,8.26,0,0,0-2-2.68l1.61-1.79a10.71,10.71,0,0,1,2.57,3.46C36.63,23.1,37.69,25.38,36.74,27.35Z"/><path class="cls-1" d="M41.56,29.72A1.48,1.48,0,1,1,43,28.24,1.46,1.46,0,0,1,41.56,29.72Z"/></g></svg>