<svg xmlns="http://www.w3.org/2000/svg" viewBox="0 0 50 50"><defs><style>.cls-1{fill:#2b2f32;}</style></defs><title>MDL</title><g id="Слой_85" data-name="Слой 85"><path class="cls-1" d="M21,31.24a1.1,1.1,0,1,1-2.2,0V24l-2.86,4.25a1.14,1.14,0,0,1-1.83,0L11.25,24v7.21a1.1,1.1,0,1,1-2.2,0V20.43a1.1,1.1,0,0,1,.79-1.06,1.08,1.08,0,0,1,1.23.48L15,25.69l4-5.88a1.1,1.1,0,0,1,2,.62Z"/><path class="cls-1" d="M26.68,19.33H24a1.09,1.09,0,0,0-1.1,1.1V31.24a1.09,1.09,0,0,0,1.1,1.1h2.73a6.51,6.51,0,1,0,0-13Zm0,10.81H25.05V21.51h1.63a4.32,4.32,0,1,1,0,8.63Z"/><path class="cls-1" d="M41.9,32.34H36a1.1,1.1,0,0,1-1.1-1.1V20.43a1.1,1.1,0,0,1,1.1-1.1,1.08,1.08,0,0,1,1.1,1.1v9.71H41.9a1.1,1.1,0,0,1,1.1,1.1A1.08,1.08,0,0,1,41.9,32.34Z"/></g></svg>