<svg xmlns="http://www.w3.org/2000/svg" viewBox="0 0 50 50"><defs><style>.cls-1{fill:#2b2f32;}</style></defs><title>MGA</title><g id="Слой_86" data-name="Слой 86"><path class="cls-1" d="M28.18,32.11l-6.74-15.4a1.35,1.35,0,0,0-1.25-.83,1.4,1.4,0,0,0-1.27.82L12.18,32.11a1.32,1.32,0,0,0,0,1,1.36,1.36,0,0,0,1.76.77,1.31,1.31,0,0,0,.76-.72l1.62-3.72h7.74l1.63,3.71a1.34,1.34,0,0,0,1.25.83,1.62,1.62,0,0,0,.54-.11h0a1.36,1.36,0,0,0,.69-1.8ZM17.51,26.76l2.68-6.11,2.66,6.11Z"/><path class="cls-1" d="M37,22.58A3.2,3.2,0,0,0,33.85,26v6.67a1.36,1.36,0,1,1-2.72,0V21.21a1.35,1.35,0,0,1,1.35-1.34,1.38,1.38,0,0,1,1.3.92A5.83,5.83,0,0,1,37,19.87a1.36,1.36,0,1,1,0,2.71Z"/></g></svg>