<svg xmlns="http://www.w3.org/2000/svg" viewBox="0 0 50 50"><defs><style>.cls-1{fill:#2b2f32;}</style></defs><title>MKD</title><g id="Слой_87" data-name="Слой 87"><path class="cls-1" d="M17.12,17.93A1.12,1.12,0,0,0,16,19.06V21.8a5.1,5.1,0,0,0-2.91-.88,5.18,5.18,0,0,0-5.16,5.41,5.17,5.17,0,0,0,5.16,5.41,5,5,0,0,0,2.93-.9,1.12,1.12,0,0,0,2.21-.22V19.06A1.12,1.12,0,0,0,17.12,17.93Zm-4,11.56a3,3,0,0,1-2.9-3.16,3,3,0,0,1,2.9-3.17A3,3,0,0,1,16,26.33,3,3,0,0,1,13.08,29.49Z"/><path class="cls-1" d="M30.27,26.33c0-3.13-2.1-5.41-5-5.41a4.85,4.85,0,0,0-3.69,1.63,5.67,5.67,0,0,0-1.36,3.78,5.16,5.16,0,0,0,5.14,5.41,5,5,0,0,0,4.34-2.42,1.17,1.17,0,0,0,.13-.86,1.13,1.13,0,0,0-.52-.69,1.15,1.15,0,0,0-1.55.37,2.7,2.7,0,0,1-2.4,1.35,2.86,2.86,0,0,1-2.73-2h6.49A1.14,1.14,0,0,0,30.27,26.33Zm-7.64-1.12a2.74,2.74,0,0,1,2.66-2.05,2.6,2.6,0,0,1,2.57,2.05Z"/><path class="cls-1" d="M41.23,30.62a1.12,1.12,0,1,1-2.24,0v-5a2.24,2.24,0,0,0-2.15-2.45,2.37,2.37,0,0,0-2.33,2.45v5a1.12,1.12,0,1,1-2.23,0V22a1.11,1.11,0,0,1,1.11-1.11,1.14,1.14,0,0,1,1,.68,4.56,4.56,0,0,1,2.41-.68,4.21,4.21,0,0,1,3.23,1.43,5,5,0,0,1,1.16,3.26Z"/></g></svg>