<svg xmlns="http://www.w3.org/2000/svg" viewBox="0 0 50 50"><defs><style>.cls-1{fill:#2b2f32;}</style></defs><title>MMK</title><g id="Слой_88" data-name="Слой 88"><path class="cls-1" d="M25.53,33.64a1.34,1.34,0,0,1-1,.39,1.37,1.37,0,0,1-1-.39l-7.09-7.11-.72.72v5.41a1.37,1.37,0,1,1-2.74,0V17.25a1.37,1.37,0,0,1,2.74,0v6.11l7.09-7.08a1.41,1.41,0,0,1,1.93,0,1.38,1.38,0,0,1,.41,1,1.34,1.34,0,0,1-.39,1l-6.39,6.4,7.09,7.11a1.32,1.32,0,0,1,.41.93A1.41,1.41,0,0,1,25.53,33.64Z"/><path class="cls-1" d="M36.88,32.68A5,5,0,0,1,33.33,34a4.7,4.7,0,0,1-4.43-2.56,1.4,1.4,0,0,1,.66-1.82,1.38,1.38,0,0,1,1.83.68,2,2,0,0,0,1.94,1c1.37,0,2.09-.81,2.09-1.6S35.14,28.52,33,28c-1.71-.44-4.25-1.09-4.25-4A4,4,0,0,1,30,21.15a4.68,4.68,0,0,1,3.35-1.28,4.4,4.4,0,0,1,4.17,2.38,1.36,1.36,0,0,1,.06,1.05,1.37,1.37,0,0,1-2.53.12,1.78,1.78,0,0,0-1.7-.84c-1.49,0-1.82,1-1.82,1.39,0,.63.17.87,2.18,1.36,1.7.44,4.47,1.15,4.47,4.36A4.32,4.32,0,0,1,36.88,32.68Z"/></g></svg>