<svg xmlns="http://www.w3.org/2000/svg" viewBox="0 0 50 50"><defs><style>.cls-1{fill:#2b2f32;}</style></defs><title>MNT</title><g id="Слой_89" data-name="Слой 89"><path class="cls-1" d="M33,18.64H27.43V22.8l3.05-1.65a1.25,1.25,0,0,1,1.19,2.2l-4.24,2.29V27.8L30.76,26a1.25,1.25,0,0,1,1.7.51A1.24,1.24,0,0,1,32,28.2l-4.52,2.44v5.73a1.55,1.55,0,1,1-3.09,0V32.31l-3.6,1.95a1.3,1.3,0,0,1-.6.15,1.25,1.25,0,0,1-.59-2.35l4.79-2.59V27.31l-3.89,2.1a1.23,1.23,0,0,1-.59.15,1.26,1.26,0,0,1-1.1-.66,1.25,1.25,0,0,1,.51-1.69l5.07-2.74V18.64H18.73a1.55,1.55,0,1,1,0-3.09H33a1.55,1.55,0,1,1,0,3.09Z"/></g></svg>