<svg xmlns="http://www.w3.org/2000/svg" viewBox="0 0 50 50"><defs><style>.cls-1,.cls-2{fill:#2b2f32;}.cls-2{stroke:#2b2f32;stroke-miterlimit:10;stroke-width:0.25px;}</style></defs><title>MOP</title><g id="Слой_90" data-name="Слой 90"><path class="cls-1" d="M16.66,29.09a1,1,0,0,1-1,1,1,1,0,0,1-1-1V24.6L13,27.08a1,1,0,0,1-1.63,0L9.73,24.61v4.48a1,1,0,0,1-1,1,1,1,0,0,1-1-1v-7.7a1,1,0,0,1,.71-.95,1,1,0,0,1,1.1.43l2.64,3.91,2.64-3.94a1,1,0,0,1,1.11-.4,1,1,0,0,1,.7.95Z"/><path class="cls-1" d="M22.31,20.4a4.84,4.84,0,1,0,4.84,4.84A4.84,4.84,0,0,0,22.31,20.4Zm0,7.7a2.87,2.87,0,1,1,2.87-2.86A2.86,2.86,0,0,1,22.31,28.1Z"/><path class="cls-1" d="M31.52,20.4H29a1,1,0,0,0-1,1v7.7a1,1,0,0,0,2,0V27.52h1.59a3.56,3.56,0,0,0,0-7.12Zm0,5.16H29.93v-3.2h1.59a1.6,1.6,0,0,1,0,3.2Z"/><path class="cls-2" d="M42.71,25.51h0a2.78,2.78,0,0,0-1.43-1.12,8.08,8.08,0,0,0-1.16-.34V21.46a2.1,2.1,0,0,1,.93.37,1.19,1.19,0,0,1,.33.34,1,1,0,0,1,.11.21c0,.07,0,.15.07.23a.71.71,0,0,0,.61.44.68.68,0,0,0,.64-.4.66.66,0,0,0,.06-.39,2.1,2.1,0,0,0-.06-.24,1.86,1.86,0,0,0-.1-.25,2.66,2.66,0,0,0-.54-.78,3.39,3.39,0,0,0-1.79-.87l-.26,0v-.75a.69.69,0,0,0-1.37,0v.75a3.47,3.47,0,0,0-1.84.82,2.5,2.5,0,0,0-.56.77,2.25,2.25,0,0,0-.2,1,2.18,2.18,0,0,0,.21,1,2,2,0,0,0,.6.73,4.84,4.84,0,0,0,1.79.77v2.71a2.07,2.07,0,0,1-.87-.48,1.86,1.86,0,0,1-.3-.38,1.6,1.6,0,0,1-.1-.23c0-.07,0-.15-.08-.23a.68.68,0,0,0-.58-.47.69.69,0,0,0-.67.37.62.62,0,0,0-.07.38,1.55,1.55,0,0,0,.05.23,1.84,1.84,0,0,0,.09.25,2.83,2.83,0,0,0,.51.85,3.4,3.4,0,0,0,1.67,1l.35.08V30a.68.68,0,0,0,.4.62.68.68,0,0,0,1-.62v-.72A3.61,3.61,0,0,0,42,28.62a2.47,2.47,0,0,0,.67-3.11Zm-4-1.79a3.54,3.54,0,0,1-.43-.16,1.91,1.91,0,0,1-.45-.23.74.74,0,0,1-.3-.33,1,1,0,0,1,0-.48.84.84,0,0,1,.16-.43,1.68,1.68,0,0,1,1.07-.62Zm2.76,3.48a1.77,1.77,0,0,1-1.39.74V25.45a4.89,4.89,0,0,1,.93.33,1.47,1.47,0,0,1,.37.27.81.81,0,0,1,.19.38A1.14,1.14,0,0,1,41.51,27.2Z"/></g></svg>