<svg xmlns="http://www.w3.org/2000/svg" viewBox="0 0 50 50"><defs><style>.cls-1{fill:#2b2f32;}</style></defs><title>MRO</title><g id="Слой_91" data-name="Слой 91"><path class="cls-1" d="M23.07,27.35a6.56,6.56,0,1,1-13.11,0V19.16a1.27,1.27,0,1,1,2.53,0v8.19a4,4,0,1,0,8,0V19.16a1.28,1.28,0,0,1,2.55,0Z"/><path class="cls-1" d="M40.08,32.64a1.28,1.28,0,0,1-2.55,0V23.31l-3.75,5.57a1.32,1.32,0,0,1-2.11,0l-3.73-5.56v9.32a1.27,1.27,0,0,1-2.54,0V19.16a1.29,1.29,0,0,1,.91-1.23,1.25,1.25,0,0,1,1.42.55l5,7.42,5-7.45a1.26,1.26,0,0,1,1.43-.51,1.29,1.29,0,0,1,.91,1.22Z"/></g></svg>