<svg xmlns="http://www.w3.org/2000/svg" viewBox="0 0 50 50"><defs><style>.cls-1{fill:#2b2f32;}</style></defs><title>MVR</title><g id="Слой_93" data-name="Слой 93"><path class="cls-1" d="M22.22,29.35a6.52,6.52,0,0,0-2.66-12.47H14.42a1.36,1.36,0,0,0-1.37,1.37V33.66a1.37,1.37,0,1,0,2.74,0V29.92H19l4.5,4.66a1.34,1.34,0,0,0,1.94.07,1.27,1.27,0,0,0,.43-1,1.32,1.32,0,0,0-.37-1Zm-6.43-2.14V19.6h3.77a3.81,3.81,0,0,1,0,7.61Z"/><path class="cls-1" d="M35.57,21.59a1.37,1.37,0,0,1,0,2.73H33.14v9.34A1.37,1.37,0,0,1,31.77,35a1.35,1.35,0,0,1-1.36-1.37V24.32h-.15A1.37,1.37,0,0,1,28.89,23a1.35,1.35,0,0,1,1.37-1.37h.15v-.51a4.17,4.17,0,0,1,4.17-4.17,3.89,3.89,0,0,1,1.5.28,1.36,1.36,0,0,1,0,2.52,1.26,1.26,0,0,1-1,0,1.92,1.92,0,0,0-.48-.07,1.45,1.45,0,0,0-1.44,1.44v.51Z"/></g></svg>