<svg xmlns="http://www.w3.org/2000/svg" viewBox="0 0 50 50"><defs><style>.cls-1,.cls-2{fill:#2b2f32;}.cls-2{stroke:#2b2f32;stroke-miterlimit:10;stroke-width:0.25px;}</style></defs><title>MXN</title><g id="Слой_95" data-name="Слой 95"><path class="cls-1" d="M16.91,30.06a.87.87,0,1,1-1.73,0V24.6L13,27.79a.88.88,0,0,1-1.43,0L9.45,24.6v5.46a.87.87,0,0,1-1.74,0V21.77a.88.88,0,0,1,.63-.84.86.86,0,0,1,1,.38l3,4.45,3-4.48a.88.88,0,0,1,1-.35.89.89,0,0,1,.62.84Z"/><path class="cls-1" d="M25.55,27A3.68,3.68,0,0,0,21.92,23a3.56,3.56,0,0,0-2.69,1.19,4.17,4.17,0,0,0-1,2.76A3.76,3.76,0,0,0,22,30.93a3.67,3.67,0,0,0,3.17-1.77.9.9,0,0,0,.1-.66.83.83,0,0,0-.4-.53.91.91,0,0,0-.31-.12h.14A.87.87,0,0,0,25.55,27Zm-3.63-2.22a1.81,1.81,0,0,1,1.77,1.35H20.1A1.88,1.88,0,0,1,21.92,24.77Zm1.74,3.48a1.89,1.89,0,0,1-1.68.94,2,2,0,0,1-1.87-1.34h4.17A.94.94,0,0,0,23.66,28.25Z"/><path class="cls-1" d="M32.66,30.73a.86.86,0,0,1-1.24-.14l-1.75-2.22L27.9,30.6a.89.89,0,0,1-1.22.13.87.87,0,0,1-.13-1.21l2-2.54-2-2.54a.88.88,0,0,1,.13-1.21.89.89,0,0,1,1.23.14l1.76,2.22,1.76-2.22a.88.88,0,0,1,1.2-.16.89.89,0,0,1,.16,1.23l-2,2.54,2,2.54A.88.88,0,0,1,32.66,30.73Z"/><path class="cls-2" d="M40.71,26.51h0a2.78,2.78,0,0,0-1.43-1.12,8.08,8.08,0,0,0-1.16-.34V22.46a2.1,2.1,0,0,1,.93.37,1.19,1.19,0,0,1,.33.34,1,1,0,0,1,.11.21c0,.07,0,.15.07.23a.71.71,0,0,0,.61.44.68.68,0,0,0,.64-.4.66.66,0,0,0,.06-.39,2.1,2.1,0,0,0-.06-.24,1.86,1.86,0,0,0-.1-.25,2.66,2.66,0,0,0-.54-.78,3.39,3.39,0,0,0-1.79-.87l-.26,0v-.75a.69.69,0,0,0-1.37,0v.75a3.47,3.47,0,0,0-1.84.82,2.5,2.5,0,0,0-.56.77,2.25,2.25,0,0,0-.2,1,2.18,2.18,0,0,0,.21,1,2,2,0,0,0,.6.73,4.84,4.84,0,0,0,1.79.77v2.71a2.07,2.07,0,0,1-.87-.48,1.86,1.86,0,0,1-.3-.38,1.6,1.6,0,0,1-.1-.23c0-.07,0-.15-.08-.23a.68.68,0,0,0-.58-.47.69.69,0,0,0-.67.37.62.62,0,0,0-.07.38,1.55,1.55,0,0,0,.05.23,1.84,1.84,0,0,0,.09.25,2.83,2.83,0,0,0,.51.85,3.4,3.4,0,0,0,1.67,1l.35.08V31a.68.68,0,0,0,.4.62.68.68,0,0,0,1-.62v-.72A3.61,3.61,0,0,0,40,29.62a2.47,2.47,0,0,0,.67-3.11Zm-4-1.79a3.54,3.54,0,0,1-.43-.16,1.91,1.91,0,0,1-.45-.23.74.74,0,0,1-.3-.33,1,1,0,0,1,0-.48.84.84,0,0,1,.16-.43,1.68,1.68,0,0,1,1.07-.62Zm2.76,3.48a1.77,1.77,0,0,1-1.39.74V26.45a4.89,4.89,0,0,1,.93.33,1.47,1.47,0,0,1,.37.27.81.81,0,0,1,.19.38A1.14,1.14,0,0,1,39.51,28.2Z"/></g></svg>