<svg xmlns="http://www.w3.org/2000/svg" viewBox="0 0 50 50"><defs><style>.cls-1{fill:#2b2f32;}</style></defs><title>MYR</title><g id="Слой_96" data-name="Слой 96"><path class="cls-1" d="M19.18,28.89a5.78,5.78,0,0,0-2.45-11H12.24A1.26,1.26,0,0,0,11,19.16V32.64a1.28,1.28,0,0,0,2.55,0v-3.2h2.67l3.91,4.05a1.19,1.19,0,0,0,.94.42,1.21,1.21,0,0,0,.87-.35,1.19,1.19,0,0,0,.4-.86,1.32,1.32,0,0,0-.34-.93Zm-2.45-2H13.51V20.41h3.22a3.26,3.26,0,0,1,0,6.51Z"/><path class="cls-1" d="M39.5,32.64a1.27,1.27,0,0,1-2.54,0V23.31l-3.75,5.57a1.32,1.32,0,0,1-2.11,0l-3.73-5.56v9.32a1.28,1.28,0,0,1-2.55,0V19.16a1.29,1.29,0,0,1,.92-1.23,1.25,1.25,0,0,1,1.42.55l5,7.42,5-7.45a1.26,1.26,0,0,1,1.43-.51,1.28,1.28,0,0,1,.9,1.22Z"/></g></svg>