<svg xmlns="http://www.w3.org/2000/svg" viewBox="0 0 50 50"><defs><style>.cls-1{fill:#2b2f32;}</style></defs><title>MZN</title><g id="Слой_97" data-name="Слой 97"><path class="cls-1" d="M25.64,32.64a1.27,1.27,0,1,1-2.54,0V23.31l-3.75,5.57a1.32,1.32,0,0,1-2.11,0l-3.73-5.56v9.32a1.28,1.28,0,0,1-2.55,0V19.16a1.29,1.29,0,0,1,.92-1.23,1.25,1.25,0,0,1,1.42.55l5,7.42,5-7.45a1.26,1.26,0,0,1,1.43-.51,1.28,1.28,0,0,1,.9,1.22Z"/><path class="cls-1" d="M39.26,20.41H35.51V32.64a1.26,1.26,0,1,1-2.52,0V20.41H29.25a1.26,1.26,0,1,1,0-2.52h10a1.26,1.26,0,1,1,0,2.52Z"/></g></svg>