<svg xmlns="http://www.w3.org/2000/svg" viewBox="0 0 50 50"><defs><style>.cls-1{fill:#2b2f32;}</style></defs><title>NGN</title><g id="Слой_99" data-name="Слой 99"><path class="cls-1" d="M37.5,27.25h-3v-2.5h3a1.25,1.25,0,0,0,0-2.5h-3V16.11a1.54,1.54,0,0,0-1.56-1.56,1.56,1.56,0,0,0-1.56,1.56v6.14H24.56L19,15.16a1.56,1.56,0,0,0-1.75-.54,1.59,1.59,0,0,0-1,1.49v6.14H12.5a1.25,1.25,0,0,0,0,2.5h3.67v2.5H12.5a1.25,1.25,0,0,0,0,2.5h3.67v5.62a1.56,1.56,0,0,0,3.12,0V29.75H26.5l5.18,6.58a1.56,1.56,0,0,0,1.23.6,2,2,0,0,0,.51-.09,1.5,1.5,0,0,0,1-1.47V29.75h3a1.25,1.25,0,0,0,0-2.5ZM19.29,20.6l1.3,1.65h-1.3Zm0,6.65v-2.5h3.27l2,2.5Zm12.06,3.63-.89-1.13h.89Zm0-3.63H28.49l-2-2.5h4.83Z"/></g></svg>