<svg xmlns="http://www.w3.org/2000/svg" viewBox="0 0 50 50"><defs><style>.cls-1,.cls-2{fill:#2b2f32;}.cls-2{stroke:#2b2f32;stroke-miterlimit:10;stroke-width:0.25px;}</style></defs><title>NZD</title><g id="Слой_103" data-name="Слой 103"><path class="cls-1" d="M18.68,30.9A1.1,1.1,0,0,1,17.91,32a1.51,1.51,0,0,1-.36.06,1.11,1.11,0,0,1-.89-.44L9.94,23.06V30.9a1.13,1.13,0,0,1-2.26,0V19.81a1.13,1.13,0,0,1,2-.69l6.71,8.53V19.81a1.13,1.13,0,0,1,1.13-1.13,1.11,1.11,0,0,1,1.13,1.13Z"/><path class="cls-1" d="M30.37,32H21.56a1.17,1.17,0,0,1-1-.61,1.11,1.11,0,0,1,.15-1.23l7.07-9.27H22.15a1.12,1.12,0,1,1,0-2.24H30A1.11,1.11,0,0,1,31,20.46l-7.13,9.31h6.54a1.14,1.14,0,0,1,1.11,1.13A1.12,1.12,0,0,1,30.37,32Z"/><path class="cls-2" d="M42.58,26h0c-.14-.25-.07-.13,0,0a3.89,3.89,0,0,0-2-1.59,11,11,0,0,0-1.67-.5V20.19a3.25,3.25,0,0,1,1.34.53,1.91,1.91,0,0,1,.46.48,1.3,1.3,0,0,1,.16.31c0,.11.06.22.11.33a1,1,0,0,0,1.88-.5,2.19,2.19,0,0,0-.1-.34,3,3,0,0,0-.13-.36,3.84,3.84,0,0,0-.79-1.13,4.83,4.83,0,0,0-2.55-1.24l-.38-.05V17.14a1,1,0,0,0-.57-.89,1,1,0,0,0-1.06.16,1,1,0,0,0-.33.73v1.08a5,5,0,0,0-2.64,1.17,3.62,3.62,0,0,0-.8,1.1,3.32,3.32,0,0,0-.29,1.42,3.21,3.21,0,0,0,.3,1.4,3,3,0,0,0,.86,1,6.93,6.93,0,0,0,2.57,1.11v3.87a2.8,2.8,0,0,1-1.24-.68,2.1,2.1,0,0,1-.43-.55,1.87,1.87,0,0,1-.15-.32c-.05-.11-.07-.23-.11-.34a1,1,0,0,0-.84-.66,1,1,0,0,0-1.06,1.07,1.32,1.32,0,0,0,.08.33,2.06,2.06,0,0,0,.12.35A4.11,4.11,0,0,0,34,29.75a4.74,4.74,0,0,0,2.39,1.47,4.05,4.05,0,0,0,.5.12v1.14a1,1,0,0,0,.57.89,1,1,0,0,0,1.06-.16,1,1,0,0,0,.33-.73v-1a5.18,5.18,0,0,0,2.76-1A3.51,3.51,0,0,0,42.58,26Zm-5.67-2.57a5.51,5.51,0,0,1-.62-.22,3,3,0,0,1-.64-.33,1.08,1.08,0,0,1-.43-.47,1.49,1.49,0,0,1-.08-.69,1.3,1.3,0,0,1,.23-.63,2.44,2.44,0,0,1,1.54-.88Zm4,5a2.5,2.5,0,0,1-2,1V25.92a6.27,6.27,0,0,1,1.34.47,1.69,1.69,0,0,1,.53.39,1.08,1.08,0,0,1,.27.53A1.64,1.64,0,0,1,40.86,28.42Z"/></g></svg>