<svg xmlns="http://www.w3.org/2000/svg" viewBox="0 0 50 50"><defs><style>.cls-1{fill:#2b2f32;}</style></defs><title>OMR</title><g id="Слой_104" data-name="Слой 104"><path class="cls-1" d="M22.08,33.2a14.07,14.07,0,0,1-6,1.38h-.28a6.87,6.87,0,0,1-4.34-1.11,6.26,6.26,0,0,1-2.38-3.6,5.54,5.54,0,0,1,.33-4,5.35,5.35,0,0,1,2.22-2.16l.2-.12a3.35,3.35,0,0,1-1.39-1.26,3.79,3.79,0,0,1-.09-3.41,5.08,5.08,0,0,1,3.49-2.44,8.41,8.41,0,0,1,3-.36A1.18,1.18,0,0,1,18,17.39a1.16,1.16,0,0,1-1.24,1.11,6.11,6.11,0,0,0-2.17.26c-1,.31-1.76.57-2,1.18a1.53,1.53,0,0,0,0,1.2,1.7,1.7,0,0,0,1.05.59,5.73,5.73,0,0,0,3.24-.34c.72-.26,1.47-.5,2.24-.74a1.18,1.18,0,0,1,.77,2.23,19.54,19.54,0,0,1-1.91.65l-.38.11a29.67,29.67,0,0,0-4.66,2.12A3.27,3.27,0,0,0,11.54,27a3.36,3.36,0,0,0-.13,2.33,4.09,4.09,0,0,0,1.47,2.25,5.12,5.12,0,0,0,3.23.66,11.73,11.73,0,0,0,5-1.16,1.18,1.18,0,0,1,1,2.14Z"/><path class="cls-1" d="M24.65,28.78A1.42,1.42,0,1,1,26,27.36,1.4,1.4,0,0,1,24.65,28.78Z"/><path class="cls-1" d="M36.9,29.15c-1.26,3.09-5.34,5.2-10,5.2h-.3a1.18,1.18,0,0,1,0-2.36h0c4.23.07,7.25-1.82,8-3.73a8.64,8.64,0,0,0,.46-3.79,7.75,7.75,0,0,0-.43-1.77A1.18,1.18,0,1,1,37,21.87a10.27,10.27,0,0,1,.57,2.31A11.13,11.13,0,0,1,36.9,29.15Z"/><path class="cls-1" d="M41.62,28.78A1.42,1.42,0,1,1,43,27.36,1.4,1.4,0,0,1,41.62,28.78Z"/></g></svg>