<svg xmlns="http://www.w3.org/2000/svg" viewBox="0 0 50 50"><defs><style>.cls-1{fill:#2b2f32;}</style></defs><title>PAB</title><g id="Слой_105" data-name="Слой 105"><path class="cls-1" d="M22.38,24.73a4.47,4.47,0,0,0-3.45-7.33H13.3A1.26,1.26,0,0,0,12,18.67V32.15a1.26,1.26,0,0,0,1.27,1.28h6.28a4.8,4.8,0,0,0,2.8-8.7Zm-7.81-4.81h4.36a2,2,0,0,1,0,3.91H14.57Zm5,11h-5V26.35h5a2.27,2.27,0,0,1,0,4.53Z"/><path class="cls-1" d="M33.94,19.5,29.17,32.57a1.22,1.22,0,0,1-.65.72,1.23,1.23,0,0,1-.53.11,1.31,1.31,0,0,1-.44-.07,1.28,1.28,0,0,1-.73-.66,1.3,1.3,0,0,1,0-1l4.76-13.06a1.21,1.21,0,0,1,.64-.71,1.27,1.27,0,0,1,1.75,1.57Z"/><path class="cls-1" d="M37.33,33.74a1.45,1.45,0,1,1,1.5-1.46A1.47,1.47,0,0,1,37.33,33.74Z"/></g></svg>