<svg xmlns="http://www.w3.org/2000/svg" viewBox="0 0 50 50"><defs><style>.cls-1{fill:#2b2f32;}</style></defs><title>PEN</title><g id="Слой_106" data-name="Слой 106"><path class="cls-1" d="M19.23,33.63A4.84,4.84,0,0,1,14,28.85a1.25,1.25,0,0,1,1.27-1.27,1.27,1.27,0,0,1,1.27,1.27c0,1.11.82,2.23,2.66,2.23S21.9,30,21.9,28.85c0-1.34-.81-1.7-3-2.32-2-.59-4.6-1.36-4.6-4.44a4.54,4.54,0,0,1,4.89-4.49,4.55,4.55,0,0,1,4.9,4.49,1.27,1.27,0,1,1-2.54,0c0-1-.73-2-2.36-2a2.06,2.06,0,0,0-2.34,2c0,1,.59,1.36,2.76,2,1.93.57,4.8,1.41,4.8,4.76A4.85,4.85,0,0,1,19.23,33.63Z"/><path class="cls-1" d="M34,19.7,29.24,32.77a1.24,1.24,0,0,1-1.18.84,1.36,1.36,0,0,1-.44-.08,1.26,1.26,0,0,1-.77-1.63l4.77-13.06a1.23,1.23,0,0,1,.66-.72,1.3,1.3,0,0,1,1,0,1.23,1.23,0,0,1,.72.66A1.27,1.27,0,0,1,34,19.7Z"/><path class="cls-1" d="M37.39,33.94a1.45,1.45,0,1,1,1.51-1.46A1.46,1.46,0,0,1,37.39,33.94Z"/></g></svg>