<svg xmlns="http://www.w3.org/2000/svg" viewBox="0 0 50 50"><defs><style>.cls-1{fill:#2b2f32;}</style></defs><title>PHP</title><g id="Слой_108" data-name="Слой 108"><path class="cls-1" d="M37,23.25H35.35c0-.24,0-.49,0-.73s0-.52,0-.77H37a1.25,1.25,0,0,0,0-2.5H34.69a8,8,0,0,0-7.28-4.74H21a1.54,1.54,0,0,0-1.56,1.56v3.18H16.5a1.25,1.25,0,0,0,0,2.5h2.93v1.5H16.5a1.25,1.25,0,0,0,0,2.5h2.93v9.58a1.56,1.56,0,0,0,3.12,0V30.5h4.86a8,8,0,0,0,7.29-4.75H37a1.25,1.25,0,0,0,0-2.5ZM22.55,17.6h4.86A4.85,4.85,0,0,1,31,19.25H22.55Zm4.86,9.81H22.55V25.75H31A4.9,4.9,0,0,1,27.41,27.41Zm4.81-4.16H22.55v-1.5h9.67a4.78,4.78,0,0,1,.08.77A4.41,4.41,0,0,1,32.22,23.25Z"/></g></svg>