<svg xmlns="http://www.w3.org/2000/svg" viewBox="0 0 50 50"><defs><style>.cls-1{fill:#2b2f32;}</style></defs><title>PKR</title><g id="Слой_109" data-name="Слой 109"><path class="cls-1" d="M26.5,20.25h-.81a6.51,6.51,0,0,0-6.13-4.37H14.42a1.36,1.36,0,0,0-1.37,1.37v3H11.5a1.25,1.25,0,0,0,0,2.5h1.55v9.91a1.37,1.37,0,1,0,2.74,0V28.92H19l4.5,4.66a1.34,1.34,0,0,0,1.94.07,1.27,1.27,0,0,0,.43-1,1.32,1.32,0,0,0-.37-1l-3.25-3.38A6.53,6.53,0,0,0,26,22.75h.46a1.25,1.25,0,0,0,0-2.5ZM15.79,18.6h3.77a3.78,3.78,0,0,1,3.12,1.65H15.79Zm3.77,7.61H15.79V22.75h7.53A3.8,3.8,0,0,1,19.56,26.21Z"/><path class="cls-1" d="M37,32.68A5,5,0,0,1,33.45,34,4.7,4.7,0,0,1,29,31.47a1.4,1.4,0,0,1,.66-1.82,1.38,1.38,0,0,1,1.83.68,2,2,0,0,0,1.94,1c1.37,0,2.09-.81,2.09-1.6s-.28-1.17-2.4-1.7c-1.71-.44-4.25-1.09-4.25-4a4,4,0,0,1,1.21-2.82,4.68,4.68,0,0,1,3.35-1.28,4.4,4.4,0,0,1,4.17,2.38,1.36,1.36,0,0,1,.06,1.05,1.39,1.39,0,0,1-.72.77,1.37,1.37,0,0,1-1,.06,1.38,1.38,0,0,1-.81-.71,1.78,1.78,0,0,0-1.7-.84c-1.49,0-1.82,1-1.82,1.39,0,.63.17.87,2.18,1.36,1.7.44,4.47,1.15,4.47,4.36A4.32,4.32,0,0,1,37,32.68Z"/></g></svg>