<svg xmlns="http://www.w3.org/2000/svg" viewBox="0 0 50 50"><defs><style>.cls-1{fill:#2b2f32;}</style></defs><title>PLN</title><g id="Слой_110" data-name="Слой 110"><path class="cls-1" d="M24.94,34.53H15a1.34,1.34,0,0,1-1.25-.79,1.38,1.38,0,0,1,.2-1.47L21.74,23H15.56a1.36,1.36,0,1,1,0-2.72h9.13a1.37,1.37,0,0,1,1.25.78,1.4,1.4,0,0,1-.19,1.45l-7.81,9.3h7a1.39,1.39,0,0,1,1.37,1.37A1.37,1.37,0,0,1,24.94,34.53Z"/><path class="cls-1" d="M36.8,20.44l-3,2.51V34.48a1.25,1.25,0,0,1-2.5,0V25l-1.41,1.18a1.29,1.29,0,0,1-.8.29,1.25,1.25,0,0,1-.8-2.21l3-2.51V12.55a1.25,1.25,0,0,1,2.5,0v7.14l1.41-1.17a1.25,1.25,0,0,1,1.6,1.92Z"/></g></svg>