<svg xmlns="http://www.w3.org/2000/svg" viewBox="0 0 50 50"><defs><style>.cls-1{fill:#2b2f32;}</style></defs><title>PRB</title><g id="Слой_111" data-name="Слой 111"><path class="cls-1" d="M32.19,27.54a14,14,0,0,1-6.52,2.09l-1.83,7.46a1.25,1.25,0,0,1-1.21.95,1.53,1.53,0,0,1-.3,0,1.24,1.24,0,0,1-.91-1.51l1.63-6.67c-.44,0-.87.06-1.3.06l-.54,0L19.45,37a1.26,1.26,0,0,1-1.21,1,1.54,1.54,0,0,1-.3,0A1.25,1.25,0,0,1,17,36.43L19,28.53v0a1.18,1.18,0,0,1,.1-.38l2.67-10.92a1.27,1.27,0,0,1,1.52-.92,1.24,1.24,0,0,1,.91,1.51l-2.34,9.58c.61,0,1.23,0,1.84-.07h0l2.46-10a1.25,1.25,0,1,1,2.42.59L26.31,27a10.71,10.71,0,0,0,4.5-1.58c1.22-.81,4-3,3.72-5.61-.28-2.34-2.86-3.72-3.38-4-1.46-.72-2.78-.69-4.76-.56-3.75.25-7.6.64-11.45,1.15A1.25,1.25,0,0,1,14.62,14c3.9-.52,7.8-.91,11.61-1.16a10.94,10.94,0,0,1,6,.8c1,.5,4.34,2.39,4.76,5.93C37.34,22.37,35.58,25.28,32.19,27.54Z"/></g></svg>