<svg xmlns="http://www.w3.org/2000/svg" viewBox="0 0 50 50"><defs><style>.cls-1{fill:#2b2f32;}</style></defs><title>PYG</title><g id="Слой_112" data-name="Слой 112"><path class="cls-1" d="M32.62,24.93H27.09l1.77-6.49a8.22,8.22,0,0,1,2.59,2,1.54,1.54,0,0,0,1.09.55,1.47,1.47,0,0,0,1.1-.39,1.58,1.58,0,0,0,.54-1,1.57,1.57,0,0,0-.39-1.16,11.1,11.1,0,0,0-4.11-2.92l1-3.77A1.25,1.25,0,0,0,28.29,11l-1,3.73A11.18,11.18,0,0,0,21.42,36.2l-1.13,4.14a1.26,1.26,0,0,0,.88,1.54A1.27,1.27,0,0,0,22.71,41l1.14-4.19a10.73,10.73,0,0,0,1.51.12,11.17,11.17,0,0,0,8.44-3.85,1.53,1.53,0,0,0,.38-1V26.49A1.54,1.54,0,0,0,32.62,24.93ZM22.25,33.18a8.07,8.07,0,0,1,4.21-15.46Zm8.81-1.72a8.08,8.08,0,0,1-5.7,2.35c-.23,0-.46,0-.68,0l1.56-5.72h4.82Z"/></g></svg>