<svg xmlns="http://www.w3.org/2000/svg" viewBox="0 0 50 50"><defs><style>.cls-1{fill:#2b2f32;}</style></defs><title>RON</title><g id="Слой_114" data-name="Слой 114"><path class="cls-1" d="M15.86,32.66a1.32,1.32,0,0,1-2.64,0V17.25a1.32,1.32,0,1,1,2.64,0Z"/><path class="cls-1" d="M32,27c0-4.07-2.72-7-6.46-7A6.28,6.28,0,0,0,20.8,22,7.4,7.4,0,0,0,19,27a6.71,6.71,0,0,0,6.67,7,6.49,6.49,0,0,0,5.63-3.15A1.31,1.31,0,0,0,30.88,29a1.33,1.33,0,0,0-1.81.43,3.8,3.8,0,0,1-3.37,1.89,4,4,0,0,1-3.89-3.07h8.91A1.33,1.33,0,0,0,32,27ZM21.8,25.63a3.86,3.86,0,0,1,3.78-3.1,3.71,3.71,0,0,1,3.67,3.1Z"/><path class="cls-1" d="M37.92,32.66a1.32,1.32,0,0,1-2.64,0V21.21a1.32,1.32,0,0,1,2.64,0Z"/><path class="cls-1" d="M36.6,18.79a1.37,1.37,0,0,1-1.39-1.36,1.39,1.39,0,0,1,2.78,0A1.36,1.36,0,0,1,36.6,18.79Z"/></g></svg>