<svg xmlns="http://www.w3.org/2000/svg" viewBox="0 0 50 50"><defs><style>.cls-1{fill:#2b2f32;}</style></defs><title>RSD</title><g id="Слой_115" data-name="Слой 115"><path class="cls-1" d="M27.23,31.66a1.32,1.32,0,1,1-2.64,0V20.21a1.33,1.33,0,0,1,1.32-1.29,1.31,1.31,0,0,1,1.32,1.29Z"/><path class="cls-1" d="M25.91,17.79a1.37,1.37,0,0,1-1.39-1.36,1.4,1.4,0,0,1,1.39-1.37,1.38,1.38,0,0,1,1.39,1.37A1.36,1.36,0,0,1,25.91,17.79Z"/><path class="cls-1" d="M40.86,33a1.31,1.31,0,0,1-1.32-1.32V25a3.16,3.16,0,0,0-3-3.46A3.35,3.35,0,0,0,33.2,25v6.67a1.31,1.31,0,1,1-2.61,0V20.21a1.3,1.3,0,0,1,1.3-1.29,1.31,1.31,0,0,1,1.28,1,5.88,5.88,0,0,1,3.32-1,5.39,5.39,0,0,1,4.16,1.84A6.36,6.36,0,0,1,42.16,25v6.67A1.31,1.31,0,0,1,40.86,33Z"/><path class="cls-1" d="M20.17,14.93a1.3,1.3,0,0,0-1.31,1.32v4a6.57,6.57,0,0,0-4.06-1.35,6.72,6.72,0,0,0-6.7,7,6.72,6.72,0,0,0,6.7,7,6.52,6.52,0,0,0,4.06-1.37v.05a1.31,1.31,0,1,0,2.61,0V16.25A1.31,1.31,0,0,0,20.17,14.93ZM14.8,30.34A4.14,4.14,0,0,1,10.74,26a4.15,4.15,0,0,1,4.06-4.42A4.16,4.16,0,0,1,18.86,26,4.15,4.15,0,0,1,14.8,30.34Z"/></g></svg>