<svg xmlns="http://www.w3.org/2000/svg" viewBox="0 0 50 50"><defs><style>.cls-1{fill:#2b2f32;}</style></defs><title>RUB</title><g id="Слой_116" data-name="Слой 116"><path class="cls-1" d="M27,26.86c3.33,0,5.75-.74,7.19-2.2a5.76,5.76,0,0,0,1.53-4.36v-.15a6.14,6.14,0,0,0-1.82-3.82,8,8,0,0,0-5.79-2.12H20.5a1.23,1.23,0,0,0-1.23,1.23v9H17.14a1.23,1.23,0,1,0,0,2.46h2.13v2.2H16.73a1.23,1.23,0,0,0,0,2.46h2.54v6.29a1.23,1.23,0,1,0,2.46,0V31.52h8.35a1.23,1.23,0,0,0,0-2.46H21.73v-2.2Zm-5.3-10.19h6.41c4.77,0,5.15,3.45,5.15,3.49v.18a3.38,3.38,0,0,1-.82,2.59c-.95,1-2.83,1.47-5.44,1.47h-5.3Z"/></g></svg>