<svg xmlns="http://www.w3.org/2000/svg" viewBox="0 0 50 50"><defs><style>.cls-1{fill:#2b2f32;}</style></defs><title>RWF</title><g id="Слой_117" data-name="Слой 117"><path class="cls-1" d="M15.59,21.17H9.18v3.27h4.47a1.12,1.12,0,1,1,0,2.23H9.18v4.95a1.13,1.13,0,0,1-1.13,1.12,1.11,1.11,0,0,1-1.13-1.12V20.06a1.12,1.12,0,0,1,1.13-1.13h7.54a1.12,1.12,0,1,1,0,2.24Z"/><path class="cls-1" d="M25.78,28.41a5,5,0,0,0-2.16-9.48H19.77a1.12,1.12,0,0,0-1.13,1.13V31.62a1.13,1.13,0,0,0,2.25,0V28.91h2.25l3.34,3.46a1.08,1.08,0,0,0,.83.37,1.09,1.09,0,0,0,.77-.3,1.11,1.11,0,0,0,.05-1.59Zm-2.16-1.74H20.89v-5.5h2.73a2.75,2.75,0,1,1,0,5.5Z"/><path class="cls-1" d="M41.08,32a1.09,1.09,0,0,1-1,.77H40a1.11,1.11,0,0,1-1-.7l-1.76-4.27L35.47,32a1.12,1.12,0,0,1-1.07.7,1.14,1.14,0,0,1-1-.78l-2.78-8.58A1.15,1.15,0,0,1,31.26,22a1.17,1.17,0,0,1,1.45.72l1.84,5.67,1.63-4a1.13,1.13,0,0,1,1-.69,1.11,1.11,0,0,1,1,.69l1.65,4,1.84-5.67a1.12,1.12,0,1,1,2.14.67Z"/></g></svg>