<svg xmlns="http://www.w3.org/2000/svg" viewBox="0 0 50 50"><defs><style>.cls-1{fill:#2b2f32;}</style></defs><title>SAR</title><g id="Слой_118" data-name="Слой 118"><path class="cls-1" d="M16.91,34c-3.85,0-5.86-2.71-5.86-5.38a1.37,1.37,0,0,1,2.74,0c0,1.32,1,2.64,3.12,2.64s3.14-1.32,3.14-2.64c0-1.58-.94-2-3.45-2.73-2.23-.66-5.19-1.53-5.19-5,0-2.5,1.89-5,5.5-5s5.52,2.54,5.52,5a1.37,1.37,0,0,1-2.74,0c0-1.15-.86-2.32-2.78-2.32s-2.76,1.2-2.76,2.32c0,1.31.88,1.69,3.22,2.38s5.42,1.59,5.42,5.35C22.79,31.32,20.77,34,16.91,34Z"/><path class="cls-1" d="M34.78,28.35a6.52,6.52,0,0,0-2.65-12.47H27a1.36,1.36,0,0,0-1.37,1.37V32.66a1.37,1.37,0,1,0,2.74,0V28.92h3.17L36,33.58a1.37,1.37,0,0,0,2.37-.89,1.36,1.36,0,0,0-.37-1Zm-6.42-2.14V18.6h3.77a3.81,3.81,0,0,1,0,7.61Z"/></g></svg>