<svg xmlns="http://www.w3.org/2000/svg" viewBox="0 0 50 50"><defs><style>.cls-1{fill:#2b2f32;}</style></defs><title>SBD</title><g id="Слой_153" data-name="Слой 153"><path class="cls-1" d="M31.37,27.08c.1.18.2.36,0,0s-.1-.19,0,0a5.91,5.91,0,0,0-3.09-2.42,19.74,19.74,0,0,0-2.52-.75V18.29a4.84,4.84,0,0,1,2,.8,3,3,0,0,1,.7.73,3,3,0,0,1,.24.47c.06.16.09.33.16.49a1.46,1.46,0,0,0,1.31.95,1.5,1.5,0,0,0,1.41-.85,1.54,1.54,0,0,0,.12-.85,2.51,2.51,0,0,0-.14-.52,5.2,5.2,0,0,0-.21-.55,5.7,5.7,0,0,0-1.18-1.7,7.38,7.38,0,0,0-3.86-1.87l-.58-.09V13.67a1.5,1.5,0,0,0-.87-1.34,1.47,1.47,0,0,0-2.09,1.34v1.64a7.33,7.33,0,0,0-4,1.77,5.22,5.22,0,0,0-1.21,1.66,5,5,0,0,0-.44,2.15A4.84,4.84,0,0,0,17.59,23a4.63,4.63,0,0,0,1.31,1.57,10.47,10.47,0,0,0,3.89,1.68v5.86a4.38,4.38,0,0,1-1.89-1,3.79,3.79,0,0,1-.65-.83,4.23,4.23,0,0,1-.23-.48c-.06-.17-.1-.35-.15-.52a1.52,1.52,0,0,0-1.28-1,1.5,1.5,0,0,0-1.44.79,1.53,1.53,0,0,0-.16.84,4.48,4.48,0,0,0,.11.5c.06.18.12.36.19.53a6.49,6.49,0,0,0,1.12,1.85A7.24,7.24,0,0,0,22,35c.25.07.5.13.76.18v1.72A1.48,1.48,0,0,0,25.25,38a1.52,1.52,0,0,0,.5-1.11V35.31a7.75,7.75,0,0,0,4.17-1.48,5.32,5.32,0,0,0,1.45-6.75Zm-8.58-3.89c-.35-.11-.66-.22-.95-.33a6.36,6.36,0,0,1-1-.5,1.74,1.74,0,0,1-.65-.72,2.16,2.16,0,0,1-.11-1,1.89,1.89,0,0,1,.35-1,3.7,3.7,0,0,1,2.33-1.34Zm6,7.56a3.84,3.84,0,0,1-3,1.59V27a10.43,10.43,0,0,1,2,.72,2.91,2.91,0,0,1,.8.59,1.59,1.59,0,0,1,.4.81A2.45,2.45,0,0,1,28.76,30.75Z"/></g></svg>