<svg xmlns="http://www.w3.org/2000/svg" viewBox="0 0 50 50"><defs><style>.cls-1{fill:#2b2f32;}</style></defs><title>SCR</title><g id="Слой_121" data-name="Слой 121"><path class="cls-1" d="M14.42,32.69A4.13,4.13,0,0,1,10,28.61a1.08,1.08,0,0,1,1.08-1.08,1.09,1.09,0,0,1,1.08,1.08c0,1,.7,1.93,2.29,1.93s2.31-1,2.31-1.93c0-1.15-.71-1.47-2.56-2-1.69-.5-3.93-1.16-3.93-3.8A3.88,3.88,0,0,1,14.42,19a3.89,3.89,0,0,1,4.19,3.83,1.08,1.08,0,1,1-2.15,0c0-.84-.63-1.69-2-1.69a1.79,1.79,0,0,0-2,1.69c0,.9.53,1.19,2.37,1.74,1.66.48,4.11,1.2,4.11,4.06A4.13,4.13,0,0,1,14.42,32.69Z"/><path class="cls-1" d="M27.91,28.4A4.94,4.94,0,0,0,25.83,19H22a1.06,1.06,0,0,0-1.08,1.08V31.62a1.08,1.08,0,0,0,2.15,0V28.86h2.31l3.37,3.48a1,1,0,0,0,.79.35,1,1,0,0,0,.73-.29,1,1,0,0,0,.34-.73,1.11,1.11,0,0,0-.29-.79Zm-2.08-1.68H23.05v-5.6h2.78a2.8,2.8,0,0,1,0,5.6Z"/><path class="cls-1" d="M42.26,27.33c0-3.1-2.07-5.36-4.93-5.36a4.78,4.78,0,0,0-3.65,1.61,5.65,5.65,0,0,0-1.35,3.75,5.11,5.11,0,0,0,5.09,5.36,5,5,0,0,0,4.3-2.4,1.08,1.08,0,0,0-.37-1.48,1.09,1.09,0,0,0-1.48.36,2.77,2.77,0,0,1-2.45,1.37,2.91,2.91,0,0,1-2.8-2.13h6.56A1.08,1.08,0,0,0,42.26,27.33Zm-7.65-1.07a2.79,2.79,0,0,1,2.72-2.15A2.67,2.67,0,0,1,40,26.26Z"/></g></svg>