<svg xmlns="http://www.w3.org/2000/svg" viewBox="0 0 50 50"><defs><style>.cls-1{fill:#2b2f32;}</style></defs><title>SDG</title><g id="Слой_160" data-name="Слой 160"><path class="cls-1" d="M16.91,35c-3.81,0-5.81-2.68-5.81-5.33a1.31,1.31,0,0,1,1.32-1.32,1.33,1.33,0,0,1,1.32,1.32c0,1.34,1,2.69,3.17,2.69S20.1,31,20.1,29.65c0-1.61-1-2-3.49-2.78-2.21-.66-5.15-1.52-5.15-4.95,0-2.48,1.87-5,5.45-5s5.47,2.51,5.47,5a1.32,1.32,0,1,1-2.64,0c0-1.14-.88-2.37-2.83-2.37s-2.81,1.23-2.81,2.37c0,1.34.89,1.73,3.25,2.43s5.39,1.58,5.39,5.3C22.74,32.3,20.74,35,16.91,35Z"/><path class="cls-1" d="M30.88,16.93H27a1.31,1.31,0,0,0-1.32,1.32V33.66A1.31,1.31,0,0,0,27,35h3.89a9,9,0,0,0,0-18Zm0,15.41H28.31V19.55h2.57a6.4,6.4,0,1,1,0,12.79Z"/></g></svg>