<svg xmlns="http://www.w3.org/2000/svg" viewBox="0 0 50 50"><defs><style>.cls-1,.cls-2{fill:#2b2f32;}.cls-2{stroke:#2b2f32;stroke-miterlimit:10;stroke-width:0.25px;}</style></defs><title>SGD</title><g id="Слой_120" data-name="Слой 120"><path class="cls-1" d="M19.23,33.43A4.84,4.84,0,0,1,14,28.65a1.25,1.25,0,0,1,1.27-1.27,1.27,1.27,0,0,1,1.27,1.27c0,1.11.82,2.23,2.66,2.23s2.67-1.12,2.67-2.23c0-1.34-.81-1.7-3-2.32-2-.59-4.58-1.36-4.58-4.44a4.53,4.53,0,0,1,4.88-4.49,4.55,4.55,0,0,1,4.9,4.49,1.27,1.27,0,0,1-2.54,0c0-1-.73-2-2.36-2a2.07,2.07,0,0,0-2.34,2c0,1,.59,1.36,2.76,2,1.94.57,4.8,1.41,4.8,4.76A4.84,4.84,0,0,1,19.23,33.43Z"/><path class="cls-2" d="M37.63,27c.07.13.15.26,0,0s-.08-.14,0,0a4.39,4.39,0,0,0-2.28-1.78,13.83,13.83,0,0,0-1.87-.56V20.51a3.69,3.69,0,0,1,1.5.59,2.22,2.22,0,0,1,.52.54,2.31,2.31,0,0,1,.18.35c0,.12.07.25.11.37a1.1,1.1,0,0,0,2,.07,1.15,1.15,0,0,0,.09-.63,1.9,1.9,0,0,0-.11-.39,2.74,2.74,0,0,0-.15-.4,4.09,4.09,0,0,0-.88-1.26,5.39,5.39,0,0,0-2.86-1.39l-.42-.06V17.09a1.1,1.1,0,0,0-1.82-.82,1.09,1.09,0,0,0-.37.82V18.3a5.58,5.58,0,0,0-3,1.31,4,4,0,0,0-.9,1.24,3.76,3.76,0,0,0-.32,1.58A3.66,3.66,0,0,0,27.43,24a3.54,3.54,0,0,0,1,1.17,7.88,7.88,0,0,0,2.88,1.24v4.33a3.15,3.15,0,0,1-1.4-.76,2.81,2.81,0,0,1-.48-.61,2.92,2.92,0,0,1-.17-.36c0-.13-.07-.26-.11-.38a1.13,1.13,0,0,0-.95-.75,1.1,1.1,0,0,0-1.06.59,1,1,0,0,0-.12.61,2.21,2.21,0,0,0,.08.37c0,.14.09.27.14.4A4.7,4.7,0,0,0,28,31.21a5.38,5.38,0,0,0,2.68,1.65c.19,0,.38.1.57.13v1.28a1.09,1.09,0,0,0,.63,1,1.09,1.09,0,0,0,1.56-1V33.1A5.83,5.83,0,0,0,36.56,32a3.95,3.95,0,0,0,1.07-5Zm-6.35-2.89a7.1,7.1,0,0,1-.7-.24,3.77,3.77,0,0,1-.72-.37,1.17,1.17,0,0,1-.48-.53,1.69,1.69,0,0,1-.09-.77,1.56,1.56,0,0,1,.26-.7,2.76,2.76,0,0,1,1.73-1Zm4.42,5.6a2.82,2.82,0,0,1-2.23,1.17v-4a7.86,7.86,0,0,1,1.5.53,2.35,2.35,0,0,1,.6.43,1.25,1.25,0,0,1,.29.6A1.8,1.8,0,0,1,35.7,29.73Z"/></g></svg>