<svg xmlns="http://www.w3.org/2000/svg" viewBox="0 0 50 50"><defs><style>.cls-1{fill:#2b2f32;}</style></defs><title>SHP</title><g id="Слой_123" data-name="Слой 123"><path class="cls-1" d="M34.87,35.14l-.65.25a10.84,10.84,0,0,1-3.47.72h-.06a4.78,4.78,0,0,1-.86-.11c-.36-.08-.76-.16-1.19-.27l-1.36-.33-1.37-.33-1.22-.25a5.19,5.19,0,0,0-.88-.11,13.55,13.55,0,0,0-5.54,1.41h0A1.41,1.41,0,0,1,16.68,35c-.16-.88.78-1.39,1.62-1.67a7,7,0,0,0,1.39-.93,5,5,0,0,0,1-1.24,5.91,5.91,0,0,0,.65-1.64,9.06,9.06,0,0,0,.22-2.13,8,8,0,0,0-.17-1.62l-.08-.35H18.29l-.11,0a1.13,1.13,0,0,1,0-2.25H20.7l-.16-.56c-.2-.68-.35-1.3-.45-1.83A10.19,10.19,0,0,1,19.9,19a6.93,6.93,0,0,1,.52-2.71,5.62,5.62,0,0,1,1.45-2A6.42,6.42,0,0,1,24.1,13,8.68,8.68,0,0,1,27,12.53a9,9,0,0,1,2.67.38A6,6,0,0,1,31.74,14a5.83,5.83,0,0,1,1.44,1.84,7.3,7.3,0,0,1,.68,2.54v.29h0a1.48,1.48,0,0,1-2.94,0,1.49,1.49,0,0,1-.05-.21v-.13s0,0,0,0c-.22-2.39-1.51-3.55-4-3.55a4.23,4.23,0,0,0-1.63.3A3.72,3.72,0,0,0,24,16a4,4,0,0,0-1.1,2.78,14.16,14.16,0,0,0,.76,4.08l.1.31h5a1.13,1.13,0,0,1,.13,2.2.8.8,0,0,1-.21.05H24.31l.13.54a3.7,3.7,0,0,1,.11.87,9.69,9.69,0,0,1-.15,1.78,5.91,5.91,0,0,1-.49,1.47A7,7,0,0,1,23,31.35c-.07.09-.15.17-.23.26l-.79.85,1.16-.11a7.32,7.32,0,0,1,.81,0,9.54,9.54,0,0,1,1.53.16l2,.35,1.86.33a7.32,7.32,0,0,0,1.19.16A7.52,7.52,0,0,0,34,32.47l.07,0a.52.52,0,0,1,.23-.07l.16,0h0a1.42,1.42,0,0,1,.44,2.8Z"/></g></svg>