<svg xmlns="http://www.w3.org/2000/svg" viewBox="0 0 50 50"><defs><style>.cls-1{fill:#2b2f32;}</style></defs><title>SLL</title><g id="Слой_124" data-name="Слой 124"><path class="cls-1" d="M22.85,33.93H14.42a1.27,1.27,0,0,1-1.27-1.27V17.25a1.27,1.27,0,0,1,2.54,0V31.39h7.16a1.27,1.27,0,0,1,0,2.54Z"/><path class="cls-1" d="M38.73,27c0-4.05-2.69-7-6.4-7a6.23,6.23,0,0,0-4.75,2.09A7.36,7.36,0,0,0,25.82,27a6.66,6.66,0,0,0,6.63,7A6.44,6.44,0,0,0,38,30.81a1.28,1.28,0,0,0-2.18-1.33,3.82,3.82,0,0,1-3.4,1.91,4.07,4.07,0,0,1-4-3.17h9A1.27,1.27,0,0,0,38.73,27ZM28.48,25.68a3.91,3.91,0,0,1,3.85-3.2,3.76,3.76,0,0,1,3.73,3.2Z"/></g></svg>