<svg xmlns="http://www.w3.org/2000/svg" viewBox="0 0 50 50"><defs><style>.cls-1{fill:#2b2f32;}</style></defs><title>SOS</title><g id="Слой_125" data-name="Слой 125"><path class="cls-1" d="M17.91,34.93c-3.78,0-5.76-2.66-5.76-5.28a1.27,1.27,0,0,1,2.54,0c0,1.37,1,2.74,3.22,2.74s3.24-1.37,3.24-2.74c0-1.64-1-2.1-3.52-2.83-2.2-.65-5.12-1.51-5.12-4.9,0-2.45,1.86-4.94,5.4-4.94s5.42,2.49,5.42,4.94a1.27,1.27,0,0,1-2.54,0c0-1.17-.9-2.42-2.88-2.42s-2.86,1.25-2.86,2.42c0,1.38.9,1.77,3.29,2.48s5.35,1.57,5.35,5.25C23.69,32.27,21.71,34.93,17.91,34.93Z"/><path class="cls-1" d="M38.21,33.66a1.27,1.27,0,0,1-2.54,0V27a3.22,3.22,0,1,0-6.41,0v6.67a1.27,1.27,0,0,1-2.54,0V18.25a1.27,1.27,0,0,1,2.54,0v3.69a5.76,5.76,0,0,1,9,5Z"/></g></svg>