<svg xmlns="http://www.w3.org/2000/svg" viewBox="0 0 50 50"><defs><style>.cls-1{fill:#2b2f32;}</style></defs><title>SRD</title><g id="Слой_126" data-name="Слой 126"><path class="cls-1" d="M13.42,32.74a4.18,4.18,0,0,1-4.5-4.13,1.12,1.12,0,0,1,1.13-1.13,1.14,1.14,0,0,1,1.13,1.13c0,.94.69,1.88,2.24,1.88s2.26-.94,2.26-1.88-.57-1.39-2.52-2c-1.62-.47-4-1.17-4-3.84a3.92,3.92,0,0,1,4.23-3.88,3.93,3.93,0,0,1,4.24,3.88,1.13,1.13,0,1,1-2.25,0c0-.82-.62-1.64-2-1.64s-2,.82-2,1.64S12,24,13.79,24.5c1.67.49,4.14,1.21,4.14,4.11A4.19,4.19,0,0,1,13.42,32.74Z"/><path class="cls-1" d="M35.77,18.93H32.85a1.11,1.11,0,0,0-1.12,1.13V31.62a1.11,1.11,0,0,0,1.12,1.12h2.92a6.91,6.91,0,1,0,0-13.81Zm0,11.56H34V21.17h1.79a4.66,4.66,0,1,1,0,9.32Z"/><path class="cls-1" d="M27,28.41a5,5,0,0,0-2.16-9.48H21a1.12,1.12,0,0,0-1.13,1.13V31.62a1.13,1.13,0,0,0,2.25,0V28.91h2.24l3.35,3.46a1.08,1.08,0,0,0,.83.37,1.11,1.11,0,0,0,.77-.3,1.13,1.13,0,0,0,.05-1.59Zm-2.16-1.74H22.1v-5.5h2.73a2.75,2.75,0,0,1,0,5.5Z"/></g></svg>