<svg xmlns="http://www.w3.org/2000/svg" viewBox="0 0 50 50"><defs><style>.cls-1{fill:#2b2f32;}</style></defs><title>SSP</title><g id="Слой_127" data-name="Слой 127"><path class="cls-1" d="M14.42,32.74a4.18,4.18,0,0,1-4.5-4.13,1.12,1.12,0,0,1,1.13-1.13,1.14,1.14,0,0,1,1.13,1.13c0,.94.69,1.88,2.24,1.88s2.26-.94,2.26-1.88-.57-1.39-2.52-2c-1.62-.47-4-1.17-4-3.84a3.92,3.92,0,0,1,4.23-3.88,3.93,3.93,0,0,1,4.24,3.88,1.13,1.13,0,1,1-2.25,0c0-.82-.62-1.64-2-1.64s-2,.82-2,1.64S13,24,14.79,24.5c1.67.49,4.14,1.21,4.14,4.11A4.19,4.19,0,0,1,14.42,32.74Z"/><path class="cls-1" d="M25.34,32.74a4.17,4.17,0,0,1-4.49-4.13,1.13,1.13,0,1,1,2.25,0c0,.94.69,1.88,2.24,1.88s2.26-.94,2.26-1.88-.57-1.39-2.52-2c-1.61-.47-4-1.17-4-3.84a3.92,3.92,0,0,1,4.22-3.88,3.93,3.93,0,0,1,4.24,3.88,1.13,1.13,0,1,1-2.25,0c0-.82-.61-1.64-2-1.64s-2,.82-2,1.64.5,1.15,2.34,1.69c1.68.49,4.14,1.21,4.14,4.11A4.19,4.19,0,0,1,25.34,32.74Z"/><path class="cls-1" d="M36.75,18.93H32.9a1.12,1.12,0,0,0-1.13,1.13V31.62a1.13,1.13,0,0,0,2.26,0V28.91h2.72a5,5,0,0,0,0-10Zm0,7.74H34v-5.5h2.72a2.75,2.75,0,1,1,0,5.5Z"/></g></svg>