<svg xmlns="http://www.w3.org/2000/svg" viewBox="0 0 50 50"><defs><style>.cls-1{fill:#2b2f32;}</style></defs><title>STD</title><g id="Слой_128" data-name="Слой 128"><path class="cls-1" d="M16.31,17H12.42a1.26,1.26,0,0,0-1.27,1.27V33.66a1.26,1.26,0,0,0,1.27,1.27h3.89a9,9,0,0,0,0-17.95Zm0,15.41H13.69V19.5h2.62a6.45,6.45,0,1,1,0,12.89Z"/><path class="cls-1" d="M34.93,21a6.42,6.42,0,0,0-4.08,1.41V18.25a1.27,1.27,0,0,0-2.54,0V33.66a1.27,1.27,0,0,0,2.54,0v-.15a6.41,6.41,0,0,0,4.08,1.42,6.67,6.67,0,0,0,6.65-7A6.67,6.67,0,0,0,34.93,21Zm0,11.42A4.18,4.18,0,0,1,30.85,28,4.11,4.11,0,1,1,39,28,4.19,4.19,0,0,1,34.93,32.39Z"/></g></svg>