<svg xmlns="http://www.w3.org/2000/svg" viewBox="0 0 50 50"><defs><style>.cls-1{fill:#2b2f32;}</style></defs><title>SVC</title><g id="Слой_129" data-name="Слой 129"><path class="cls-1" d="M33.69,30.16a1.65,1.65,0,0,0-2.29.16,7.47,7.47,0,0,1-4.72,2.51l4-13.15a7.27,7.27,0,0,1,.68.68,1.6,1.6,0,0,0,1.14.57,1.64,1.64,0,0,0,1.71-1.5,1.61,1.61,0,0,0-.4-1.21,11.21,11.21,0,0,0-2.12-1.84l1.08-3.53a1.19,1.19,0,0,0-2.28-.7l-1,3.13a10,10,0,0,0-1.8-.52l1-3.22a1.19,1.19,0,0,0-2.28-.7l-1.14,3.73a10.79,10.79,0,0,0-6,19.51L18.1,38.15a1.21,1.21,0,0,0,.79,1.49,1.48,1.48,0,0,0,.35,0,1.19,1.19,0,0,0,1.14-.84l1.09-3.55a10.67,10.67,0,0,0,1.79.57l-1.1,3.59A1.2,1.2,0,0,0,23,41a1.41,1.41,0,0,0,.35,0,1.2,1.2,0,0,0,1.14-.84l1.22-4h.05a10.76,10.76,0,0,0,8.13-3.69,1.52,1.52,0,0,0,.41-1.19A1.66,1.66,0,0,0,33.69,30.16Zm-13.3.54a7.55,7.55,0,0,1,3.92-12.78Zm3.83,2.05a7.18,7.18,0,0,1-1.78-.6l4.37-14.28a7.35,7.35,0,0,1,1.81.5Z"/></g></svg>