<svg xmlns="http://www.w3.org/2000/svg" viewBox="0 0 50 50"><defs><style>.cls-1{fill:#2b2f32;}</style></defs><title>SYP</title><g id="Слой_130" data-name="Слой 130"><path class="cls-1" d="M18.23,33.43A4.84,4.84,0,0,1,13,28.65a1.25,1.25,0,0,1,1.27-1.27,1.27,1.27,0,0,1,1.27,1.27c0,1.11.82,2.23,2.66,2.23s2.67-1.12,2.67-2.23c0-1.34-.81-1.7-3-2.32-2-.59-4.58-1.36-4.58-4.44a4.53,4.53,0,0,1,4.88-4.49,4.55,4.55,0,0,1,4.9,4.49,1.27,1.27,0,0,1-2.54,0c0-1-.73-2-2.36-2a2.07,2.07,0,0,0-2.34,2c0,1,.59,1.36,2.76,2,1.94.57,4.8,1.41,4.8,4.76A4.84,4.84,0,0,1,18.23,33.43Z"/><path class="cls-1" d="M38.12,32.76l-.42.16a7.21,7.21,0,0,1-2.4.5h0a3.4,3.4,0,0,1-.61-.08l-.81-.18-.91-.22L32,32.72c-.29-.07-.57-.13-.81-.17a2.89,2.89,0,0,0-.56-.07,9,9,0,0,0-3.66.93l-.06,0h-.15a1.13,1.13,0,0,1-1.09-.92c-.07-.39.08-.94,1.2-1.31a4.41,4.41,0,0,0,.88-.6,3.16,3.16,0,0,0,.66-.79,3.84,3.84,0,0,0,.42-1.05A6.4,6.4,0,0,0,29,27.38a4.71,4.71,0,0,0-.11-1.06l0-.1-2,0a.92.92,0,0,1-.82-.92,1,1,0,0,1,.84-.93h1.48l-.05-.17c-.13-.46-.23-.88-.3-1.24a6.31,6.31,0,0,1-.13-1.19,4.79,4.79,0,0,1,.36-1.89,4,4,0,0,1,1-1.43,4.49,4.49,0,0,1,1.55-.9,6,6,0,0,1,2-.31,6.36,6.36,0,0,1,1.85.26,4.24,4.24,0,0,1,1.47.79,4,4,0,0,1,1,1.29,4.81,4.81,0,0,1,.48,1.76v.22a1.17,1.17,0,0,1-2.32,0,.65.65,0,0,1,0-.16v0h0v0a2.2,2.2,0,0,0-2.5-2.26,2.59,2.59,0,0,0-1,.19,2.31,2.31,0,0,0-.79.54,2.82,2.82,0,0,0-.51.79,2.6,2.6,0,0,0-.18,1,9.69,9.69,0,0,0,.5,2.7l0,.09H34a.92.92,0,0,1,.76.91,1,1,0,0,1-.66.89.48.48,0,0,1-.18,0H31.19l0,.16a3.18,3.18,0,0,1,.07.62,7.43,7.43,0,0,1-.1,1.22,4,4,0,0,1-.35,1,4.55,4.55,0,0,1-.6.9l-.16.18-.23.24.34,0a5.63,5.63,0,0,1,1.62.09l1.32.23,1.25.22a4.91,4.91,0,0,0,.77.11,4.84,4.84,0,0,0,2.23-.55l.06,0,.08,0v0l.24,0a1.13,1.13,0,0,1,1.21.87A1.12,1.12,0,0,1,38.12,32.76Z"/></g></svg>