<svg xmlns="http://www.w3.org/2000/svg" viewBox="0 0 50 50"><defs><style>.cls-1{fill:#2b2f32;}</style></defs><title>TJS</title><g id="Слой_133" data-name="Слой 133"><path class="cls-1" d="M32.78,32.11a11.17,11.17,0,1,1,0-14.76,1.57,1.57,0,0,1,.39,1.16,1.58,1.58,0,0,1-.54,1,1.47,1.47,0,0,1-1.1.39,1.56,1.56,0,0,1-1.09-.55,8.09,8.09,0,1,0,0,10.64,1.59,1.59,0,0,1,2.19-.15A1.66,1.66,0,0,1,33.18,31,1.51,1.51,0,0,1,32.78,32.11Z"/><path class="cls-1" d="M38.16,36.38a1.82,1.82,0,1,1,1.89-1.83A1.83,1.83,0,0,1,38.16,36.38Z"/></g></svg>