<svg xmlns="http://www.w3.org/2000/svg" viewBox="0 0 50 50"><defs><style>.cls-1{fill:#2b2f32;}</style></defs><title>TRY</title><g id="Слой_137" data-name="Слой 137"><path class="cls-1" d="M32.44,33.58a18.7,18.7,0,0,1-8.15,5.34,1.39,1.39,0,0,1-.44.07,1.27,1.27,0,0,1-.8-.27l-.05,0a1.36,1.36,0,0,1-.7-1.26V29.61l-2,1.84a1.37,1.37,0,0,1-1.88-.09,1.33,1.33,0,0,1,.1-1.88L22.3,26V24L20,26.06a1.37,1.37,0,0,1-1.88-.1,1.34,1.34,0,0,1,.09-1.88l4.06-3.67V14.28a1.52,1.52,0,0,1,3,0v3.37l3.15-2.85a1.33,1.33,0,1,1,1.79,2l-4.94,4.48v2l3.39-3.06a1.33,1.33,0,1,1,1.79,2l-5.18,4.69v8.4l.31-.16a17.16,17.16,0,0,0,4.45-3.47c2.36-2.52,3.27-4.94,2.73-7.19a1.44,1.44,0,0,1,.24-1.27,1.74,1.74,0,0,1,1.34-.63,1.33,1.33,0,0,1,1.34,1.08C36.83,28,34.14,31.76,32.44,33.58Z"/></g></svg>