<svg xmlns="http://www.w3.org/2000/svg" viewBox="0 0 50 50"><defs><style>.cls-1,.cls-2{fill:#2b2f32;}.cls-2{stroke:#2b2f32;stroke-miterlimit:10;stroke-width:0.25px;}</style></defs><title>TTD</title><g id="Слой_138" data-name="Слой 138"><path class="cls-1" d="M16.71,22.73H13.58v10.4a1.17,1.17,0,1,1-2.34,0V22.73H8.12a1.17,1.17,0,1,1,0-2.33h8.59a1.17,1.17,0,1,1,0,2.33Z"/><path class="cls-1" d="M29.47,22.73H26.34v10.4a1.17,1.17,0,1,1-2.34,0V22.73H20.88a1.17,1.17,0,1,1,0-2.33h8.59a1.17,1.17,0,1,1,0,2.33Z"/><path class="cls-2" d="M42.58,27.84c.07.12.13.23,0,0s-.08-.13,0,0a3.88,3.88,0,0,0-2.06-1.61,12.07,12.07,0,0,0-1.68-.51V22a3.1,3.1,0,0,1,1.35.52,1.82,1.82,0,0,1,.47.49,1.91,1.91,0,0,1,.16.32c0,.1.06.22.11.32a1,1,0,0,0,.87.64,1,1,0,0,0,.94-.57,1,1,0,0,0,.08-.56,1.58,1.58,0,0,0-.09-.36,2.67,2.67,0,0,0-.14-.36,3.72,3.72,0,0,0-.79-1.13A4.79,4.79,0,0,0,39.21,20a2.32,2.32,0,0,0-.38-.06V18.89a1,1,0,0,0-2,0V20a5,5,0,0,0-2.66,1.18,3.46,3.46,0,0,0-.81,1.12,3.31,3.31,0,0,0-.3,1.43,3.45,3.45,0,0,0,.31,1.41,3,3,0,0,0,.87,1.05,7,7,0,0,0,2.59,1.12V31.2a2.91,2.91,0,0,1-1.25-.69,2.59,2.59,0,0,1-.44-.55,2,2,0,0,1-.15-.33c0-.11-.07-.23-.1-.34a1,1,0,0,0-.85-.67A1,1,0,0,0,33,29.7a1.76,1.76,0,0,0,.07.33,3.82,3.82,0,0,0,.13.36,4.16,4.16,0,0,0,.74,1.23,4.86,4.86,0,0,0,2.42,1.49l.5.12v1.15a1,1,0,0,0,1.64.73.94.94,0,0,0,.34-.73V33.32a5.2,5.2,0,0,0,2.79-1A3.59,3.59,0,0,0,43,29.94,3.48,3.48,0,0,0,42.58,27.84Zm-5.73-2.6a6.55,6.55,0,0,1-.63-.22,3.87,3.87,0,0,1-.64-.33,1.26,1.26,0,0,1-.44-.48,1.51,1.51,0,0,1-.07-.7,1.3,1.3,0,0,1,.23-.63A2.44,2.44,0,0,1,36.85,22Zm4,5a2.55,2.55,0,0,1-2,1.06V27.75a6.67,6.67,0,0,1,1.36.48,2,2,0,0,1,.53.39,1.11,1.11,0,0,1,.27.54A1.61,1.61,0,0,1,40.84,30.28Z"/></g></svg>