<svg xmlns="http://www.w3.org/2000/svg" viewBox="0 0 50 50"><defs><style>.cls-1{fill:#2b2f32;}</style></defs><title>TZS</title><g id="Слой_140" data-name="Слой 140"><path class="cls-1" d="M18.64,21.17H15.46V31.62a1.12,1.12,0,1,1-2.23,0V21.17H10.05a1.12,1.12,0,1,1,0-2.24h8.59a1.12,1.12,0,1,1,0,2.24Z"/><path class="cls-1" d="M25.28,32.74a4.17,4.17,0,0,1-4.49-4.13,1.11,1.11,0,0,1,1.12-1.13A1.14,1.14,0,0,1,23,28.61c0,.94.69,1.88,2.24,1.88s2.26-.94,2.26-1.88-.57-1.39-2.52-2c-1.61-.47-4-1.17-4-3.84a3.92,3.92,0,0,1,4.22-3.88,3.93,3.93,0,0,1,4.24,3.88,1.13,1.13,0,1,1-2.25,0c0-.82-.62-1.64-2-1.64s-2,.82-2,1.64.5,1.15,2.34,1.69c1.67.49,4.14,1.21,4.14,4.11A4.19,4.19,0,0,1,25.28,32.74Z"/><path class="cls-1" d="M40.68,31.62a1.13,1.13,0,0,1-2.25,0v-5a2.24,2.24,0,1,0-4.47,0v5a1.11,1.11,0,0,1-1.12,1.12,1.13,1.13,0,0,1-1.13-1.12V20.06a1.14,1.14,0,0,1,1.13-1.13A1.11,1.11,0,0,1,34,20.06v2.45a4.5,4.5,0,0,1,6.72,4.1Z"/></g></svg>