<svg xmlns="http://www.w3.org/2000/svg" viewBox="0 0 50 50"><defs><style>.cls-1{fill:#2b2f32;}</style></defs><title>UAH</title><g id="Слой_141" data-name="Слой 141"><path class="cls-1" d="M32.62,26.18A1.38,1.38,0,0,1,34,27.56a1.38,1.38,0,0,1-1.38,1.38H21.41a3.35,3.35,0,0,0-.95,3.56C21,34.06,22.87,35,25.39,35h.12a6,6,0,0,0,3.81-1.22,1.35,1.35,0,0,1,1-.33,1.4,1.4,0,0,1,.95.49,1.37,1.37,0,0,1,.32,1,1.34,1.34,0,0,1-.49.94,8.61,8.61,0,0,1-5.54,1.88h-.28c-3.66,0-6.43-1.61-7.42-4.3a5.93,5.93,0,0,1,.22-4.51h-.7a1.38,1.38,0,1,1,0-2.76h3a26.37,26.37,0,0,1,4.36-2.41l.06,0H17.38a1.39,1.39,0,0,1,0-2.77h11.9l.13-.18a3.21,3.21,0,0,0,.23-3.48A4.66,4.66,0,0,0,25.4,15a5.5,5.5,0,0,0-4,1.39,1.39,1.39,0,0,1-1.95,0,1.37,1.37,0,0,1-.4-1,1.44,1.44,0,0,1,.42-1,8.24,8.24,0,0,1,5.95-2.16A7.41,7.41,0,0,1,32.09,16,6,6,0,0,1,32.42,21h.2a1.39,1.39,0,0,1,0,2.77H30.39a21.15,21.15,0,0,1-4.26,2.44Z"/></g></svg>