<svg xmlns="http://www.w3.org/2000/svg" viewBox="0 0 50 50"><defs><style>.cls-1{fill:#2b2f32;}</style></defs><title>UGX</title><g id="Слой_142" data-name="Слой 142"><path class="cls-1" d="M19.23,27.08a5.66,5.66,0,1,1-11.31,0v-7a1.12,1.12,0,1,1,2.24,0v7a3.41,3.41,0,0,0,6.82,0v-7a1.13,1.13,0,1,1,2.25,0Z"/><path class="cls-1" d="M25.65,32.74a4.18,4.18,0,0,1-4.5-4.13,1.12,1.12,0,0,1,1.13-1.13,1.14,1.14,0,0,1,1.13,1.13c0,.94.69,1.88,2.24,1.88s2.26-.94,2.26-1.88-.57-1.39-2.52-2c-1.62-.47-4-1.17-4-3.84a3.93,3.93,0,0,1,4.23-3.88,3.93,3.93,0,0,1,4.24,3.88,1.13,1.13,0,1,1-2.25,0c0-.82-.62-1.64-2-1.64s-2,.82-2,1.64S24.18,24,26,24.5c1.67.49,4.14,1.21,4.14,4.11A4.19,4.19,0,0,1,25.65,32.74Z"/><path class="cls-1" d="M41.05,31.62a1.11,1.11,0,0,1-1.13,1.12,1.13,1.13,0,0,1-1.13-1.12v-5a2.24,2.24,0,1,0-4.46,0v5a1.11,1.11,0,0,1-1.12,1.12,1.12,1.12,0,0,1-1.13-1.12V20.06a1.13,1.13,0,0,1,1.13-1.13,1.11,1.11,0,0,1,1.12,1.13v2.45a4.41,4.41,0,0,1,2.24-.59,4.49,4.49,0,0,1,4.48,4.69Z"/></g></svg>