<svg xmlns="http://www.w3.org/2000/svg" viewBox="0 0 50 50"><defs><style>.cls-1{fill:#2b2f32;}</style></defs><title>USD</title><g id="Слой_153" data-name="Слой 153"><path class="cls-1" d="M33.28,27.32c.12.21.23.4,0,0h0a6.71,6.71,0,0,0-3.5-2.74,20.54,20.54,0,0,0-2.87-.85V17.37a5.49,5.49,0,0,1,2.31.89,3.16,3.16,0,0,1,.79.84,2.57,2.57,0,0,1,.27.52c.07.19.11.38.18.56a1.68,1.68,0,0,0,3.09.11,1.81,1.81,0,0,0,.14-.95,5.25,5.25,0,0,0-.16-.6,6.62,6.62,0,0,0-.24-.62A6.39,6.39,0,0,0,32,16.2a8.22,8.22,0,0,0-4.38-2.13l-.66-.1V12.13a1.69,1.69,0,0,0-1-1.53,1.68,1.68,0,0,0-2.38,1.53V14A8.33,8.33,0,0,0,19,16a5.94,5.94,0,0,0-1.38,1.88,5.71,5.71,0,0,0-.5,2.44,5.54,5.54,0,0,0,.51,2.4,5.22,5.22,0,0,0,1.49,1.78,11.92,11.92,0,0,0,4.4,1.9V33a5,5,0,0,1-2.14-1.16,4.53,4.53,0,0,1-.73-.95,3.47,3.47,0,0,1-.26-.55c-.07-.19-.12-.39-.18-.58a1.68,1.68,0,0,0-3.08-.25,1.73,1.73,0,0,0-.18.95,3.9,3.9,0,0,0,.13.57q.09.3.21.6a7.23,7.23,0,0,0,1.27,2.09,8.22,8.22,0,0,0,4.1,2.53c.28.08.57.14.86.2v2a1.68,1.68,0,0,0,2.79,1.26,1.72,1.72,0,0,0,.56-1.26V36.64A8.77,8.77,0,0,0,31.65,35a6,6,0,0,0,1.63-7.65Zm-9.72-4.41c-.39-.12-.75-.25-1.07-.37a6.37,6.37,0,0,1-1.1-.57,2,2,0,0,1-.74-.81A2.82,2.82,0,0,1,20.52,20a2.29,2.29,0,0,1,.4-1.07,4.21,4.21,0,0,1,2.64-1.51Zm6.77,8.57a4.36,4.36,0,0,1-3.42,1.8v-6.1a10.56,10.56,0,0,1,2.31.81,3.26,3.26,0,0,1,.91.66,1.9,1.9,0,0,1,.45.92A2.8,2.8,0,0,1,30.33,31.48Z"/></g></svg>