<svg id="Слой_1" data-name="Слой 1" 
  xmlns="http://www.w3.org/2000/svg" viewBox="0 0 50 50">
  <defs>
    <style>.cls-1{fill:#2775ca;}.cls-2{fill:#fff;}</style>
  </defs>
  <title>USDC</title>
  <circle class="cls-1" cx="24.93" cy="25.12" r="24.47"/>
  <path class="cls-2" d="M25.09,23.93a2.48,2.48,0,0,1-2.64-2.25,2.48,2.48,0,0,1,2.64-2.28,2.47,2.47,0,0,1,2.62,2.28,1.2,1.2,0,0,0,2.39,0,4.76,4.76,0,0,0-3.83-4.54v-.61a1.2,1.2,0,1,0-2.38-.23.88.88,0,0,0,0,.23v.61a4.76,4.76,0,0,0-3.83,4.54,4.86,4.86,0,0,0,5,4.66,2.47,2.47,0,0,1,2.62,2.28,2.47,2.47,0,0,1-2.62,2.28,2.48,2.48,0,0,1-2.64-2.28,1.2,1.2,0,1,0-2.39,0h0a4.75,4.75,0,0,0,3.83,4.53v.52a1.2,1.2,0,0,0,2.38.23.88.88,0,0,0,0-.23v-.52a4.75,4.75,0,0,0,3.83-4.53A4.86,4.86,0,0,0,25.09,23.93Z"/>
  <path class="cls-2" d="M30,39.32a1.17,1.17,0,0,1-1.1-.75,1.19,1.19,0,0,1,.67-1.52,12.81,12.81,0,0,0-.73-24.16,1.18,1.18,0,0,1-.76-1.47v0a1.18,1.18,0,0,1,1.49-.7,15.19,15.19,0,0,1,.86,28.54A1.11,1.11,0,0,1,30,39.32Z"/>
  <path class="cls-2" d="M19.9,39.32a1.09,1.09,0,0,1-.43-.08,15.18,15.18,0,0,1,.86-28.54,1.18,1.18,0,0,1,.77,2.19,12.81,12.81,0,0,0-.71,24.16A1.18,1.18,0,0,1,20,39.34Z"/>
</svg>