<svg xmlns="http://www.w3.org/2000/svg" viewBox="0 0 50 50"><defs><style>.cls-1{fill:#2b2f32;}</style></defs><title>VEF</title><g id="Слой_145" data-name="Слой 145"><path class="cls-1" d="M24.53,24.21A4.94,4.94,0,0,0,20.85,16H14.42a1.26,1.26,0,0,0-1.27,1.27V32.66a1.26,1.26,0,0,0,1.27,1.27H21.6a5.3,5.3,0,0,0,2.93-9.72ZM15.69,18.5h5.16a2.42,2.42,0,0,1,0,4.83H15.69ZM21.6,31.39H15.69V25.84H21.6a2.78,2.78,0,0,1,0,5.55Z"/><path class="cls-1" d="M37.86,32.61a4.88,4.88,0,0,1-3.47,1.32,4.6,4.6,0,0,1-4.34-2.5,1.3,1.3,0,0,1,.61-1.69,1.27,1.27,0,0,1,1.69.63,2.1,2.1,0,0,0,2,1c1.44,0,2.19-.86,2.19-1.7,0-1-.4-1.27-2.48-1.8-1.68-.43-4.17-1.07-4.17-3.92a3.94,3.94,0,0,1,1.18-2.75A4.58,4.58,0,0,1,34.39,20a4.33,4.33,0,0,1,4.08,2.32A1.24,1.24,0,0,1,37.85,24a1.19,1.19,0,0,1-.93.06,1.33,1.33,0,0,1-.75-.65,1.86,1.86,0,0,0-1.78-.9c-1.58,0-1.93,1.08-1.93,1.49,0,.73.27,1,2.26,1.46,1.78.46,4.39,1.13,4.39,4.26A4.17,4.17,0,0,1,37.86,32.61Z"/></g></svg>