<svg xmlns="http://www.w3.org/2000/svg" viewBox="0 0 50 50"><defs><style>.cls-1{fill:#2b2f32;}</style></defs><title>VND</title><g id="Слой_146" data-name="Слой 146"><rect class="cls-1" x="16.8" y="37.38" width="16.39" height="2.87" rx="0.65"/><path class="cls-1" d="M32.57,13.26h-.89v-.88a.63.63,0,0,0-.63-.63h-1.6a.63.63,0,0,0-.63.63v.88h-.89a.64.64,0,0,0-.63.63V15.5a.63.63,0,0,0,.63.63h.89v7.25a6.73,6.73,0,0,0-10.52,5.8,6.72,6.72,0,0,0,6.58,6.48H25a6.58,6.58,0,0,0,4.65-1.9,6.74,6.74,0,0,0,2-4.84V16.13h.89a.63.63,0,0,0,.63-.63V13.89A.64.64,0,0,0,32.57,13.26ZM28.83,28.8a.62.62,0,0,0,0,.13h0a3.82,3.82,0,0,1-3.7,3.85,3.73,3.73,0,0,1-2.79-1.06A3.88,3.88,0,0,1,21.15,29a3.84,3.84,0,0,1,7.68-.27Z"/></g></svg>