<svg xmlns="http://www.w3.org/2000/svg" viewBox="0 0 50 50"><defs><style>.cls-1{fill:#2b2f32;}</style></defs><title>VUV</title><g id="Слой_147" data-name="Слой 147"><path class="cls-1" d="M25.06,19.7,19.35,35.12a1.34,1.34,0,0,1-1.24.86,1.32,1.32,0,0,1-1.23-.86L11.19,19.71a1.26,1.26,0,0,1,0-1,1.32,1.32,0,0,1,2.43.05l4.48,12.1,4.48-12.1A1.31,1.31,0,0,1,24.27,18,1.34,1.34,0,0,1,25.06,19.7Z"/><path class="cls-1" d="M40.84,20.55H36.42V34.66a1.31,1.31,0,1,1-2.61,0V20.55H29.39a1.31,1.31,0,1,1,0-2.62H40.84a1.31,1.31,0,1,1,0,2.62Z"/></g></svg>