<svg xmlns="http://www.w3.org/2000/svg" viewBox="0 0 50 50"><defs><style>.cls-1{fill:#2b2f32;}</style></defs><title>XAF</title><g id="Слой_149" data-name="Слой 149"><path class="cls-1" d="M14.67,21.91H9.8v2.31h3.36a1,1,0,1,1,0,2H9.8v3.72a1,1,0,0,1-1,1,1,1,0,0,1-1-1v-9a1,1,0,0,1,1-1h5.87a1,1,0,0,1,1,1A1,1,0,0,1,14.67,21.91Z"/><path class="cls-1" d="M26.54,29.05a5.49,5.49,0,1,1,0-7.25,1,1,0,0,1,.25.74,1,1,0,0,1-.35.67,1,1,0,0,1-.7.25,1,1,0,0,1-.7-.35,3.51,3.51,0,1,0,0,4.61,1,1,0,0,1,1.75.63A1,1,0,0,1,26.54,29.05Z"/><path class="cls-1" d="M33.4,26.2H30v3.72a1,1,0,1,1-2,0v-9a1,1,0,0,1,1-1h5.87a1,1,0,0,1,1,1,1,1,0,0,1-1,1H30v2.31H33.4a1,1,0,1,1,0,2Z"/><path class="cls-1" d="M44.16,29.52l-3.94-9a1,1,0,0,0-1.83,0l-3.94,9a1,1,0,0,0,1.83.8l.9-2.05h4.25l.9,2.05a1,1,0,0,0,.92.6,1.18,1.18,0,0,0,.39-.08h0A1,1,0,0,0,44.16,29.52Zm-6.11-3.24,1.26-2.87,1.25,2.87Z"/></g></svg>