<svg xmlns="http://www.w3.org/2000/svg" viewBox="0 0 50 50"><defs><style>.cls-1,.cls-2{fill:#2b2f32;}.cls-2{stroke:#2b2f32;stroke-miterlimit:10;stroke-width:0.25px;}</style></defs><title>XCD</title><g id="Слой_150" data-name="Слой 150"><path class="cls-1" d="M15.1,25.08a1,1,0,1,1,0,2.06H11.21v3.27h5.61a1,1,0,0,1,1,1,1,1,0,0,1-1,1H10.17a1,1,0,0,1-1-1V21.27a1,1,0,0,1,1-1h6.65a1,1,0,1,1,0,2.05H11.21v2.8Z"/><path class="cls-1" d="M25.58,30.41A4.08,4.08,0,0,0,28.64,29a1,1,0,1,1,1.55,1.37,6.11,6.11,0,1,1,0-8.08,1.09,1.09,0,0,1,.25.77,1,1,0,0,1-.36.7,1,1,0,0,1-1.45-.11,4.06,4.06,0,1,0-3.06,6.74Z"/><path class="cls-2" d="M41.62,27.59c.06.11.12.21,0,0s-.07-.11,0,0a3.53,3.53,0,0,0-1.86-1.45,9.84,9.84,0,0,0-1.52-.45V22.31a2.77,2.77,0,0,1,1.22.48,1.6,1.6,0,0,1,.42.44,1.51,1.51,0,0,1,.15.28c0,.1.06.2.09.3a.91.91,0,0,0,.79.56.89.89,0,0,0,.85-.51.85.85,0,0,0,.07-.5,1.67,1.67,0,0,0-.08-.32c0-.11-.08-.22-.13-.33a3.29,3.29,0,0,0-.71-1,4.29,4.29,0,0,0-2.32-1.12c-.11,0-.23,0-.35-.06v-1a.89.89,0,1,0-1.77,0v1a4.41,4.41,0,0,0-2.4,1.06,3,3,0,0,0-.73,1,3.12,3.12,0,0,0,0,2.56,2.69,2.69,0,0,0,.79.95,6.48,6.48,0,0,0,2.33,1v3.51A2.55,2.55,0,0,1,35.34,30a2.38,2.38,0,0,1-.4-.5c0-.1-.09-.19-.13-.29s-.06-.21-.1-.31a.88.88,0,0,0-.76-.61.91.91,0,0,0-.87.47.9.9,0,0,0-.09.51,1.63,1.63,0,0,0,.07.3,2,2,0,0,0,.11.32A3.62,3.62,0,0,0,33.84,31,4.35,4.35,0,0,0,36,32.33l.46.11v1a.89.89,0,1,0,1.77,0v-.94a4.68,4.68,0,0,0,2.51-.89,3.19,3.19,0,0,0,.87-4.05Zm-5.15-2.34c-.21-.07-.4-.13-.57-.2a3.19,3.19,0,0,1-.58-.3,1,1,0,0,1-.39-.43,1.34,1.34,0,0,1-.07-.63,1.2,1.2,0,0,1,.21-.57,2.24,2.24,0,0,1,1.4-.8Zm3.58,4.54a2.27,2.27,0,0,1-1.81.95V27.51a6,6,0,0,1,1.23.43,1.79,1.79,0,0,1,.48.35,1.13,1.13,0,0,1,.24.49A1.47,1.47,0,0,1,40.05,29.79Z"/></g></svg>