<svg xmlns="http://www.w3.org/2000/svg" viewBox="0 0 50 50"><defs><style>.cls-1{fill:#2b2f32;}</style></defs><title>XOF</title><g id="Слой_154" data-name="Слой 154"><path class="cls-1" d="M20,30.39a6.9,6.9,0,1,1,0-9.11,1.12,1.12,0,0,1,.28.83,1.07,1.07,0,0,1-.39.76,1.09,1.09,0,0,1-.8.28,1.13,1.13,0,0,1-.78-.39,4.66,4.66,0,1,0,0,6.14,1.12,1.12,0,0,1,1.58-.11,1.16,1.16,0,0,1,.39.81A1.11,1.11,0,0,1,20,30.39Z"/><path class="cls-1" d="M29,26.67H24.49v4.95a1.13,1.13,0,0,1-1.13,1.12,1.11,1.11,0,0,1-1.13-1.12V20.06a1.12,1.12,0,0,1,1.13-1.13H30.9a1.12,1.12,0,1,1,0,2.24H24.49v3.27H29a1.12,1.12,0,1,1,0,2.23Z"/><path class="cls-1" d="M42.64,31.16l-5-11.55a1.13,1.13,0,0,0-1-.68,1.15,1.15,0,0,0-1.05.67L30.45,31.16a1.11,1.11,0,0,0,0,.86,1.13,1.13,0,0,0,2.08,0l1.19-2.73h5.67l1.21,2.72a1.09,1.09,0,0,0,1,.68,1.23,1.23,0,0,0,.44-.09h0a1.07,1.07,0,0,0,.59-.61A1.14,1.14,0,0,0,42.64,31.16ZM34.7,27.09l1.85-4.24,1.85,4.24Z"/></g></svg>