<svg xmlns="http://www.w3.org/2000/svg" viewBox="0 0 50 50"><defs><style>.cls-1{fill:#2b2f32;}</style></defs><title>YER</title><g id="Слой_156" data-name="Слой 156"><path class="cls-1" d="M21.24,18.78c.13,1.19.27,2.4.41,3.57l0,.17c.18,1.55.39,3.3.55,5a6.18,6.18,0,0,1-1.11,4.71,5.46,5.46,0,0,1-4,1.73c-.72.06-1.36.08-2,.08a16,16,0,0,1-2-.11,4.15,4.15,0,0,1-3-1.71,4.05,4.05,0,0,1-.56-3.31A12.17,12.17,0,0,1,11.23,25a.92.92,0,0,1,.54-.35.85.85,0,0,1,1,.66.85.85,0,0,1-.12.64,8.84,8.84,0,0,0-1.23,3A1.47,1.47,0,0,0,11.77,30,3.91,3.91,0,0,0,15,31.23h.62a8.34,8.34,0,0,0,.84,0c1.69-.16,2.71-.53,3.28-1.22a4.38,4.38,0,0,0,.57-3.27l-.09-.95A55.59,55.59,0,0,0,19.15,18l-.08-.31c-.33-1.36-.61-2.54.18-3.9a.43.43,0,0,1,.32-.22h.06a.44.44,0,0,1,.3.11l.42.39a3.94,3.94,0,0,0,.73.61,2.13,2.13,0,0,1,1.18,1.45,2.35,2.35,0,0,1-.9,1.89A1.19,1.19,0,0,0,21.24,18.78Z"/><path class="cls-1" d="M24.5,28.67c-.15-.88-.24-1.77-.33-2.63-.06-.63-.15-1.46-.26-2.22s-.24-1.45-.36-2.16l0-.07c-.2-1.14-.42-2.32-.53-3.5a3.22,3.22,0,0,1,.43-1.64c.09-.22.19-.43.26-.63a.43.43,0,0,1,.41-.3.44.44,0,0,1,.42.3,21.8,21.8,0,0,1,1,4c.07.81.18,2.23.3,3.75.1,1.17.2,2.38.28,3.42.06.72.39,1,1.21,1h.11c.69,0,1.43,0,2.31,0h3c-.05-.18-.08-.36-.12-.54a4.19,4.19,0,0,0-.57-1.69A2.53,2.53,0,0,1,32,22.29a.42.42,0,0,1,.31-.18h0a.43.43,0,0,1,.29.1c1.52,1.26,1.91,3.36,1.57,8.31a.45.45,0,0,1-.44.42H29.65c-1.13,0-2,0-2.89,0C25.54,30.9,24.73,30.1,24.5,28.67Z"/><path class="cls-1" d="M27.92,34.94a.41.41,0,0,1-.3.12.47.47,0,0,1-.33-.15l-1.38-1.6a.45.45,0,0,1,0-.62l1.38-1.25a.42.42,0,0,1,.3-.12.46.46,0,0,1,.34.16l1.14,1.35,0,0,1.39-1.28a.45.45,0,0,1,.63,0l1.36,1.55a.45.45,0,0,1,0,.62L31.1,35a.42.42,0,0,1-.3.12h-.05a.41.41,0,0,1-.29-.15l-1.14-1.31,0,0Z"/><path class="cls-1" d="M41,33.53c-1.78,2.56-3.49,4.31-6,4.47h-.28a10.54,10.54,0,0,1-3.53-.85h0c-.49-.18-1-.38-1.55-.52a.45.45,0,0,1-.32-.52.55.55,0,0,1,.64-.37l.37.07h.05l.28.06a10.93,10.93,0,0,0,1.48.26l.59,0c2.46,0,4.69-1.47,6.62-4.38a2.88,2.88,0,0,0-.42-3.61l-.18-.23,0,0-.21-.27c-.49-.61-1.19-1.49-1.82-2.21a1.32,1.32,0,0,1,.12-1.85,1.34,1.34,0,0,1,1.85.13c.86,1,1.8,2.18,2.17,2.65l.19.22a5.6,5.6,0,0,1,1.1,3.56A5.08,5.08,0,0,1,41,33.53Z"/></g></svg>