<svg xmlns="http://www.w3.org/2000/svg" viewBox="0 0 50 50"><defs><style>.cls-1,.cls-2{fill:#2b2f32;}.cls-2{stroke:#2b2f32;stroke-miterlimit:10;stroke-width:0.25px;}</style></defs><title>ZWL</title><g id="Слой_159" data-name="Слой 159"><path class="cls-1" d="M23,33.43H12.3a1.29,1.29,0,0,1-1.13-.7,1.23,1.23,0,0,1,.16-1.37l8.72-11.44H13a1.26,1.26,0,1,1,0-2.52h9.59a1.32,1.32,0,0,1,1.12.65,1.36,1.36,0,0,1-.08,1.37L14.86,30.88H23a1.28,1.28,0,0,1,0,2.55Z"/><path class="cls-2" d="M38.18,26.58c.08.15.15.28,0,0s-.08-.15,0,0a4.67,4.67,0,0,0-2.4-1.88,14.85,14.85,0,0,0-2-.58V19.75a3.62,3.62,0,0,1,1.58.62,2,2,0,0,1,.55.57,2,2,0,0,1,.18.36c0,.12.08.26.13.38a1.15,1.15,0,0,0,1,.74,1.19,1.19,0,0,0,1.1-.66,1.25,1.25,0,0,0,.09-.66,1.91,1.91,0,0,0-.11-.41,3.61,3.61,0,0,0-.16-.42A4.35,4.35,0,0,0,37.26,19a5.69,5.69,0,0,0-3-1.46l-.45-.07V16.15a1.14,1.14,0,0,0-1.91-.86,1.12,1.12,0,0,0-.39.86v1.27a5.8,5.8,0,0,0-3.11,1.38,4,4,0,0,0-1.29,3,4,4,0,0,0,.36,1.65,3.42,3.42,0,0,0,1,1.22,8.24,8.24,0,0,0,3,1.31V30.5A3.45,3.45,0,0,1,30,29.71a2.91,2.91,0,0,1-.68-1c-.05-.13-.08-.27-.12-.4a1.17,1.17,0,0,0-1-.78,1.15,1.15,0,0,0-1.12.61,1.13,1.13,0,0,0-.12.65,1.83,1.83,0,0,0,.09.39c0,.14.09.28.14.42A5.12,5.12,0,0,0,28.09,31a6.23,6.23,0,0,0,3.41,1.87v1.34a1.14,1.14,0,0,0,1.91.86,1.12,1.12,0,0,0,.39-.86V33a6,6,0,0,0,3.25-1.14A4.14,4.14,0,0,0,38.64,29,4.19,4.19,0,0,0,38.18,26.58Zm-6.68-3c-.27-.08-.52-.16-.74-.25a4.1,4.1,0,0,1-.75-.39,1.31,1.31,0,0,1-.51-.56,1.86,1.86,0,0,1-.09-.81,1.52,1.52,0,0,1,.28-.74,2.89,2.89,0,0,1,1.81-1Zm4.65,5.89a3,3,0,0,1-2.35,1.23V26.48a7.8,7.8,0,0,1,1.58.56,2.37,2.37,0,0,1,.63.46,1.34,1.34,0,0,1,.31.63A1.92,1.92,0,0,1,36.15,29.44Z"/></g></svg>