<svg xmlns="http://www.w3.org/2000/svg" viewBox="0 0 436 303"><defs><style>.cls-1{fill:#fff;}</style></defs><title>ACH logo white</title><g id="Слой_2" data-name="Слой 2"><path class="cls-1" d="M388.47,291.06H47.36a29.19,29.19,0,0,1-29.15-29.15V41.28A29.18,29.18,0,0,1,47.36,12.14H388.47a29.18,29.18,0,0,1,29.15,29.14V261.91A29.19,29.19,0,0,1,388.47,291.06ZM47.36,32.14a9.16,9.16,0,0,0-9.15,9.14V261.91a9.17,9.17,0,0,0,9.15,9.15H388.47a9.17,9.17,0,0,0,9.15-9.15V41.28a9.16,9.16,0,0,0-9.15-9.14Z"/><path class="cls-1" d="M206.73,107c-.79-5.7-4.5-9.3-10.11-9.08-21.73.82-38.94-8.25-53.51-23.58-4.58-4.82-10.7-4.9-15.55-.46C126.33,75,125.2,76.24,124,77.4,110.29,90.73,94.27,98.46,74.74,97.92c-7.38-.21-11.22,3.86-11.47,11.38a148.87,148.87,0,0,0,2,30.85q10.27,58.47,64.19,83.41a12.55,12.55,0,0,0,11.07.06,114.86,114.86,0,0,0,33.77-22.8c23.28-23.1,31.83-52,32.93-83.85C207.09,113.64,207.18,110.28,206.73,107Zm-46,55.42c-.57,9.14-5.86,15.72-15.31,18-3.31.78-4.21,2-4.22,5.2,0,4.11-2.64,6.45-6.66,6.4-3.15-.38-5.71-2.32-5.26-6.07.53-4.47-1.69-5.64-5.37-6.51a30.94,30.94,0,0,1-10.76-5.12c-3.73-2.64-4.66-6.22-2.53-9.43s6-4,9.63-1.56c5.71,3.86,11.76,6.22,18.74,5.58,3.47-.32,6.72-1.09,7.42-5.26s-2-6.07-5.4-7.16c-5.22-1.65-10.55-3-15.72-4.83-9.53-3.34-13.71-8.79-13.78-17.43s5-15.34,14.11-18.45c2.61-.89,3.86-1.94,3.58-4.85-.39-4.11,1.49-6.82,5.81-7.12,3.74-.27,6.27,2.49,6.2,7.34,0,3,1.08,4.13,3.79,4.58a26.67,26.67,0,0,1,8.77,3.5c4.38,2.5,5.7,5.88,3.8,9.44s-5.55,4.37-9.92,2.13-9-4.33-14.22-4c-3.48.23-6.79,1-7.49,5.14s2.13,6,5.52,7.08c5.22,1.67,10.57,3,15.71,4.87C157,147.47,161.24,153.52,160.69,162.42Z"/><path class="cls-1" d="M285.27,66.28a11.15,11.15,0,0,1,11.4,11.35,11.45,11.45,0,0,1-11.32,11.58,11.72,11.72,0,0,1-11.52-11.49A11.44,11.44,0,0,1,285.27,66.28Z"/><path class="cls-1" d="M331.67,77.52a11.29,11.29,0,0,1-11.15,11.69A11.44,11.44,0,0,1,309,77.82a11.33,11.33,0,1,1,22.65-.3Z"/><path class="cls-1" d="M366.68,77.75a11.26,11.26,0,0,1-11.32,11.46A11.57,11.57,0,0,1,344,77.59,11.2,11.2,0,0,1,355.5,66.28C362,66.3,366.7,71.15,366.68,77.75Z"/><path class="cls-1" d="M253.06,232.13l-2.48-7.21H230.83l-2.48,7.21H213.7L232.55,182h16.23l18.93,50.11Zm-12.39-37.34-6.39,18.86h12.77Z"/><path class="cls-1" d="M268.87,207.11c0-15.47,11.71-25.91,27.12-25.91,12.09,0,18.55,6.83,21.86,13.44l-11.12,5.26A12,12,0,0,0,296,192.61c-8.19,0-14,6.31-14,14.5s5.78,14.5,14,14.5a12,12,0,0,0,10.74-7.28l11.12,5.25C314.62,226,308.08,233,296,233,280.58,233,268.87,222.51,268.87,207.11Z"/><path class="cls-1" d="M357.16,232.13V212H336.35v20.13H323.43V182h12.92v18.71h20.81V182h12.93v50.11Z"/></g></svg>