<svg width="29" height="24" viewBox="0 0 29 24" fill="none" xmlns="http://www.w3.org/2000/svg">
<path d="M28.3864 8.61654C27.9009 7.99363 27.1694 7.63641 26.3796 7.63641H20.7633L15.1506 0.338687C14.9864 0.125136 14.7323 0 14.4628 0C14.1933 0 13.9392 0.125136 13.7749 0.338687L8.1623 7.63635H2.54569C1.75589 7.63635 1.0244 7.99362 0.538882 8.61648C0.0533656 9.23934 -0.11465 10.0359 0.0780539 10.8018L2.8672 21.8864C3.15222 23.019 4.16692 23.81 5.33479 23.81H23.5905C24.7583 23.81 25.773 23.019 26.0581 21.8863L28.8472 10.8018C29.04 10.036 28.872 9.23939 28.3864 8.61654ZM14.4628 2.29104L18.5738 7.63635H10.3517L14.4628 2.29104ZM27.1642 10.3784L24.3751 21.4629C24.2845 21.8231 23.9619 22.0746 23.5905 22.0746H5.33473C4.96339 22.0746 4.64075 21.8231 4.55013 21.463L1.76098 10.3784C1.69968 10.1348 1.75307 9.88157 1.90747 9.6835C2.06187 9.48543 2.2944 9.37182 2.54558 9.37182H26.3795C26.6307 9.37182 26.8632 9.48543 27.0176 9.6835C27.172 9.88157 27.2255 10.1348 27.1642 10.3784Z" fill="#FF550C"/>
<path d="M14.4629 12.292C12.5709 12.292 11.0317 13.8313 11.0317 15.7232C11.0317 17.6151 12.571 19.1543 14.4629 19.1543C16.3549 19.1543 17.8941 17.6151 17.8941 15.7232C17.8941 13.8313 16.3549 12.292 14.4629 12.292ZM14.4629 17.419C13.5279 17.419 12.7671 16.6583 12.7671 15.7232C12.7671 14.7882 13.5278 14.0275 14.4629 14.0275C15.3979 14.0275 16.1586 14.7882 16.1586 15.7233C16.1586 16.6583 15.3979 17.419 14.4629 17.419Z" fill="#FF550C"/>
</svg>
