<svg width="31" height="23" viewBox="0 0 31 23" fill="none" xmlns="http://www.w3.org/2000/svg">
<path d="M26.1777 14.7368C25.348 14.1724 24.2598 14.1724 23.4233 14.7368C23.0152 14.458 22.5391 14.3152 22.0494 14.3152C20.6892 14.3152 19.5942 15.417 19.5942 16.7704C19.5942 18.1238 20.6892 19.2324 22.0494 19.2324C22.5391 19.2324 23.0152 19.0896 23.4233 18.8107C24.5455 19.5724 26.0757 19.2732 26.8374 18.151C27.5992 17.0288 27.2999 15.4986 26.1777 14.7368ZM25.6268 17.4845C25.2392 17.947 24.5523 18.0082 24.0898 17.6205C24.0354 17.5797 23.9946 17.5321 23.947 17.4777C23.8177 17.3213 23.6205 17.2329 23.4233 17.2397C23.2192 17.2397 23.0288 17.3281 22.8996 17.4845C22.6955 17.7361 22.3827 17.8858 22.0562 17.879C21.4509 17.879 20.9545 17.3893 20.9545 16.784C20.9477 16.1719 21.4373 15.6822 22.0494 15.6822C22.3759 15.6822 22.6887 15.8318 22.8928 16.0835C23.1308 16.3759 23.5593 16.4235 23.8517 16.1855C23.8857 16.1583 23.9198 16.1243 23.9538 16.0835C24.3414 15.621 25.0283 15.5598 25.4908 15.9474C25.9533 16.3351 26.0145 17.022 25.6268 17.4845Z" fill="#FF550C" stroke="#FF550C" stroke-width="0.2"/>
<path d="M29.9728 8.96938C29.9728 8.90817 30 8.84016 30 8.77215C30 8.70414 29.9728 8.64293 29.9728 8.58172V7.12628C29.9728 5.52801 28.6602 4.2494 27.0619 4.2494H26.2322V3.42647C26.2322 1.82821 24.9604 0.508789 23.3621 0.508789H3.8837C2.28544 0.508789 1.00003 1.82821 1.00003 3.42647V15.3828C0.993226 16.9675 2.27864 18.2529 3.8633 18.2597C3.8701 18.2597 3.8769 18.2597 3.8837 18.2597H4.67263V19.0826C4.67943 20.6877 5.97164 21.9935 7.57671 22.0003H27.0619C28.667 21.9867 29.966 20.6877 29.9728 19.0826V12.1591C29.9728 12.0979 30 12.0299 30 11.9687C30 11.9075 29.9728 11.8395 29.9728 11.7782V8.96938ZM4.67263 7.12628V16.8995H3.8837C3.05397 16.9063 2.36705 16.2398 2.36025 15.41C2.36025 15.4032 2.36025 15.3964 2.36025 15.3896V3.42647C2.36025 2.58313 3.03356 1.86901 3.8837 1.86901H23.3689C24.219 1.86901 24.8788 2.58313 24.8788 3.42647V4.2494H7.57671C5.97845 4.2494 4.67263 5.52801 4.67263 7.12628ZM28.6126 19.0826C28.6058 19.9396 27.9189 20.6333 27.0619 20.6401H7.57671C6.71977 20.6333 6.03286 19.9396 6.03286 19.0826V12.6148H28.6126V19.0826ZM28.6126 11.2546H6.03286V9.48627H28.6126V11.2546ZM28.6194 8.12604H28.6126H6.03286V7.12628C6.03966 6.28294 6.72657 5.60283 7.57671 5.60963H7.58351H27.0687C27.9189 5.60963 28.6194 6.27614 28.6194 7.12628V8.12604Z" fill="#FF550C" stroke="#FF550C" stroke-width="0.2"/>
</svg>
