<svg xmlns="http://www.w3.org/2000/svg" viewBox="0 0 422.75 129.48">
  <defs>
    <style>.cls-1{fill:#fff;}.cls-2{fill:#fbfffe;}</style>
  </defs>
  <title>faster_pay_&amp;amp;_chaps</title>
  <g id="Слой_2" data-name="Слой 2">
    <g id="Слой_5" data-name="Слой 5">
      <path class="cls-1" d="M12.22,95.65h-1.6L9,104.6h1.56c3.69,0,5.34-1.92,5.34-5.52,0-2.27-1.25-3.43-3.7-3.43m-2.05,13.7h-2l-1.95,11.2H0L5.24,90.9h8.22c4.85,0,9,1.87,9,7.64,0,7.47-5,10.81-12.32,10.81"/>
      <path class="cls-1" d="M32.55,104.81c-2.29,0-4.55,3.83-4.55,8,0,2.17.51,3.45,1.57,3.45,1.83,0,4.43-4.17,5.41-9.62l.17-.93a3.56,3.56,0,0,0-2.6-.94m5.7,15.74H32.51l.51-3a6.26,6.26,0,0,1-5.7,3.41c-2.72,0-5.36-2.13-5.36-7.49,0-7.7,4.56-13.36,9.82-13.36,3,0,4.09,1.23,4.48,1.62l.21-1.19h5.32Z"/>
      <path class="cls-1" d="M54.28,119.32c-2.93,5.86-5.86,9.31-12.67,10.16L41,125.32c2.59-.81,5.23-2.13,6.68-5.07l.58-1.19-3.48-18.5h6.09l1.53,10.89,5-10.89h6.34Z"/>
      <path class="cls-1" d="M91.55,120.55H85.81l2.34-13.19c.16-.84.13-1.7-.85-1.7-1.79,0-5,4.26-5.87,9.36l-1,5.53H74.7l2.35-13.19c.16-.84.13-1.7-.85-1.7-1.79,0-5,4.26-5.88,9.36l-1,5.53H63.61l3.53-20h5.74l-.81,4.68c1.28-2.09,3.28-5.11,6.72-5.11,3.1,0,4.47,2,4.25,5.19,1.11-1.83,3.19-5.19,6.85-5.19s4.81,2.6,4.08,6.68Z"/>
      <path class="cls-1" d="M108.27,104.21c-1.79,0-3.49,2.26-4.17,5.5,3.78-.52,6.08-1.41,6.08-3.62a1.72,1.72,0,0,0-1.91-1.88M103.8,113c.09,2.21,1,3.32,2.94,3.32a11.79,11.79,0,0,0,5.91-2.13l1.57,3.74a13.61,13.61,0,0,1-8.29,3.07c-4.47,0-8-2.17-8-8.21,0-7,3.87-12.64,10.68-12.64,5.1,0,7.31,2.22,7.31,5.62,0,5.53-4.51,6.85-12.08,7.23"/>
      <path class="cls-1" d="M134.94,120.55H129.2l2.33-13.19c.18-.84.13-1.7-.84-1.7-1.79,0-5,4.26-5.87,9.36l-1,5.53h-5.75l3.53-20h5.75l-.81,4.68c1.28-2.09,3.27-5.11,6.72-5.11s4.8,2.6,4.09,6.68Z"/>
      <path class="cls-1" d="M152.81,104.81h-3l-1.74,9.87c-.18.85.12,1.27.76,1.27a3.62,3.62,0,0,0,1.62-.42l.59,4A8.59,8.59,0,0,1,146.3,121c-3,0-4.72-1.88-4-5.91l1.79-10.26H142l.76-4.25h2.13L146,96.22,151.57,95l-1,5.53h3Z"/>
      <path class="cls-1" d="M168.84,106.64a9.58,9.58,0,0,0-4.71-1.78c-1.2,0-2,.42-2,1.4s.9,1.28,2.09,1.78l1.1.47c2,.85,4.3,2.21,4.3,5.79,0,4.25-2.26,6.68-7.36,6.68a12.73,12.73,0,0,1-8.12-2.94l2.25-4a10.92,10.92,0,0,0,5.36,2.16c1.32,0,1.87-.46,1.87-1.44s-.94-1.41-2.13-1.88l-1.15-.46c-2-.81-4.21-2.17-4.21-5.71,0-4.59,3.54-6.63,8-6.63a10.72,10.72,0,0,1,6.8,2.55Z"/>
      <polygon class="cls-1" points="91.61 66.4 79.21 66.4 78.01 73.29 87.61 73.29 86.72 78.4 77.12 78.4 74.9 90.94 68.67 90.94 73.92 61.29 92.55 61.29 91.61 66.4"/>
      <path class="cls-1" d="M99.45,75.2c-2.3,0-4.55,3.83-4.55,8,0,2.17.51,3.44,1.57,3.44,1.83,0,4.43-4.16,5.4-9.61l.18-.93a3.56,3.56,0,0,0-2.6-.94m5.7,15.74H99.41l.51-3a6.27,6.27,0,0,1-5.7,3.4c-2.72,0-5.36-2.12-5.36-7.48,0-7.7,4.55-13.36,9.82-13.36,3,0,4.09,1.24,4.47,1.62l.22-1.19h5.31Z"/>
      <path class="cls-1" d="M124.6,77a9.63,9.63,0,0,0-4.72-1.79c-1.2,0-2,.43-2,1.4s.9,1.28,2.09,1.79l1.1.47c2,.85,4.3,2.21,4.3,5.78,0,4.26-2.25,6.68-7.36,6.68a12.82,12.82,0,0,1-8.12-2.93l2.26-4a10.78,10.78,0,0,0,5.35,2.17c1.31,0,1.87-.46,1.87-1.44s-.93-1.41-2.12-1.88l-1.15-.46c-2-.81-4.21-2.17-4.21-5.7,0-4.6,3.53-6.64,8-6.64a10.78,10.78,0,0,1,6.81,2.55Z"/>
      <path class="cls-1" d="M140.55,75.2h-3l-1.75,9.87c-.16.85.13,1.28.77,1.28a3.76,3.76,0,0,0,1.62-.43l.59,4A8.51,8.51,0,0,1,134,91.36c-3,0-4.73-1.87-4-5.91l1.79-10.25H129.7l.76-4.25h2.13l1.19-4.34,5.53-1.2-1,5.54h3Z"/>
      <path class="cls-1" d="M152.58,74.6c-1.78,0-3.49,2.26-4.16,5.49,3.78-.51,6.08-1.4,6.08-3.61a1.72,1.72,0,0,0-1.92-1.88m-4.46,8.77c.08,2.21,1,3.31,2.94,3.31A11.78,11.78,0,0,0,157,84.56l1.57,3.74a13.64,13.64,0,0,1-8.29,3.06c-4.47,0-8-2.16-8-8.2,0-7,3.87-12.64,10.68-12.64,5.1,0,7.31,2.21,7.31,5.62,0,5.53-4.51,6.84-12.08,7.23"/>
      <path class="cls-1" d="M176.45,76.73c-2.89,0-6.22,2.47-7.32,8.68l-1,5.53h-5.74l3.53-20h5.62l-.72,4.22c1.31-3,2.84-4.64,6.72-4.64Z"/>
      <path class="cls-1" d="M8.32,86.46a3.56,3.56,0,0,1-2.73-1.08c-1-1-1.66-3,.46-6.78l13.7-24.34a22.69,22.69,0,0,0,2.86-11,22.57,22.57,0,0,0-2.87-11L6.05,7.86C3.93,4.1,4.63,2.1,5.59,1.08s2.91-1.83,6.79,0L87.24,37.39c3.9,1.9,4.49,4.4,4.5,5.73v.21c0,1.35-.6,3.86-4.5,5.74L12.38,85.33A9.59,9.59,0,0,1,8.32,86.46ZM8.73,4a8.29,8.29,0,0,0,.8,1.86l13.7,24.34a26.66,26.66,0,0,1,3.38,13,26.76,26.76,0,0,1-3.37,13L9.53,80.56a8.29,8.29,0,0,0-.8,1.86,7.77,7.77,0,0,0,1.9-.69L85.5,45.47c1.65-.8,2.24-1.66,2.24-2.15v-.19c0-.48-.59-1.34-2.25-2.14L10.63,4.73A7.35,7.35,0,0,0,8.73,4Z"/>
      <path class="cls-1" d="M414.34,52.11h-188l.34-2.29c.72-4.85,1.47-9.67,2.23-14.34,1-5.85,1.29-7.59,2.13-10A32.74,32.74,0,0,1,237.65,14c7.06-7.52,17.22-8.38,21.26-8.4H422.75ZM231,48.11H411l7-38.49h-159c-3.51,0-12.36.75-18.36,7.14a28.9,28.9,0,0,0-5.78,10.09c-.69,1.95-1,3.34-1.95,9.27C232.19,40,231.56,44.06,231,48.11Z"/>
      <path class="cls-1" d="M378.81,124.8H212.63l14.44-76.69H414.91l-.35,2.3c-.53,3.59-1.34,8.88-2.35,15.28-1.88,11.92-2.76,17.4-3.83,22.42-2.81,13.09-4.22,19.66-8.31,24.89a33.91,33.91,0,0,1-15,10.66A17.65,17.65,0,0,1,378.81,124.8Zm-161.36-4H378.81a13.64,13.64,0,0,0,4.87-.88,30,30,0,0,0,13.24-9.38c3.52-4.51,4.87-10.78,7.55-23.27,1-4.91,1.92-10.36,3.79-22.21.81-5.13,1.49-9.55,2-13H230.38Z"/>
      <path class="cls-2" d="M364.18,44a.72.72,0,0,1-.91-1.06c.93-1.42,1.77-2.54,2.43-3.36,2.12-2.67,3.33-3.6,4.62-6.14a12.48,12.48,0,0,0,1.51-4.32c.26-2-.19-3.65-1.11-6.94C370,19.49,369.63,19,368.81,16c-.26-1-.48-1.83-.66-2.58a.73.73,0,0,1,1.05-.82l28.55,14.78a.74.74,0,0,1,0,1.32Z"/>
      <path class="cls-2" d="M240.68,90.13c0-12,8.29-21.52,18.95-21.52a10.62,10.62,0,0,1,9.48,5.53L264,78c-1.32-2-2.8-3-4.75-3-6.07,0-10.89,6.94-10.89,14.7,0,5.4,2.18,8.75,7.43,8.75a9.8,9.8,0,0,0,6-2.64l3.15,4.68a16.4,16.4,0,0,1-10.76,4.29C246,104.72,240.68,99.26,240.68,90.13Z"/>
      <path class="cls-2" d="M276,69.25h7.28l-2.74,13.52h10.27l2.65-13.52h7.26l-6.89,34.83h-7.26l3-14.89H279.28l-2.9,14.89h-7.27Z"/>
      <path class="cls-2" d="M316.36,69.25h8.42l3.46,34.83h-7.4L320,85.2c-.17-3.43-.29-6.79-.43-10.36h-.21c-1.42,3.44-2.78,6.83-4.26,10.33l-8.11,18.91h-7.75ZM308.82,89.8h15.31l-1.19,5.54H307.57Z"/>
      <path class="cls-2" d="M339.79,69.25h9.5c6,0,10.59,2.53,10.59,9.24,0,9.73-6.4,13.5-14,13.5h-3.6l-2.13,12.09h-6.45Zm6.43,16.93c4.62,0,7.19-2.27,7.19-6.61,0-3.12-1.83-4.52-5.23-4.52h-3l-1.91,11.13Z"/>
      <path class="cls-2" d="M360.75,97.91l4.59-4.16c1.89,3,4.5,4.68,7.69,4.68s5.16-1.38,5.16-3.85c0-2-1.48-3.13-3.87-4.61L371.21,88c-3-1.88-5.6-4.78-5.6-9.27,0-6.17,5-10.15,11.41-10.15a13.59,13.59,0,0,1,11.11,5.8l-4.49,4A8.61,8.61,0,0,0,377,74.81c-2.3,0-4.08,1.27-4.08,3.42,0,1.79,1.35,2.91,3.16,4.1l3.61,2.39c3.26,2.2,5.76,4.61,5.76,9.29,0,7-5.44,10.71-12.2,10.71A13.81,13.81,0,0,1,360.75,97.91Z"/>
    </g>
  </g>
</svg>