<svg width="23" height="25" viewBox="0 0 23 25" fill="none" xmlns="http://www.w3.org/2000/svg">
<path d="M14.9507 24.0909H3.40529C2.0795 24.0909 1 23.0123 1 21.6856V7.2538C1 5.92704 2.0795 4.84851 3.40529 4.84851H14.9507C16.2765 4.84851 17.356 5.92704 17.356 7.2538V21.6856C17.356 23.0123 16.2765 24.0909 14.9507 24.0909ZM3.40529 5.81063C2.60962 5.81063 1.96212 6.45813 1.96212 7.2538V21.6856C1.96212 22.4812 2.60962 23.1287 3.40529 23.1287H14.9507C15.7464 23.1287 16.3939 22.4812 16.3939 21.6856V7.2538C16.3939 6.45813 15.7464 5.81063 14.9507 5.81063H3.40529Z" fill="#0119EE" stroke="#0119EE" stroke-width="0.5"/>
<path d="M18.822 21.2045H19.7842C21.11 21.2045 22.1895 20.1259 22.1895 18.7992V3.40529C22.1895 2.07853 21.11 1 19.7842 1H8.23875C6.91296 1 5.83346 2.07853 5.83346 3.40529C5.83346 3.67084 6.04897 3.88635 6.31452 3.88635C6.58006 3.88635 6.79558 3.67084 6.79558 3.40529C6.79558 2.60962 7.44308 1.96212 8.23875 1.96212H19.7842C20.5798 1.96212 21.2273 2.60962 21.2273 3.40529V18.7992C21.2273 19.5948 20.5798 20.2423 19.7842 20.2423H18.822C18.5565 20.2423 18.341 20.4579 18.341 20.7234C18.341 20.9889 18.5565 21.2045 18.822 21.2045Z" fill="#0119EE" stroke="#0119EE" stroke-width="0.5"/>
<path d="M13.0266 17.356H5.32969C5.06415 17.356 4.84863 17.1405 4.84863 16.875C4.84863 16.6094 5.06415 16.3939 5.32969 16.3939H13.0266C13.2922 16.3939 13.5077 16.6094 13.5077 16.875C13.5077 17.1405 13.2922 17.356 13.0266 17.356Z" fill="#0119EE" stroke="#0119EE" stroke-width="0.5"/>
<path d="M13.0266 21.2044H5.32969C5.06415 21.2044 4.84863 20.9889 4.84863 20.7234C4.84863 20.4578 5.06415 20.2423 5.32969 20.2423H13.0266C13.2922 20.2423 13.5077 20.4578 13.5077 20.7234C13.5077 20.9889 13.2922 21.2044 13.0266 21.2044Z" fill="#0119EE" stroke="#0119EE" stroke-width="0.5"/>
<path d="M13.0266 13.5075H5.32969C5.06415 13.5075 4.84863 13.292 4.84863 13.0265C4.84863 12.7609 5.06415 12.5454 5.32969 12.5454H13.0266C13.2922 12.5454 13.5077 12.7609 13.5077 13.0265C13.5077 13.292 13.2922 13.5075 13.0266 13.5075Z" fill="#0119EE" stroke="#0119EE" stroke-width="0.5"/>
<path d="M13.0266 9.65902H5.32969C5.06415 9.65902 4.84863 9.4435 4.84863 9.17796C4.84863 8.91241 5.06415 8.6969 5.32969 8.6969H13.0266C13.2922 8.6969 13.5077 8.91241 13.5077 9.17796C13.5077 9.4435 13.2922 9.65902 13.0266 9.65902Z" fill="#0119EE" stroke="#0119EE" stroke-width="0.5"/>
</svg>
