<svg width="23" height="24" viewBox="0 0 23 24" fill="none" xmlns="http://www.w3.org/2000/svg">
<path d="M19.7797 0C19.3063 0 18.9225 0.383755 18.9225 0.857158V3.98827C14.5096 -0.284062 7.46889 -0.170055 3.19656 4.2428C1.18312 6.32248 0.0598756 9.1053 0.0654503 12C0.0654503 12.4734 0.449205 12.8571 0.922608 12.8571C1.39601 12.8571 1.77972 12.4734 1.77972 12C1.78077 6.79272 6.00287 2.57223 11.2102 2.57328C13.8548 2.57378 16.3775 3.68497 18.1631 5.63568L14.366 6.90166C13.9163 7.05127 13.673 7.53708 13.8226 7.98678C13.9722 8.43648 14.458 8.67981 14.9077 8.53019L20.0506 6.81593C20.4016 6.69901 20.638 6.36995 20.6369 5.99995V0.857107C20.6368 0.383755 20.2531 0 19.7797 0Z" fill="#BBC2CB"/>
<path d="M21.4941 11.1426C21.0207 11.1426 20.637 11.5263 20.637 11.9997C20.6359 17.207 16.4138 21.4275 11.2065 21.4264C8.56192 21.4259 6.03916 20.3147 4.25353 18.364L8.05064 17.098C8.50034 16.9484 8.74367 16.4626 8.59406 16.0129C8.44444 15.5632 7.95864 15.3199 7.50894 15.4695L2.36609 17.1838C2.01503 17.3007 1.77863 17.6297 1.77979 17.9997V23.1426C1.77979 23.616 2.16354 23.9997 2.63695 23.9997C3.11035 23.9997 3.4941 23.616 3.4941 23.1426V20.0114C7.90701 24.2838 14.9478 24.1698 19.2201 19.7569C21.2335 17.6772 22.3567 14.8944 22.3512 11.9997C22.3513 11.5263 21.9675 11.1426 21.4941 11.1426Z" fill="#BBC2CB"/>
</svg>
