<svg xmlns="http://www.w3.org/2000/svg" viewBox="0 0 807 196"><defs><style>.cls-1{fill:#fff;}</style></defs><title>fedwire logo white</title><g id="Слой_2" data-name="Слой 2"><path class="cls-1" d="M105.58,91.56H45.91v23.38H97.82V132.5H45.91v41.37H19V73h86.58Z"/><path class="cls-1" d="M160.6,176c-27.42,0-45.53-15.3-45.53-38.25,0-22.67,18.8-39.11,44.67-39.11,26.91,0,44,16.16,44,41.8v2H139.91c.34,12.61,7.76,19.41,20.87,19.41,9,0,14.48-3.26,18.11-10.62h23.45C196.82,167.07,180.78,176,160.6,176Zm-.86-62.76c-10.86,0-18.45,6.23-19.83,16.43h39C177.85,120.75,172,113.24,159.74,113.24Z"/><path class="cls-1" d="M281.34,173.87v-9.35c-5.87,7.51-14.66,11.34-26.91,11.34-24.66,0-40.36-15.16-40.36-38.82,0-23.09,15.35-38.25,39-38.25,10.52,0,21.39,3.54,27.08,11V73h24.32V173.87Zm-21.56-59.22c-13.28,0-21,8.36-21,22.39s7.93,22.67,21,22.67c13.45,0,21.21-8.22,21.21-22.53S273.06,114.65,259.78,114.65Z"/><path class="cls-1" d="M340.67,100.77l16.56,49.73,15-49.73h23.62l15.53,49.44,16.55-49.44h25l-28.11,73.1H399.66l-15.87-49.16-15.35,49.16H343.09l-28.46-73.1Z"/><path class="cls-1" d="M488.66,90H464.17V73h24.49Zm0,83.87H464.17v-73.1h24.49Z"/><path class="cls-1" d="M565.76,118.05a53.38,53.38,0,0,0-9.49-.85c-16.9,0-23.45,9.92-23.45,23.24v33.43h-24.5v-73.1h23.29v13.46c5.52-9.49,15.52-15.16,28.8-15.16a40.08,40.08,0,0,1,5.35.42Z"/><path class="cls-1" d="M613.88,176c-27.42,0-45.53-15.3-45.53-38.25,0-22.67,18.8-39.11,44.67-39.11,26.9,0,44,16.16,44,41.8v2H593.18c.35,12.61,7.77,19.41,20.87,19.41,9,0,14.49-3.26,18.11-10.62h23.46C650.1,167.07,634.06,176,613.88,176ZM613,113.24c-10.87,0-18.46,6.23-19.84,16.43h39C631.13,120.75,625.26,113.24,613,113.24Z"/></g><g id="Слой_3" data-name="Слой 3"><path class="cls-1" d="M754,19H703.54L654.85,68.17l48,51.13h51.76l48-51.13ZM729.06,44.86Q741.53,57.49,754,70.13L728.82,94.35,703.54,70.13Z"/></g></svg>