<svg xmlns="http://www.w3.org/2000/svg" viewBox="0 0 166.45 152.76">
  <defs>
    <style>.cls-1{fill:#fff;}</style>
  </defs>
  <title>omnipay_eco</title>
  <g id="Слой_2" data-name="Слой 2">
    <g id="Слой_8" data-name="Слой 8">
      <path class="cls-1" d="M1.79,56.44A1.8,1.8,0,0,1,0,54.64V34.94A15.28,15.28,0,0,1,15.28,19.69H48.77a1.8,1.8,0,0,1,0,3.59H15.28A11.69,11.69,0,0,0,3.59,34.94v19.7A1.8,1.8,0,0,1,1.79,56.44Z"/>
      <path class="cls-1" d="M164.65,60.44a1.79,1.79,0,0,1-1.79-1.79V34.94a11.69,11.69,0,0,0-11.69-11.66H121.52a1.8,1.8,0,1,1,0-3.59h29.65a15.29,15.29,0,0,1,15.28,15.25V58.65A1.8,1.8,0,0,1,164.65,60.44Z"/>
      <path class="cls-1" d="M151.17,152.76H15.28A15.28,15.28,0,0,1,0,137.52V54.64a1.8,1.8,0,0,1,3.59,0v82.88a11.68,11.68,0,0,0,11.69,11.65H151.17a11.68,11.68,0,0,0,11.69-11.65V58.65a1.8,1.8,0,0,1,3.59,0v78.87A15.28,15.28,0,0,1,151.17,152.76Z"/>
      <path class="cls-1" d="M1.79,130.35A1.79,1.79,0,0,1,0,128.56V56.8A15.28,15.28,0,0,1,15.28,41.55H41.35a1.8,1.8,0,1,1,0,3.59H15.28A11.69,11.69,0,0,0,3.59,56.8v71.76A1.79,1.79,0,0,1,1.79,130.35Z"/>
      <path class="cls-1" d="M164.65,129.67a1.8,1.8,0,0,1-1.79-1.8V56.8a11.69,11.69,0,0,0-11.69-11.66h-22.6a1.8,1.8,0,0,1,0-3.59h22.6A15.29,15.29,0,0,1,166.45,56.8v71.07A1.81,1.81,0,0,1,164.65,129.67Z"/>
      <path class="cls-1" d="M85,89.51a44.76,44.76,0,1,1,44.76-44.75A44.79,44.79,0,0,1,85,89.51ZM85,3.59a41.17,41.17,0,1,0,41.17,41.17A41.22,41.22,0,0,0,85,3.59Z"/>
      <path class="cls-1" d="M11,62.21a1.79,1.79,0,0,1-1.79-1.8V55.86a1.8,1.8,0,0,1,3.59,0v4.55A1.79,1.79,0,0,1,11,62.21Z"/>
      <path class="cls-1" d="M18.72,54.79H14.16a1.8,1.8,0,0,1,0-3.59h4.56a1.8,1.8,0,1,1,0,3.59Z"/>
      <path class="cls-1" d="M28.72,54.79H24.15a1.8,1.8,0,0,1,0-3.59h4.57a1.8,1.8,0,0,1,0,3.59Z"/>
      <path class="cls-1" d="M11,80.85a1.79,1.79,0,0,1-1.79-1.79V74.51a1.8,1.8,0,1,1,3.59,0v4.55A1.79,1.79,0,0,1,11,80.85Z"/>
      <path class="cls-1" d="M11,71.53a1.79,1.79,0,0,1-1.79-1.79V65.18a1.8,1.8,0,0,1,3.59,0v4.56A1.79,1.79,0,0,1,11,71.53Z"/>
      <path class="cls-1" d="M11,90.7a1.79,1.79,0,0,1-1.79-1.79V84.36a1.8,1.8,0,1,1,3.59,0v4.55A1.79,1.79,0,0,1,11,90.7Z"/>
      <path class="cls-1" d="M11,109.35a1.8,1.8,0,0,1-1.79-1.8V103a1.8,1.8,0,0,1,3.59,0v4.55A1.8,1.8,0,0,1,11,109.35Z"/>
      <path class="cls-1" d="M11,100a1.79,1.79,0,0,1-1.79-1.79V93.68a1.8,1.8,0,1,1,3.59,0v4.55A1.79,1.79,0,0,1,11,100Z"/>
      <path class="cls-1" d="M11,120a1.79,1.79,0,0,1-1.79-1.79v-4.55a1.8,1.8,0,1,1,3.59,0v4.55A1.79,1.79,0,0,1,11,120Z"/>
      <path class="cls-1" d="M11,138.67a1.8,1.8,0,0,1-1.79-1.8v-4.55a1.8,1.8,0,0,1,3.59,0v4.55A1.8,1.8,0,0,1,11,138.67Z"/>
      <path class="cls-1" d="M11,129.34a1.79,1.79,0,0,1-1.79-1.79V123a1.8,1.8,0,1,1,3.59,0v4.55A1.79,1.79,0,0,1,11,129.34Z"/>
      <path class="cls-1" d="M154.82,71.62a1.8,1.8,0,0,1-1.79-1.8V65.27a1.8,1.8,0,0,1,3.59,0v4.55A1.81,1.81,0,0,1,154.82,71.62Z"/>
      <path class="cls-1" d="M154.82,62.3A1.8,1.8,0,0,1,153,60.5V56a1.8,1.8,0,1,1,3.59,0V60.5A1.81,1.81,0,0,1,154.82,62.3Z"/>
      <path class="cls-1" d="M151.63,54.88h-4.57a1.8,1.8,0,0,1,0-3.59h4.57a1.8,1.8,0,0,1,0,3.59Z"/>
      <path class="cls-1" d="M141.64,54.88h-4.57a1.8,1.8,0,0,1,0-3.59h4.57a1.8,1.8,0,0,1,0,3.59Z"/>
      <path class="cls-1" d="M154.82,80.94a1.8,1.8,0,0,1-1.79-1.8V74.59a1.8,1.8,0,0,1,3.59,0v4.55A1.81,1.81,0,0,1,154.82,80.94Z"/>
      <path class="cls-1" d="M154.82,100A1.79,1.79,0,0,1,153,98.23V93.68a1.8,1.8,0,1,1,3.59,0v4.55A1.8,1.8,0,0,1,154.82,100Z"/>
      <path class="cls-1" d="M154.82,90.7A1.79,1.79,0,0,1,153,88.91V84.36a1.8,1.8,0,1,1,3.59,0v4.55A1.8,1.8,0,0,1,154.82,90.7Z"/>
      <path class="cls-1" d="M154.82,109.35a1.8,1.8,0,0,1-1.79-1.8V103a1.8,1.8,0,0,1,3.59,0v4.55A1.81,1.81,0,0,1,154.82,109.35Z"/>
      <path class="cls-1" d="M154.82,128.12a1.79,1.79,0,0,1-1.79-1.79v-4.55a1.8,1.8,0,1,1,3.59,0v4.55A1.8,1.8,0,0,1,154.82,128.12Z"/>
      <path class="cls-1" d="M154.82,118.8A1.79,1.79,0,0,1,153,117v-4.55a1.8,1.8,0,1,1,3.59,0V117A1.8,1.8,0,0,1,154.82,118.8Z"/>
      <path class="cls-1" d="M154.82,137.44a1.79,1.79,0,0,1-1.79-1.79V131.1a1.8,1.8,0,1,1,3.59,0v4.55A1.8,1.8,0,0,1,154.82,137.44Z"/>
      <path class="cls-1" d="M85.26,17.46a26.28,26.28,0,0,0-9.68,50.72l0-25.24a9.65,9.65,0,1,1,2.86,7.71V69.16a26.3,26.3,0,0,0,32.8-22A26.29,26.29,0,0,0,105,26.43a26.33,26.33,0,0,0-19.73-9Z"/>
    </g>
  </g>
</svg>