<svg id="Layer_1" data-name="Layer 1" xmlns="http://www.w3.org/2000/svg" viewBox="0 0 311.81 113.39"><defs><style>.cls-1{fill:#364b78;}.cls-2{fill:#4d71bb;}</style></defs><title>sepa</title><path class="cls-1" d="M5.17,102.24l3.1-.31a3.77,3.77,0,0,0,1.13,2.3,3.41,3.41,0,0,0,2.3.73,3.51,3.51,0,0,0,2.32-.65,1.93,1.93,0,0,0,.78-1.52,1.45,1.45,0,0,0-.33-1,2.62,2.62,0,0,0-1.14-.68c-.37-.13-1.22-.36-2.54-.68a8.55,8.55,0,0,1-3.58-1.56,4.08,4.08,0,0,1-1.44-3.16,4,4,0,0,1,.68-2.24,4.29,4.29,0,0,1,2-1.6,8,8,0,0,1,3.1-.54A6.62,6.62,0,0,1,16,92.67a4.61,4.61,0,0,1,1.58,3.48l-3.19.12a2.68,2.68,0,0,0-.88-1.74,3.15,3.15,0,0,0-2-.54,3.63,3.63,0,0,0-2.17.57,1.14,1.14,0,0,0-.5,1,1.21,1.21,0,0,0,.47,1,8.57,8.57,0,0,0,2.92,1,15.27,15.27,0,0,1,3.43,1.13,4.48,4.48,0,0,1,1.74,1.6A4.8,4.8,0,0,1,18,102.8a4.65,4.65,0,0,1-.75,2.54,4.47,4.47,0,0,1-2.13,1.76,8.77,8.77,0,0,1-3.43.58,6.79,6.79,0,0,1-4.59-1.39A6.07,6.07,0,0,1,5.17,102.24Z"/><path class="cls-1" d="M21.29,94.43V91.65h3v2.78Zm0,13V96h3V107.4Z"/><path class="cls-1" d="M38.46,107.4h-3v-5.83a9,9,0,0,0-.19-2.4A1.7,1.7,0,0,0,33.57,98a2.44,2.44,0,0,0-1.4.43,2.18,2.18,0,0,0-.85,1.15,10,10,0,0,0-.23,2.62v5.18h-3V96h2.81v1.68a4.65,4.65,0,0,1,5.59-1.6,3.14,3.14,0,0,1,1.25.92,3.44,3.44,0,0,1,.59,1.27,9.66,9.66,0,0,1,.16,2Z"/><path class="cls-1" d="M41.88,108.15l3.43.37a1.28,1.28,0,0,0,.4.88,2.18,2.18,0,0,0,1.36.34,3.61,3.61,0,0,0,1.78-.35,1.41,1.41,0,0,0,.6-.76,4.45,4.45,0,0,0,.14-1.39v-1.67a4,4,0,0,1-3.4,1.83,4.22,4.22,0,0,1-3.65-2,6.62,6.62,0,0,1-1-3.83,6.3,6.3,0,0,1,1.38-4.39,4.47,4.47,0,0,1,3.44-1.52,4.17,4.17,0,0,1,3.49,1.86V96h2.82v10.26a10.28,10.28,0,0,1-.34,3,3.71,3.71,0,0,1-.93,1.57,4.15,4.15,0,0,1-1.61.89,8.31,8.31,0,0,1-2.55.33,6.54,6.54,0,0,1-4.12-1,3.12,3.12,0,0,1-1.21-2.53C41.87,108.42,41.87,108.29,41.88,108.15Zm2.71-6.7a4.22,4.22,0,0,0,.7,2.67A2.16,2.16,0,0,0,47,105a2.37,2.37,0,0,0,1.86-.87,3.8,3.8,0,0,0,.76-2.56,4,4,0,0,0-.73-2.64A2.27,2.27,0,0,0,47.07,98a2.23,2.23,0,0,0-1.78.85A4,4,0,0,0,44.59,101.45Z"/><path class="cls-1" d="M56.26,107.4V91.65h3V107.4Z"/><path class="cls-1" d="M69.68,103.81l3,.5a4.92,4.92,0,0,1-1.83,2.51,5.49,5.49,0,0,1-3.15.86,5.13,5.13,0,0,1-4.42-2,6.59,6.59,0,0,1-1.13-4,6.36,6.36,0,0,1,1.49-4.46,4.9,4.9,0,0,1,3.76-1.61,5.11,5.11,0,0,1,4,1.69q1.47,1.69,1.41,5.19H65.25a3,3,0,0,0,.73,2.09,2.32,2.32,0,0,0,1.76.75,1.94,1.94,0,0,0,1.21-.38A2.37,2.37,0,0,0,69.68,103.81Zm.16-3.07a3,3,0,0,0-.68-2,2.16,2.16,0,0,0-3.22,0,2.83,2.83,0,0,0-.64,2Z"/><path class="cls-1" d="M82.76,107.4V91.65H94.41v2.66H86v3.5h7.87v2.65H86v4.28h8.78v2.66Z"/><path class="cls-1" d="M105.56,107.4v-1.71a4.65,4.65,0,0,1-3.79,2,4.18,4.18,0,0,1-2.07-.51,2.93,2.93,0,0,1-1.32-1.42,6.18,6.18,0,0,1-.41-2.52V96h3v5.25a14.87,14.87,0,0,0,.16,3,1.69,1.69,0,0,0,.61.86,1.9,1.9,0,0,0,1.12.32,2.34,2.34,0,0,0,1.39-.43,2.13,2.13,0,0,0,.84-1,12.39,12.39,0,0,0,.22-3.08V96h3V107.4Z"/><path class="cls-1" d="M115,107.4h-3V96h2.82v1.63a5.06,5.06,0,0,1,1.29-1.53,2.36,2.36,0,0,1,1.31-.38,3.84,3.84,0,0,1,2,.57l-.92,2.64a2.75,2.75,0,0,0-1.43-.49,1.73,1.73,0,0,0-1.08.35,2.4,2.4,0,0,0-.69,1.26,17.72,17.72,0,0,0-.26,3.83Z"/><path class="cls-1" d="M120.63,101.53a6.27,6.27,0,0,1,.74-2.92,5.13,5.13,0,0,1,2.1-2.15,6.2,6.2,0,0,1,3-.75,5.69,5.69,0,0,1,4.25,1.69,5.84,5.84,0,0,1,1.65,4.26,5.92,5.92,0,0,1-1.67,4.31,5.64,5.64,0,0,1-4.21,1.71,6.67,6.67,0,0,1-3-.71,4.87,4.87,0,0,1-2.17-2.09A7,7,0,0,1,120.63,101.53Zm3.09.17a3.81,3.81,0,0,0,.81,2.61,2.66,2.66,0,0,0,4,0,3.89,3.89,0,0,0,.8-2.64,3.78,3.78,0,0,0-.8-2.58,2.64,2.64,0,0,0-4,0A3.78,3.78,0,0,0,123.72,101.7Z"/><path class="cls-1" d="M142.28,107.4V91.65h5.1a18.31,18.31,0,0,1,3.79.24,4.1,4.1,0,0,1,2.26,1.54,4.88,4.88,0,0,1,.92,3.07,5.18,5.18,0,0,1-.53,2.44,4.43,4.43,0,0,1-1.34,1.55,4.72,4.72,0,0,1-1.64.75,18.32,18.32,0,0,1-3.3.22h-2.07v5.94Zm3.19-13.09v4.5h1.74a8.24,8.24,0,0,0,2.5-.25,2.12,2.12,0,0,0,1-.78,2.25,2.25,0,0,0,.35-1.24,2,2,0,0,0-.5-1.42,2.22,2.22,0,0,0-1.27-.71,15.88,15.88,0,0,0-2.29-.1Z"/><path class="cls-1" d="M159.8,99.46l-2.71-.5a4.2,4.2,0,0,1,1.59-2.45,5.81,5.81,0,0,1,3.35-.8,7.2,7.2,0,0,1,3,.48,3,3,0,0,1,1.39,1.22,6.17,6.17,0,0,1,.41,2.7l0,3.53a12,12,0,0,0,.15,2.23,7.06,7.06,0,0,0,.54,1.53h-3c-.08-.2-.17-.49-.29-.88a2.5,2.5,0,0,0-.11-.35,5.34,5.34,0,0,1-1.65,1.13,4.75,4.75,0,0,1-1.88.38,3.86,3.86,0,0,1-2.77-1,3.17,3.17,0,0,1-1-2.42,3.36,3.36,0,0,1,.46-1.73,3.06,3.06,0,0,1,1.3-1.16,10.63,10.63,0,0,1,2.4-.71,16.25,16.25,0,0,0,2.94-.74v-.3a1.59,1.59,0,0,0-.44-1.26A2.55,2.55,0,0,0,161.8,98a2.17,2.17,0,0,0-1.26.32A2.31,2.31,0,0,0,159.8,99.46Zm4.07,2.47c-.39.13-1,.28-1.84.46a5.67,5.67,0,0,0-1.64.53,1.28,1.28,0,0,0-.59,1.07,1.47,1.47,0,0,0,.48,1.1,1.63,1.63,0,0,0,1.2.47A2.58,2.58,0,0,0,163,105a2,2,0,0,0,.72-1,5.93,5.93,0,0,0,.12-1.48Z"/><path class="cls-1" d="M169,96h3.22l2.73,8.1,2.68-8.1h3.12l-4,11-.73,2a8.49,8.49,0,0,1-.76,1.52,3.25,3.25,0,0,1-.83.86,3.58,3.58,0,0,1-1.15.51,5.67,5.67,0,0,1-1.55.19,7.53,7.53,0,0,1-1.71-.19l-.28-2.36a7,7,0,0,0,1.29.14,1.89,1.89,0,0,0,1.56-.63,4.22,4.22,0,0,0,.78-1.59Z"/><path class="cls-1" d="M183.13,96h2.78v1.56a4.48,4.48,0,0,1,3.56-1.84,3.85,3.85,0,0,1,1.91.45,3.51,3.51,0,0,1,1.33,1.37,5.25,5.25,0,0,1,1.62-1.37,4,4,0,0,1,1.86-.45,4.15,4.15,0,0,1,2.13.51,3.11,3.11,0,0,1,1.31,1.5,6.73,6.73,0,0,1,.31,2.37v7.31h-3v-6.53a5,5,0,0,0-.31-2.2,1.44,1.44,0,0,0-1.29-.65,2,2,0,0,0-1.19.39,2.1,2.1,0,0,0-.81,1.14,8.3,8.3,0,0,0-.25,2.36v5.49h-3v-6.26a8.66,8.66,0,0,0-.16-2.16,1.38,1.38,0,0,0-.5-.72,1.55,1.55,0,0,0-.92-.24,2.19,2.19,0,0,0-1.25.38,2.05,2.05,0,0,0-.8,1.09,8.11,8.11,0,0,0-.24,2.35v5.56h-3Z"/><path class="cls-1" d="M210.22,103.81l3,.5a4.94,4.94,0,0,1-1.84,2.51,5.43,5.43,0,0,1-3.14.86,5.13,5.13,0,0,1-4.42-2,6.59,6.59,0,0,1-1.13-4,6.36,6.36,0,0,1,1.49-4.46,4.9,4.9,0,0,1,3.76-1.61,5.11,5.11,0,0,1,4,1.69q1.47,1.69,1.41,5.19h-7.59a3,3,0,0,0,.73,2.09,2.32,2.32,0,0,0,1.76.75,1.89,1.89,0,0,0,1.2-.38A2.32,2.32,0,0,0,210.22,103.81Zm.16-3.07a3,3,0,0,0-.68-2,2.16,2.16,0,0,0-3.22,0,2.78,2.78,0,0,0-.64,2Z"/><path class="cls-1" d="M226.87,107.4h-3v-5.83a8.89,8.89,0,0,0-.2-2.4,1.61,1.61,0,0,0-.62-.84A1.74,1.74,0,0,0,222,98a2.49,2.49,0,0,0-1.4.43,2.23,2.23,0,0,0-.85,1.15,10,10,0,0,0-.23,2.62v5.18h-3V96h2.81v1.68a4.65,4.65,0,0,1,5.59-1.6,3.07,3.07,0,0,1,1.25.92,3.44,3.44,0,0,1,.59,1.27,9.54,9.54,0,0,1,.17,2Z"/><path class="cls-1" d="M235.81,96V98.4h-2.06V103a11.47,11.47,0,0,0,.06,1.64.62.62,0,0,0,.26.38.82.82,0,0,0,.5.15,3.83,3.83,0,0,0,1.19-.29l.27,2.34a6,6,0,0,1-2.37.45,3.81,3.81,0,0,1-1.47-.27,2.28,2.28,0,0,1-1-.71,2.91,2.91,0,0,1-.42-1.18,16,16,0,0,1-.09-2.14v-5h-1.38V96h1.38V93.71l3-1.78V96Z"/><path class="cls-1" d="M237.52,104.18l3-.47a2.23,2.23,0,0,0,.78,1.33,2.65,2.65,0,0,0,1.65.45,3,3,0,0,0,1.76-.43,1,1,0,0,0,.4-.81.77.77,0,0,0-.22-.57,2.3,2.3,0,0,0-1-.4,16.68,16.68,0,0,1-4.66-1.48,3,3,0,0,1-1.36-2.58,3.17,3.17,0,0,1,1.18-2.5,5.52,5.52,0,0,1,3.65-1,6.38,6.38,0,0,1,3.5.76,3.91,3.91,0,0,1,1.58,2.24l-2.85.53a1.74,1.74,0,0,0-.7-1,2.62,2.62,0,0,0-1.47-.35,3.38,3.38,0,0,0-1.73.33.74.74,0,0,0-.35.62.66.66,0,0,0,.3.55,11.59,11.59,0,0,0,2.84.86,8.24,8.24,0,0,1,3.38,1.35,2.81,2.81,0,0,1,.95,2.25,3.49,3.49,0,0,1-1.31,2.72,5.81,5.81,0,0,1-3.88,1.13,6.38,6.38,0,0,1-3.69-.94A4.32,4.32,0,0,1,237.52,104.18Z"/><path class="cls-1" d="M272.46,107.4H269l-1.36-3.56h-6.35L260,107.4h-3.37l6.1-15.75h3.35Zm-5.84-6.22-2.2-5.84-2.13,5.84Z"/><path class="cls-1" d="M277.67,107.4h-3V96h2.81v1.63a4.92,4.92,0,0,1,1.3-1.53,2.31,2.31,0,0,1,1.3-.38,3.84,3.84,0,0,1,2,.57l-.92,2.64a2.75,2.75,0,0,0-1.42-.49,1.69,1.69,0,0,0-1.08.35,2.34,2.34,0,0,0-.7,1.26,18,18,0,0,0-.25,3.83Z"/><path class="cls-1" d="M290.64,103.81l3,.5a4.94,4.94,0,0,1-1.84,2.51,5.45,5.45,0,0,1-3.14.86,5.13,5.13,0,0,1-4.42-2,6.59,6.59,0,0,1-1.13-4,6.31,6.31,0,0,1,1.49-4.46,4.9,4.9,0,0,1,3.76-1.61,5.07,5.07,0,0,1,4,1.69q1.49,1.69,1.42,5.19h-7.6a3,3,0,0,0,.74,2.09,2.32,2.32,0,0,0,1.76.75,1.91,1.91,0,0,0,1.2-.38A2.38,2.38,0,0,0,290.64,103.81Zm.16-3.07a3,3,0,0,0-.68-2,2.17,2.17,0,0,0-3.23,0,2.82,2.82,0,0,0-.63,2Z"/><path class="cls-1" d="M299.13,99.46l-2.72-.5A4.3,4.3,0,0,1,298,96.51a5.81,5.81,0,0,1,3.35-.8,7.17,7.17,0,0,1,3,.48,3,3,0,0,1,1.4,1.22,6.2,6.2,0,0,1,.4,2.7l0,3.53a13.13,13.13,0,0,0,.14,2.23,6.63,6.63,0,0,0,.55,1.53h-3a9,9,0,0,1-.29-.88c0-.18-.09-.29-.11-.35a5.59,5.59,0,0,1-1.65,1.13,4.78,4.78,0,0,1-1.88.38,3.88,3.88,0,0,1-2.78-1,3.2,3.2,0,0,1-1-2.42,3.27,3.27,0,0,1,.46-1.73,3.09,3.09,0,0,1,1.29-1.16,10.58,10.58,0,0,1,2.41-.71,15.85,15.85,0,0,0,2.93-.74v-.3a1.59,1.59,0,0,0-.43-1.26,2.57,2.57,0,0,0-1.63-.38,2.23,2.23,0,0,0-1.27.32A2.3,2.3,0,0,0,299.13,99.46Zm4.06,2.47c-.39.13-1,.28-1.83.46a5.45,5.45,0,0,0-1.64.53,1.26,1.26,0,0,0-.59,1.07,1.5,1.5,0,0,0,.47,1.1,1.63,1.63,0,0,0,1.2.47,2.63,2.63,0,0,0,1.56-.54,1.91,1.91,0,0,0,.71-1,5.93,5.93,0,0,0,.12-1.48Z"/><path class="cls-1" d="M72.11,29.76H51.47q0-5.09-1.19-6.81-1.85-2.58-10.17-2.57-8.09,0-10.7,1.48c-1.74,1-2.62,3.14-2.62,6.45,0,3,.78,5,2.32,5.93a9.61,9.61,0,0,0,4.4,1.18l4.17.3q13.38.89,16.71,1.24Q65,38,69.73,42.59a14.85,14.85,0,0,1,4.46,9.3,64.49,64.49,0,0,1,.42,7.76q0,10-1.9,14.58Q69.26,82.7,57.21,85a91.42,91.42,0,0,1-15.43,1q-17.34,0-24.16-2.07-8.37-2.55-11-10.3Q5.09,69.21,5.09,59.16H25.73v1.71q0,5.37,3.08,6.91A12.32,12.32,0,0,0,34,68.9h7.59q5.8,0,7.41-.6a6,6,0,0,0,3.74-3.61,13.92,13.92,0,0,0,.47-4q0-5.44-4-6.63-1.49-.48-13.8-1.31-9.9-.7-13.75-1.36Q11.52,49.54,8.15,43.62q-3-5-3-15.21A39.32,39.32,0,0,1,6.79,16,13.59,13.59,0,0,1,12,8.88Q17.18,5.15,25.31,4.5q6.77-.6,15-.6,13,0,18.51,1.49Q72.32,9,72.3,25.67C72.3,26.58,72.24,27.94,72.11,29.76Z"/><path class="cls-1" d="M162.86,85.9V3.47h41.33q8.51,0,13,1.39a20.11,20.11,0,0,1,13.69,13.08q1.82,5.19,1.81,15.62,0,12.54-2,18-4,10.85-16.35,12.48-1.45.24-12.37.42l-3.68.12H185V85.9ZM185,45.49h13.84c4.38-.16,7.05-.49,8-1q2-1.08,2.63-4.33a36.37,36.37,0,0,0,.42-6.43A26.51,26.51,0,0,0,209.1,26q-1.2-3.54-5.74-4.32c-.6-.08-2-.12-4.3-.12H185Z"/><path class="cls-1" d="M280,71.65H250.36l-4,14.25h-23L248.19,3.47h33.46L306.72,85.9H284.25Zm-4.41-16.06L265.22,19.86,255.13,55.59Z"/><path class="cls-2" d="M132.24,15.06a29.19,29.19,0,0,1,22.69,10.82l4.78-10.25A42,42,0,0,0,92.25,29.7H82.93L77.42,41.51h12c-.09,1.09-.15,2.19-.15,3.31,0,1.35.07,2.69.2,4h-6l-5.51,11.8h14.6a41.6,41.6,0,0,0,38.28,24.8,42,42,0,0,0,23.38-7V63.92a29.18,29.18,0,0,1-46.42-3.29h30.57l5.51-11.8H103.29a29.8,29.8,0,0,1-.33-4.35c0-1,.06-2,.15-3h44.16l5.51-11.81H106.93A29.24,29.24,0,0,1,132.24,15.06Z"/><path class="cls-2" d="M132.24,15.42a28.75,28.75,0,0,1,22.41,10.69l.36.43.24-.51L160,15.78l.11-.23-.19-.18a42.62,42.62,0,0,0-52.86-4.31A41,41,0,0,0,91.93,29.57l.32-.22H82.7l-.09.2L77.1,41.36l-.23.5H89.42l-.35-.38c-.11,1.22-.15,2.31-.15,3.34a39.59,39.59,0,0,0,.2,4l.35-.39H83.22l-.09.21-5.51,11.8-.23.51H92.54l-.33-.22a41.9,41.9,0,0,0,38.61,25,42.39,42.39,0,0,0,23.58-7.09l.15-.11V63l-.61.71a28.84,28.84,0,0,1-45.86-3.25l-.3.55h30.8l.09-.2L144.18,49l.24-.51H103.29l.35.31a29.74,29.74,0,0,1-.32-4.3,28.94,28.94,0,0,1,.15-2.94l-.36.32H147.5l.09-.2,5.51-11.81.24-.5H106.93l.31.53A29,29,0,0,1,132.24,15.42ZM106.93,30.06h45.85l-.32-.51L147,41.36l.32-.21H102.79l0,.33a30,30,0,0,0-.15,3,31,31,0,0,0,.32,4.4l0,.3h40.88l-.32-.5L138,60.48l.32-.2H107.13l.36.55a29.54,29.54,0,0,0,47,3.32l-.62-.23V78.39l.15-.29a41.67,41.67,0,0,1-23.18,7A41.16,41.16,0,0,1,92.87,60.49l-.1-.21H77.94l.32.51L83.77,49l-.32.2h6.41l0-.39a38.14,38.14,0,0,1-.21-4c0-1,0-2.08.15-3.28l0-.39H77.42l.32.51,5.51-11.81-.32.21h9.56l.09-.22a40.44,40.44,0,0,1,14.9-18.2,41.93,41.93,0,0,1,52,4.25l-.08-.41-4.77,10.25.59-.07a29.55,29.55,0,0,0-48.58,3.87l-.31.53Z"/></svg>