<svg width="26" height="26" viewBox="0 0 26 26" fill="none" xmlns="http://www.w3.org/2000/svg">
<path d="M23.5938 13.9364H23.125V10.6552C23.125 9.36163 22.2167 8.27695 21.0045 8.00357L18.871 4.30823C18.5583 3.76668 18.0535 3.37926 17.4494 3.2174C17.0229 3.10316 16.5831 3.11155 16.1707 3.23605L14.6193 1.68463C13.7064 0.771836 12.2212 0.771742 11.3083 1.68463L5.05661 7.93645H3.71875C2.21964 7.93645 1 9.15609 1 10.6552V22.2802C1 23.7793 2.21964 24.9989 3.71875 24.9989H9.95312C10.212 24.9989 10.4219 24.789 10.4219 24.5302C10.4219 24.2714 10.212 24.0614 9.95312 24.0614H3.71875C2.73658 24.0614 1.9375 23.2624 1.9375 22.2802V10.6552C1.9375 9.67302 2.73658 8.87395 3.71875 8.87395H20.4062C21.3884 8.87395 22.1875 9.67302 22.1875 10.6552V13.9364H18.7188C17.323 13.9364 16.1875 15.072 16.1875 16.4677C16.1875 17.8634 17.323 18.9989 18.7188 18.9989H22.1875V22.2802C22.1875 23.2624 21.3884 24.0614 20.4062 24.0614H14.1719C13.913 24.0614 13.7031 24.2714 13.7031 24.5302C13.7031 24.789 13.913 24.9989 14.1719 24.9989H20.4062C21.9054 24.9989 23.125 23.7793 23.125 22.2802V18.9989H23.5938C24.3692 18.9989 25 18.3681 25 17.5927V15.3427C25 14.5673 24.3692 13.9364 23.5938 13.9364ZM17.2067 4.12298C17.5689 4.22001 17.8716 4.45227 18.0591 4.77698L19.8832 7.93645H9.77936L16.1416 4.26318C16.4663 4.07577 16.8445 4.0259 17.2067 4.12298ZM11.9713 2.34759C12.2364 2.08246 12.5889 1.93645 12.9638 1.93645C13.3388 1.93645 13.6913 2.08246 13.9564 2.34759L15.2844 3.6756L7.90441 7.93645H6.38247L11.9713 2.34759ZM24.0625 17.5927C24.0625 17.8512 23.8522 18.0614 23.5938 18.0614H18.7188C17.8399 18.0614 17.125 17.3465 17.125 16.4677C17.125 15.5889 17.8399 14.8739 18.7188 14.8739H23.5938C23.8522 14.8739 24.0625 15.0842 24.0625 15.3427V17.5927Z" fill="#BBC2CB" stroke="#BBC2CB" stroke-width="0.7"/>
<path d="M18.6411 15.999C18.5178 15.999 18.3969 16.0491 18.3097 16.1364C18.2225 16.2236 18.1724 16.344 18.1724 16.4678C18.1724 16.5911 18.2225 16.712 18.3097 16.7991C18.3969 16.8863 18.5178 16.9365 18.6411 16.9365C18.7649 16.9365 18.8853 16.8864 18.9725 16.7991C19.0601 16.712 19.1099 16.5911 19.1099 16.4678C19.1099 16.3445 19.0601 16.2236 18.9725 16.1364C18.8853 16.0492 18.7649 15.999 18.6411 15.999Z" fill="#BBC2CB" stroke="#BBC2CB" stroke-width="0.7"/>
<path d="M12.063 24.0615C11.9397 24.0615 11.8188 24.1116 11.7316 24.1989C11.6444 24.2861 11.5942 24.407 11.5942 24.5303C11.5942 24.6536 11.6443 24.7745 11.7316 24.8616C11.8188 24.9488 11.9397 24.999 12.063 24.999C12.1863 24.999 12.3072 24.9489 12.3943 24.8616C12.4815 24.7745 12.5317 24.6536 12.5317 24.5303C12.5317 24.407 12.4816 24.2861 12.3943 24.1989C12.3072 24.1117 12.1863 24.0615 12.063 24.0615Z" fill="#BBC2CB" stroke="#BBC2CB" stroke-width="0.7"/>
</svg>
