<svg width="40" height="40" viewBox="0 0 40 40" fill="none" xmlns="http://www.w3.org/2000/svg">
<path d="M17.7876 18.9355C20.0085 18.9355 21.9315 18.1389 23.5031 16.5673C25.0742 14.9959 25.871 13.0732 25.871 10.852C25.871 8.63154 25.0745 6.70862 23.5028 5.13673C21.9312 3.56561 20.0083 2.76904 17.7876 2.76904C15.5663 2.76904 13.6437 3.56561 12.0723 5.13699C10.5009 6.70836 9.7041 8.63129 9.7041 10.852C9.7041 13.0732 10.5009 14.9962 12.0723 16.5675C13.6442 18.1386 15.5671 18.9355 17.7876 18.9355ZM13.4632 6.52759C14.6689 5.32185 16.0833 4.73576 17.7876 4.73576C19.4916 4.73576 20.9063 5.32185 22.1122 6.52759C23.318 7.73358 23.9043 9.14825 23.9043 10.852C23.9043 12.5563 23.318 13.9707 22.1122 15.1767C20.9063 16.3827 19.4916 16.9688 17.7876 16.9688C16.0838 16.9688 14.6694 16.3824 13.4632 15.1767C12.2572 13.9709 11.6708 12.5563 11.6708 10.852C11.6708 9.14825 12.2572 7.73358 13.4632 6.52759Z" fill="#BBC2CB"/>
<path d="M31.9321 29.8664C31.8868 29.2125 31.7952 28.4991 31.6602 27.7458C31.524 26.9869 31.3486 26.2695 31.1387 25.6137C30.9215 24.936 30.6268 24.2666 30.2619 23.6252C29.8838 22.9595 29.4393 22.3798 28.9405 21.9028C28.4189 21.4038 27.7803 21.0025 27.0419 20.7099C26.306 20.4187 25.4905 20.2713 24.6181 20.2713C24.2755 20.2713 23.9442 20.4118 23.3043 20.8284C22.9105 21.0852 22.4499 21.3822 21.9357 21.7108C21.4961 21.9909 20.9005 22.2533 20.1649 22.4909C19.4472 22.7232 18.7185 22.841 17.999 22.841C17.28 22.841 16.5513 22.7232 15.8331 22.4909C15.0982 22.2536 14.5024 21.9911 14.0635 21.711C13.5542 21.3856 13.0933 21.0886 12.6936 20.8282C12.0543 20.4116 11.723 20.271 11.3804 20.271C10.5077 20.271 9.69248 20.4187 8.95686 20.7101C8.21892 21.0023 7.58008 21.4035 7.058 21.9031C6.55921 22.3803 6.11471 22.9598 5.73678 23.6252C5.37242 24.2666 5.07745 24.9357 4.86033 25.614C4.65062 26.2697 4.47523 26.9869 4.33901 27.7458C4.20382 28.4981 4.11241 29.2117 4.06708 29.8672C4.02253 30.5081 4 31.1751 4 31.849C4 33.6009 4.55691 35.0192 5.6551 36.0651C6.73973 37.0973 8.17463 37.6206 9.92011 37.6206H26.0799C27.8249 37.6206 29.2598 37.0973 30.3446 36.0651C31.4431 35.0199 32 33.6012 32 31.8488C31.9997 31.1725 31.977 30.5055 31.9321 29.8664ZM28.9886 34.6402C28.2719 35.3223 27.3204 35.6539 26.0796 35.6539H9.92011C8.67904 35.6539 7.72756 35.3223 7.01114 34.6405C6.30828 33.9714 5.96671 33.0581 5.96671 31.849C5.96671 31.2202 5.98745 30.5993 6.02893 30.0032C6.06939 29.4184 6.15209 28.7759 6.27474 28.0933C6.39585 27.4191 6.54999 26.7864 6.73332 26.2136C6.90923 25.6644 7.14915 25.1206 7.44668 24.5967C7.73064 24.0974 8.05735 23.669 8.41787 23.3239C8.75509 23.001 9.18013 22.7367 9.68096 22.5386C10.1442 22.3552 10.6647 22.2549 11.2298 22.2398C11.2987 22.2764 11.4213 22.3463 11.62 22.4758C12.0243 22.7393 12.4903 23.0399 13.0055 23.3689C13.5862 23.7392 14.3344 24.0736 15.2283 24.3621C16.1421 24.6576 17.0741 24.8077 17.9992 24.8077C18.9243 24.8077 19.8566 24.6576 20.7699 24.3624C21.6646 24.0733 22.4125 23.7392 22.994 23.3684C23.5212 23.0315 23.9741 22.7396 24.3784 22.4758C24.5771 22.3465 24.6998 22.2764 24.7687 22.2398C25.334 22.2549 25.8546 22.3552 26.318 22.5386C26.8186 22.7367 27.2436 23.0012 27.5808 23.3239C27.9414 23.6688 28.2681 24.0971 28.552 24.5969C28.8498 25.1206 29.09 25.6647 29.2656 26.2134C29.4492 26.7869 29.6036 27.4194 29.7245 28.093C29.8469 28.7769 29.9298 29.4196 29.9703 30.0034V30.0039C30.012 30.5977 30.033 31.2184 30.0333 31.849C30.033 33.0583 29.6915 33.9714 28.9886 34.6402Z" fill="#BBC2CB"/>
</svg>
