<svg width="23" height="24" viewBox="0 0 23 24" fill="none" xmlns="http://www.w3.org/2000/svg">
    <path d="M19.7796 0C19.3061 0 18.9224 0.383755 18.9224 0.857158V3.98827C14.5095 -0.284062 7.46876 -0.170055 3.19644 4.2428C1.18299 6.32248 0.0597535 9.1053 0.0653283 12C0.0653283 12.4734 0.449083 12.8571 0.922486 12.8571C1.39589 12.8571 1.77959 12.4734 1.77959 12C1.78065 6.79272 6.00275 2.57223 11.21 2.57328C13.8546 2.57378 16.3774 3.68497 18.163 5.63568L14.3659 6.90166C13.9162 7.05127 13.6729 7.53708 13.8225 7.98678C13.9721 8.43648 14.4579 8.67981 14.9076 8.53019L20.0505 6.81593C20.4015 6.69901 20.6379 6.36995 20.6368 5.99995V0.857107C20.6367 0.383755 20.253 0 19.7796 0Z" fill="#BBC2CB"/>
    <path d="M21.4939 11.1428C21.0205 11.1428 20.6367 11.5266 20.6367 12C20.6357 17.2072 16.4136 21.4277 11.2063 21.4267C8.56167 21.4262 6.03892 20.315 4.25328 18.3642L8.0504 17.0983C8.5001 16.9487 8.74343 16.4629 8.59381 16.0132C8.4442 15.5635 7.95839 15.3201 7.50869 15.4697L2.36585 17.184C2.01479 17.3009 1.77839 17.63 1.77955 18V23.1428C1.77955 23.6162 2.1633 24 2.6367 24C3.11011 24 3.49386 23.6162 3.49386 23.1428V20.0117C7.90676 24.284 14.9475 24.17 19.2198 19.7571C21.2333 17.6774 22.3565 14.8946 22.3509 12C22.351 11.5266 21.9673 11.1428 21.4939 11.1428Z" fill="#BBC2CB"/>
</svg>
