<svg width="25" height="25" viewBox="0 0 25 25" fill="none" xmlns="http://www.w3.org/2000/svg">
<path d="M21.7637 6.02263V2.67469C21.7637 1.75125 21.0128 1 20.0898 1C19.184 1 18.4443 1.72241 18.4158 2.62105C16.7087 4.05648 13.5595 5.52598 10.6588 5.69014V5.16833C10.6588 4.28946 9.94406 3.57439 9.06562 3.57439H6.5678C5.68935 3.57439 4.97469 4.28946 4.97469 5.16833V5.73802C2.73997 6.00033 1 7.9063 1 10.2124C1 12.5186 2.73997 14.4246 4.97469 14.6869V15.2566C4.97469 15.9506 5.42046 16.542 6.04046 16.7603V24.0449C6.04046 24.3361 6.2766 24.5723 6.5678 24.5723H7.81745C8.79646 24.5723 9.59296 23.7747 9.59296 22.7944V16.7604C10.213 16.5421 10.6588 15.9506 10.6588 15.2566V14.7348C13.5596 14.899 16.7087 16.3685 18.4158 17.8039C18.4443 18.7025 19.184 19.4249 20.0898 19.4249C21.0128 19.4249 21.7637 18.6737 21.7637 17.7502V14.4023C23.3791 13.6532 24.4409 12.0141 24.4409 10.2125C24.4409 8.41087 23.3791 6.77172 21.7637 6.02263ZM8.78797 13.6642H6.84555V6.76075H8.78797V13.6642ZM6.02938 5.16833C6.02938 4.87097 6.27091 4.62907 6.5678 4.62907H9.06562C9.36251 4.62907 9.60409 4.87097 9.60409 5.16833V5.70607H6.02938V5.16833ZM2.05469 10.2124C2.05469 8.30914 3.60118 6.76075 5.50204 6.76075H5.79086V13.6642H5.50204C3.60118 13.6642 2.05469 12.1157 2.05469 10.2124ZM8.53827 22.7944C8.53827 23.1932 8.21491 23.5176 7.81745 23.5176H7.09514V16.8505H8.53827V22.7944ZM9.60409 15.2566C9.60409 15.5539 9.36251 15.7958 9.06562 15.7958H6.5678C6.27091 15.7958 6.02938 15.5539 6.02938 15.2566V14.7188H9.60409V15.2566ZM20.709 17.7502C20.709 18.0921 20.4312 18.3702 20.0898 18.3702C19.7476 18.3702 19.4691 18.0921 19.4691 17.7502V12.5819C19.4691 12.2907 19.233 12.0546 18.9418 12.0546C18.6506 12.0546 18.4144 12.2907 18.4144 12.5819V16.4713C16.3355 14.9862 13.108 13.6642 10.1314 13.6642H9.8426V6.76075H10.1314C13.1079 6.76075 16.3356 5.4387 18.4144 3.95355V7.84292C18.4144 8.13412 18.6506 8.37026 18.9418 8.37026C19.233 8.37026 19.4691 8.13412 19.4691 7.84292V2.67469C19.4691 2.33286 19.7475 2.05469 20.0898 2.05469C20.4313 2.05469 20.709 2.33281 20.709 2.67469V6.374V14.0509V17.7502ZM21.7637 13.2V7.22492C22.7575 7.87282 23.3862 8.99458 23.3862 10.2124C23.3862 11.4303 22.7575 12.5521 21.7637 13.2Z" fill="#0119EE" stroke="#0119EE" stroke-width="0.3"/>
<path d="M18.9419 9.68506C18.6507 9.68506 18.4146 9.9212 18.4146 10.2124V10.2154C18.4146 10.5066 18.6507 10.7413 18.9419 10.7413C19.2331 10.7413 19.4692 10.5037 19.4692 10.2125C19.4692 9.92126 19.2331 9.68506 18.9419 9.68506Z" fill="#0119EE" stroke="#0119EE" stroke-width="0.3"/>
</svg>
