<svg width="26" height="26" viewBox="0 0 26 26" fill="none" xmlns="http://www.w3.org/2000/svg">
<path d="M24.9584 6.68446C24.8169 6.1617 24.342 5.79905 23.8004 5.8001H21.566L16.8831 1.11721C16.7269 0.961054 16.4737 0.961054 16.3175 1.11721L13.4002 4.03446L12.083 2.71724C11.9268 2.56108 11.6736 2.56108 11.5174 2.71724L8.43454 5.8001H4.70047L4.27766 2.06883C4.21196 1.45961 3.69685 0.998305 3.08404 1H1.40001C1.1791 1 1 1.17911 1 1.40001C1 1.62092 1.1791 1.80002 1.40001 1.80002H3.08404C3.28924 1.79882 3.4621 1.95317 3.48405 2.15723L5.72409 21.9316C5.78974 22.5402 6.30395 23.0013 6.91611 23.0004H7.43612C7.65573 24.3061 8.89215 25.1865 10.1978 24.9669C11.2053 24.7974 11.9948 24.008 12.1642 23.0004H14.6363C14.8572 24.3074 16.0958 25.1878 17.4028 24.9669C18.7097 24.746 19.5902 23.5074 19.3693 22.2004C19.1483 20.8934 17.9097 20.013 16.6027 20.2339C15.5956 20.4042 14.8065 21.1932 14.6363 22.2004H12.1642C11.9446 20.8948 10.7082 20.0144 9.40256 20.234C8.39499 20.4034 7.60558 21.1928 7.43612 22.2004H6.91611C6.71091 22.2016 6.53806 22.0473 6.51611 21.8432L6.2401 19.4004H19.9968C20.532 19.3986 21.002 19.0441 21.1508 18.5299L24.1156 8.15294C24.7539 7.98019 25.1312 7.32273 24.9584 6.68446ZM17.0003 21.0004C17.884 21.0004 18.6003 21.7168 18.6003 22.6004C18.6003 23.4841 17.884 24.2005 17.0003 24.2005C16.1166 24.2005 15.4003 23.4841 15.4003 22.6004C15.4003 21.7168 16.1166 21.0004 17.0003 21.0004ZM9.80017 21.0004C10.6838 21.0004 11.4002 21.7168 11.4002 22.6004C11.4002 23.4841 10.6838 24.2005 9.80017 24.2005C8.9165 24.2005 8.20014 23.4841 8.20014 22.6004C8.20014 21.7168 8.9165 21.0004 9.80017 21.0004ZM16.6003 1.96562L20.4348 5.8001H15.1659L13.9658 4.60007L16.6003 1.96562ZM11.8002 3.56565L14.0346 5.8001H9.56576L11.8002 3.56565ZM20.3816 18.3099C20.3326 18.4818 20.1755 18.6004 19.9968 18.6003H6.1501L4.97208 8.20014H23.27L20.3816 18.3099ZM23.8004 7.40013H4.88007L4.79007 6.60011H23.8004C24.0213 6.60011 24.2004 6.77922 24.2004 7.00012C24.2004 7.22102 24.0214 7.40013 23.8004 7.40013Z" fill="#BBC2CB" stroke="#BBC2CB" stroke-width="0.5"/>
<path d="M6.99962 17.7998H16.9998C17.2207 17.7998 17.3998 17.6207 17.3998 17.3998C17.3998 17.1789 17.2207 16.9998 16.9998 16.9998H6.99962C6.77871 16.9998 6.59961 17.1789 6.59961 17.3998C6.59961 17.6207 6.77871 17.7998 6.99962 17.7998Z" fill="#BBC2CB" stroke="#BBC2CB" stroke-width="0.5"/>
<path d="M18.6002 17.7998H19.4002C19.6211 17.7998 19.8002 17.6207 19.8002 17.3998C19.8002 17.1789 19.6211 16.9998 19.4002 16.9998H18.6002C18.3793 16.9998 18.2002 17.1789 18.2002 17.3998C18.2002 17.6207 18.3793 17.7998 18.6002 17.7998Z" fill="#BBC2CB" stroke="#BBC2CB" stroke-width="0.5"/>
</svg>
