<svg id="Слой_1" data-name="Слой 1" 
  xmlns="http://www.w3.org/2000/svg" viewBox="0 0 50 50">
  <defs>
    <style>.cls-1{fill:#fff;}</style>
  </defs>
  <title>bitcoin</title>
  <path class="cls-1" d="M28.19,18.52a4.9,4.9,0,0,0-1-.26l-1.82-.4-.9,4.36c.91.18,1.63.35,2.12.48a3,3,0,0,0,1.07.16,2.51,2.51,0,0,0,1.49-.75,2,2,0,0,0,.26-2.59A2.6,2.6,0,0,0,28.19,18.52Z"/>
  <path class="cls-1" d="M28.56,26.77a3,3,0,0,0-.74-.37,12.93,12.93,0,0,0-1.49-.48c-.62-.13-1.46-.32-2.5-.51L22.76,30c.91.27,1.69.46,2.29.59a7.5,7.5,0,0,0,1.76.21,3.07,3.07,0,0,0,1-.1A1.75,1.75,0,0,0,29.25,29a2.33,2.33,0,0,0,0-1.23A2.18,2.18,0,0,0,28.56,26.77Z"/>
  <path class="cls-1" d="M25,0A25,25,0,1,0,50,25,25,25,0,0,0,25,0Zm7.27,25.12a4.31,4.31,0,0,1,.9.69,4,4,0,0,1,.8,1,4.13,4.13,0,0,1,.48,1.76A5.17,5.17,0,0,1,34.09,31a4.69,4.69,0,0,1-1.33,1.87,5.43,5.43,0,0,1-2.34,1,10.44,10.44,0,0,1-4.52-.06l-.74,4.1L23,37.48l.85-4L21.7,33l-1,4-2-.42.79-4-4.73-1.06.85-2.45,2.45.59L21,16.42l-3.24-.63.47-2,5,1.06.92-4.22,2.07.42-.9,4.1,2.12.42.91-4,2.18.43-.85,4.14a7.86,7.86,0,0,1,1.65.43,5.06,5.06,0,0,1,2,1.17,4.37,4.37,0,0,1,1.28,2.87,4.65,4.65,0,0,1-.16,1.7,3.43,3.43,0,0,1-.69,1.39,3.23,3.23,0,0,1-1.63,1,3.33,3.33,0,0,1-.55.1A5.42,5.42,0,0,1,32.27,25.12Z"/>
</svg>