<svg xmlns="http://www.w3.org/2000/svg" viewBox="0 0 50 50"><defs><style>.cls-1{fill:#fff;}</style></defs><title>dash</title><g id="Слой_2" data-name="Слой 2"><path class="cls-1" d="M25.19.4A24.63,24.63,0,1,0,49.82,25,24.63,24.63,0,0,0,25.19.4ZM13.34,23.21h9.51L21.62,26.9H12.15Zm24.78-2.15-2.51,7.88a6.58,6.58,0,0,1-.36.82A6.07,6.07,0,0,1,34.49,31a6.3,6.3,0,0,1-.77.78,4.76,4.76,0,0,1-1.2.78,5.11,5.11,0,0,1-1.09.27,4.73,4.73,0,0,1-.92.12H12.77L14.05,29H30l2.55-7.88-16,0,1.27-3.94,17.62.08a4.17,4.17,0,0,1,.6.1,2.76,2.76,0,0,1,1.35.54,2.15,2.15,0,0,1,.58.85,3.13,3.13,0,0,1,.27,1.44A3.82,3.82,0,0,1,38.12,21.06Z"/></g></svg>