<svg xmlns="http://www.w3.org/2000/svg" viewBox="0 0 50 50"><defs><style>.cls-1{fill:#fff;}</style></defs><title>dollar</title><g id="Слой_3" data-name="Слой 3"><path class="cls-1" d="M29,28.9a7.71,7.71,0,0,0-1.6-.66v4.91a2.91,2.91,0,0,0,.66-.17A2.45,2.45,0,0,0,30,30.55,1.87,1.87,0,0,0,29,28.9Z"/><path class="cls-1" d="M21.14,20.91a1.81,1.81,0,0,0,1.05,1.71,6.71,6.71,0,0,0,1.32.48V18.43a5.12,5.12,0,0,0-1.32.55A2.14,2.14,0,0,0,21.14,20.91Z"/><path class="cls-1" d="M25.12.23A24.69,24.69,0,1,0,49.81,24.92,24.69,24.69,0,0,0,25.12.23Zm6.54,34.28a8.82,8.82,0,0,1-4.58,1.81v2.15H23.16v-2.2a9.12,9.12,0,0,1-4.41-1.71,6.17,6.17,0,0,1-2.35-5.12h4.18a3.84,3.84,0,0,0,.83,2.09,3.46,3.46,0,0,0,1.76,1V26.85a13.47,13.47,0,0,1-4.32-1.55,5.18,5.18,0,0,1-2.15-4.57A6.11,6.11,0,0,1,18.8,16a7.75,7.75,0,0,1,4.35-1.76V11.36h3.92v3a8.56,8.56,0,0,1,3.65,1.53A6.27,6.27,0,0,1,33.2,21H29a2.93,2.93,0,0,0-1.71-2.64s0-.06-.06-.06a.14.14,0,0,1-.11-.06v5.35l1.27.28A9.82,9.82,0,0,1,32,25.36a5.15,5.15,0,0,1,1.87,4.29A6.18,6.18,0,0,1,31.66,34.51Z"/></g></svg>