<svg xmlns="http://www.w3.org/2000/svg" viewBox="0 0 50 50"><defs><style>.cls-1{fill:#fff;}</style></defs><title>euro</title><g id="Слой_4" data-name="Слой 4"><g id="Слой_3-2" data-name="Слой 3"><path class="cls-1" d="M25,.23A24.87,24.87,0,1,0,49.88,25.1h0A24.87,24.87,0,0,0,25,.23Zm2.81,20.46V24.2H19.25a7.74,7.74,0,0,0,0,1.8h8.58v3.51H20.48A8.19,8.19,0,0,0,31.79,32a7.27,7.27,0,0,0,1-.7l.3-.26,3,3-.34.3a12.36,12.36,0,0,1-19.81-4.81H11V26h4c0-.29,0-.59,0-.9a6.7,6.7,0,0,1,0-.9H11V20.69h4.81a12.36,12.36,0,0,1,15.94-7.17,12.21,12.21,0,0,1,3.87,2.36l.34.3-3,2.94-.3-.25a8.19,8.19,0,0,0-11.56.88,7.9,7.9,0,0,0-.7.94Z"/></g></g></svg>