<svg xmlns="http://www.w3.org/2000/svg" viewBox="0 0 50 50"><defs><style>.cls-1{fill:#fff;}</style></defs><title>monero</title><g id="Слой_6" data-name="Слой 6"><path class="cls-1" d="M4.78,38.75a28.35,28.35,0,0,0,10.7,8.91,23.61,23.61,0,0,0,5.84,2A24.62,24.62,0,0,0,38,46.47a25.13,25.13,0,0,0,8.67-8.75H36.41V24.31q-3.88,4.35-8.28,8.76L25.21,36a35.7,35.7,0,0,0-2.33-3.39A37.31,37.31,0,0,0,14,24.31V38.75Z"/><path class="cls-1" d="M8.83,33.65,8.76,12.43,25.09,28.75,41.15,12l.31,21.21,6.7,0a24.29,24.29,0,1,0-45.74.51Z"/></g></svg>