<svg xmlns="http://www.w3.org/2000/svg" viewBox="0 0 50 50"><defs><style>.cls-1{fill:#fff;}</style></defs><title>ripple</title><g id="Слой_7" data-name="Слой 7"><path class="cls-1" d="M25.06.7A24.3,24.3,0,1,0,49.36,25,24.29,24.29,0,0,0,25.06.7Zm2.81,26.2a2.18,2.18,0,0,0,.8.85,2.14,2.14,0,0,0,.65.35,3.33,3.33,0,0,0,1.18.09,5.92,5.92,0,0,1,1.25.2,5.17,5.17,0,0,1,1.51.69,6.7,6.7,0,0,1,1.1,1,5.78,5.78,0,0,1,1.25,2.14,6,6,0,0,1,.32,2,5.47,5.47,0,0,1-.47,2,5.64,5.64,0,0,1-1.1,1.6A6,6,0,0,1,32.81,39a4.93,4.93,0,0,1-4.23.42,6.16,6.16,0,0,1-1.55-.7,5.61,5.61,0,0,1-2.59-4.07,4.36,4.36,0,0,1,.2-2.5,15,15,0,0,1,.75-1.5,1.91,1.91,0,0,0,.29-.69,1.88,1.88,0,0,0-.05-.91,2.37,2.37,0,0,0-2.89-1.65,2.31,2.31,0,0,0-.95.65,7.61,7.61,0,0,0-.87,1.08,8.89,8.89,0,0,1-1,1.18,4.53,4.53,0,0,1-1.9.94,5.59,5.59,0,0,1-2.44.15,5.84,5.84,0,0,1-4.8-7,5.82,5.82,0,0,1,.95-2.05A6,6,0,0,1,13.2,21,5.42,5.42,0,0,1,17,20.07a4.75,4.75,0,0,1,2.14.6,5.38,5.38,0,0,1,1.53,1.4,17.28,17.28,0,0,0,1.06,1.37,2.35,2.35,0,0,0,.7.6,2.42,2.42,0,0,0,1.05.25,1.75,1.75,0,0,0,1.15-.15,2.33,2.33,0,0,0,.41-.42,3.11,3.11,0,0,0,.55-.65,2.15,2.15,0,0,0,.2-.9,2.77,2.77,0,0,0-.1-1,5.32,5.32,0,0,0-.6-1.1,4.83,4.83,0,0,1-.4-1.16,4.65,4.65,0,0,1-.05-1.49,5.68,5.68,0,0,1,2-4A5.79,5.79,0,0,1,29,12.3a5.31,5.31,0,0,1,4.14.65,5.88,5.88,0,0,1,1.78,1.55,6,6,0,0,1,1,5,6,6,0,0,1-.8,1.75,5.77,5.77,0,0,1-1.7,1.6,5.42,5.42,0,0,1-1.4.65,4.94,4.94,0,0,1-1.14.19,9.4,9.4,0,0,0-1.3,0,2.53,2.53,0,0,0-.95.45,2.15,2.15,0,0,0-.7.8,2.18,2.18,0,0,0-.2,1.1A2,2,0,0,0,27.87,26.9Z"/></g></svg>