<svg xmlns="http://www.w3.org/2000/svg" viewBox="0 0 50 50"><defs><style>.cls-1{fill:#fff;}</style></defs><title>zcash</title><g id="Слой_8" data-name="Слой 8"><path class="cls-1" d="M25,2.29c-.86,0-1.71.06-2.57.15A22.71,22.71,0,0,0,25,47.71c.86,0,1.72-.06,2.57-.15A22.71,22.71,0,0,0,25,2.29Zm7.56,32H27.05v3.65l-4.24-.06V34.25H17.52l-.06-3.33,8.36-10.8L18,20.06V15.61h4.86V12h4.18v3.56h5.22v3.69L24.15,29.83l8.43-.06Z"/><path class="cls-1" d="M25,4.27h0a20.75,20.75,0,1,1-2.37.14A20.73,20.73,0,0,1,25,4.27M25,.32a22.59,22.59,0,0,0-2.85.17A24.68,24.68,0,0,0,25,49.68a22.59,22.59,0,0,0,2.85-.17A24.68,24.68,0,0,0,25,.32Z"/></g></svg>