<svg xmlns="http://www.w3.org/2000/svg" viewBox="0 0 50 50"><defs><style>.cls-1{fill:#fff;}</style></defs><title>zcash classic</title><g id="Слой_9" data-name="Слой 9"><path class="cls-1" d="M49.51,22.81A24.35,24.35,0,0,0,24.71.68v0a26.64,26.64,0,0,0-2.82.15,24.34,24.34,0,0,0,2.75,48.53A24.25,24.25,0,0,0,49.51,22.81Zm-22.6,21.6a19.07,19.07,0,0,1-2.27.12,19.49,19.49,0,0,1-2.2-38.9,21.58,21.58,0,0,1,2.27-.12v0a19.49,19.49,0,0,1,2.2,38.88Zm17-5.82-1.94-1a23.5,23.5,0,0,0-1.93-27.14l1.93-1a25.16,25.16,0,0,1,4.85,9.69C49.22,28.69,45.13,36.52,44,38.59Z"/><polygon class="cls-1" points="8.08 13.24 25.14 13.24 21.88 19.15 5.18 19.15 8.08 13.24"/><polygon class="cls-1" points="26.55 13.3 34.27 13.3 24.83 30.3 43.95 30.3 41.28 36.75 13.86 36.39 26.55 13.3"/></g></svg>