<svg xmlns="http://www.w3.org/2000/svg" viewBox="0 0 50 50"><defs><style>.cls-1{fill:#fff;}</style></defs><title>zcoin</title><g id="Слой_10" data-name="Слой 10"><path class="cls-1" d="M25,.83a24.3,24.3,0,1,0,24.3,24.3A24.3,24.3,0,0,0,25,.83ZM36.85,15a2.13,2.13,0,0,1-.64,1.16L19.87,32.75H33l0-4H28.53l8.12-8.09q.06,7,.11,14a1.34,1.34,0,0,1,0,.84,1.64,1.64,0,0,1-1.13,1H14.76A2.16,2.16,0,0,1,14,36.2a2,2,0,0,1-.75-.9,1.68,1.68,0,0,1,0-1.21,1.63,1.63,0,0,1,.8-.89L30.62,16.71H17v4.05l4.09,0-7.8,7.8V14.84a1.86,1.86,0,0,1,.47-1.51,1.73,1.73,0,0,1,1.06-.26c.64,0,1.46-.05,2.43-.05H35.63a1.44,1.44,0,0,1,.75.31A1.75,1.75,0,0,1,36.85,15Z"/></g></svg>