<svg xmlns="http://www.w3.org/2000/svg" xmlns:xlink="http://www.w3.org/1999/xlink" viewBox="0 0 4939 1208.7"><defs><style>.cls-1{fill:url(#Безымянный_градиент);}.cls-2{fill:url(#Безымянный_градиент_2);}.cls-3{isolation:isolate;}.cls-4{fill:#fff;}.cls-5{fill:url(#Безымянный_градиент_21);}</style><linearGradient id="Безымянный_градиент" x1="32.71" y1="-162.43" x2="895.75" y2="-162.43" gradientTransform="translate(0 676.39)" gradientUnits="userSpaceOnUse"><stop offset="0" stop-color="#00a9c9"/><stop offset="1" stop-color="#00cda9"/></linearGradient><linearGradient id="Безымянный_градиент_2" x1="345.82" y1="-159.38" x2="825.8" y2="-159.38" xlink:href="#Безымянный_градиент"/><linearGradient id="Безымянный_градиент_21" x1="3496.05" y1="311.09" x2="4900.79" y2="311.09" gradientUnits="userSpaceOnUse"><stop offset="0" stop-color="#cd26b2"/><stop offset="0.19" stop-color="#b436b5"/><stop offset="0.6" stop-color="#735fbb"/><stop offset="1" stop-color="#2d8bc2"/></linearGradient></defs><title>Wallet new </title><g id="Слой_8" data-name="Слой 8"><g id="Слой_2" data-name="Слой 2"><path class="cls-1" d="M825.8,932h-375c-230.51,0-418-187.53-418-418s187.53-418,418-418h375a70,70,0,0,1,0,139.91h-375c-153.34,0-278,124.68-278,278s124.67,278,278,278h375a70.07,70.07,0,0,1,0,140.14Z"/><path class="cls-2" d="M755.84,587H415.77a70,70,0,0,1,0-139.91H755.84a70,70,0,1,1,0,139.91Z"/><g class="cls-3"><path class="cls-4" d="M987,849.22V200.3q0-44.93,20-68t54-23q34,0,54.81,22.75t20.83,68.23V849.22q0,45.49-21.1,68.23T1061,940.2q-32.88,0-53.43-23.57T987,849.22Z"/><path class="cls-4" d="M1708.79,672.74H1416.12q.53,51,20.55,89.88t53.16,58.65Q1523,841,1563,841q26.85,0,49-6.3a159.8,159.8,0,0,0,43-19.73,327.23,327.23,0,0,0,38.37-28.78q17.54-15.33,45.49-41.65,11.5-9.87,32.88-9.87,23,0,37.27,12.61t14.25,35.62q0,20.29-15.89,47.41t-48,52.07q-32.06,24.95-80.56,41.38T1567.38,940.2q-144.15,0-224.16-82.21t-80-223.07q0-66.3,19.73-123t57.55-97.28q37.82-40.56,93.17-62.21t122.77-21.65q87.69,0,150.45,37t94,95.64q31.25,58.65,31.24,119.48,0,56.45-32.34,73.17T1708.79,672.74Zm-292.67-85h271.29Q1681.92,511.07,1646,473t-94.54-38.09q-55.9,0-91.8,38.64T1416.12,587.79Z"/><path class="cls-4" d="M2493.62,441.46V876.08q0,74.53-15.89,128.24t-51,88.79q-35.09,35.07-91.8,52.07t-141.13,17q-77.28,0-138.12-21.65t-93.72-55.9q-32.88-34.26-32.88-70.43,0-27.42,18.63-44.67t45-17.26q32.88,0,57.54,29,12.06,14.81,24.94,29.87a145.27,145.27,0,0,0,28.5,25.76q15.61,10.69,37.54,15.9t50.43,5.2q58.08,0,90.15-16.16t44.95-45.22a182.16,182.16,0,0,0,15.07-62.21q2.18-33.15,3.29-106.6-34.53,48.24-79.75,73.45t-107.7,25.21q-75.09,0-131.26-38.37t-86.32-107.42q-30.15-69.06-30.14-159.49,0-67.41,18.36-121.67T1980.63,408q34-37.26,78.37-56.17t97.56-18.91q63.57,0,110.16,24.39t86.6,76.45V413.5q0-38.91,19.18-60.28t49.33-21.38q43.27,0,57.54,28.23T2493.62,441.46ZM2060.1,631.09q0,91,39.73,137.56t102.77,46.59q37.26,0,70.42-20T2327,735q20.82-40.29,20.83-97.83,0-91.53-40.29-142.5t-106.05-51q-64.12,0-102.76,48.78T2060.1,631.09Z"/><path class="cls-4" d="M2778.62,724.26v125q0,45.49-21.38,68.23T2703,940.2q-32.35,0-53.17-23t-20.82-68V432.69q0-100.85,72.89-100.85,37.26,0,53.71,23.57t18.09,69.6q26.85-46,55.08-69.6t75.36-23.57q47.13,0,91.53,23.57t44.39,62.48q0,27.41-18.91,45.21t-40.83,17.82q-8.22,0-39.74-10.14t-55.63-10.14q-32.88,0-53.71,17.26t-32.33,51.25q-11.52,34-15.9,80.84T2778.62,724.26Z"/><path class="cls-4" d="M3639.09,636q0,66.87-20.82,123.32t-60.29,97q-39.46,40.57-94.27,62.21T3340.39,940.2q-68,0-122.22-21.92a271.23,271.23,0,0,1-94-62.76q-39.75-40.82-60.29-96.46t-20.55-123q0-67.95,20.82-124.41t59.74-96.46q38.91-40,94.27-61.66t122.22-21.65q68,0,123.32,21.92t94.81,62.48q39.46,40.58,60,96.46T3639.09,636Zm-150.17,0q0-91.53-40.28-142.5t-108.25-51q-43.84,0-77.28,22.75t-51.51,67.13q-18.09,44.4-18.09,103.59,0,58.65,17.81,102.49t51,67.14q33.15,23.29,78.1,23.29,68,0,108.25-51.24T3488.92,636Z"/></g></g><rect class="cls-5" x="3496.05" y="95.92" width="1404.74" height="430.34" rx="92"/><path class="cls-4" d="M3878,370.37l-25.65-95.14-26,95.14q-3,10.81-4.81,15.53a20.58,20.58,0,0,1-6.23,8.44q-4.44,3.74-11.79,3.73a19.5,19.5,0,0,1-9.8-2.21,17,17,0,0,1-6.22-6.28,39.48,39.48,0,0,1-3.9-9.63q-1.52-5.58-2.7-10.34L3754.5,262.79q-2.39-9.32-2.38-14.18a13.93,13.93,0,0,1,4.33-10.39,14.74,14.74,0,0,1,10.71-4.22q8.78,0,11.8,5.63t5.3,16.34L3805,348.61l23.27-86.69a139.11,139.11,0,0,1,4.65-15.15,21.79,21.79,0,0,1,6.72-9q4.65-3.79,12.66-3.79T3865,238a21.54,21.54,0,0,1,6.22,8.6q1.73,4.66,4.65,15.37l23.49,86.69L3920.09,256A109.41,109.41,0,0,1,3923,244.6a18.26,18.26,0,0,1,4.65-7.36q3.3-3.24,9.58-3.24a14.93,14.93,0,0,1,10.66,4.16,13.84,13.84,0,0,1,4.38,10.45q0,4.44-2.38,14.18l-26.4,106.82q-2.72,10.83-4.5,15.86a21.17,21.17,0,0,1-6.06,8.82q-4.28,3.78-12.06,3.78-7.36,0-11.8-3.68a19.85,19.85,0,0,1-6.17-8.27Q3881.12,381.52,3878,370.37Z"/><path class="cls-4" d="M4075.08,377.4l-7.58-19.91H4003l-7.57,20.35q-4.44,11.9-7.58,16.07t-10.28,4.16a15.09,15.09,0,0,1-10.71-4.43,13.58,13.58,0,0,1-4.66-10.07,22.52,22.52,0,0,1,1.08-6.71q1.08-3.47,3.58-9.63l40.58-103q1.74-4.43,4.17-10.66a53.85,53.85,0,0,1,5.19-10.33,21.15,21.15,0,0,1,7.26-6.66,22.27,22.27,0,0,1,11.09-2.54,22.52,22.52,0,0,1,11.2,2.54,21.62,21.62,0,0,1,7.25,6.55,46.55,46.55,0,0,1,4.66,8.6q1.89,4.6,4.81,12.29l41.45,102.38q4.88,11.7,4.87,17c0,3.67-1.53,7.05-4.6,10.11a15.09,15.09,0,0,1-11.09,4.6,14.37,14.37,0,0,1-6.49-1.35,13.28,13.28,0,0,1-4.55-3.68,33.79,33.79,0,0,1-4-7.14Q4076.59,381.09,4075.08,377.4Zm-63.64-44h47.4l-23.92-65.48Z"/><path class="cls-4" d="M4164.47,253.48V369h65.16q7.78,0,12,3.79a12.35,12.35,0,0,1,4.16,9.52,12,12,0,0,1-4.11,9.47q-4.11,3.63-12,3.63H4152q-10.5,0-15.1-4.65t-4.6-15.05V253.48q0-9.73,4.38-14.61a14.76,14.76,0,0,1,11.53-4.87,15.3,15.3,0,0,1,11.74,4.81Q4164.48,243.64,4164.47,253.48Z"/><path class="cls-4" d="M4298.35,253.48V369h65.16q7.78,0,12,3.79a12.32,12.32,0,0,1,4.16,9.52,12,12,0,0,1-4.11,9.47q-4.11,3.63-12,3.63h-77.6q-10.5,0-15.1-4.65t-4.6-15.05V253.48q0-9.73,4.38-14.61a14.78,14.78,0,0,1,11.53-4.87,15.3,15.3,0,0,1,11.74,4.81Q4298.36,243.64,4298.35,253.48Z"/><path class="cls-4" d="M4505.29,261.49h-72.41v39h66.67q7.36,0,11,3.3a11.24,11.24,0,0,1,3.62,8.71,11.68,11.68,0,0,1-3.57,8.83q-3.57,3.4-11,3.4h-66.67v45.14h74.9q7.57,0,11.42,3.51a12.1,12.1,0,0,1,3.84,9.37,11.81,11.81,0,0,1-3.84,9.14q-3.85,3.52-11.42,3.52h-87.34q-10.5,0-15.1-4.65t-4.6-15.05V256.4a26.75,26.75,0,0,1,2.05-11.31,12.75,12.75,0,0,1,6.44-6.38,27,27,0,0,1,11.21-2h84.85q7.68,0,11.42,3.41a11.53,11.53,0,0,1,3.73,8.93,11.65,11.65,0,0,1-3.73,9Q4513,261.49,4505.29,261.49Z"/><path class="cls-4" d="M4651.62,263.22h-35.07V378.49q0,9.94-4.44,14.77a14.88,14.88,0,0,1-11.47,4.81A15.11,15.11,0,0,1,4589,393.2q-4.48-4.86-4.49-14.71V263.22h-35.06q-8.23,0-12.23-3.63a12.27,12.27,0,0,1-4-9.57,12.14,12.14,0,0,1,4.17-9.74q4.17-3.59,12.07-3.58h102.17q8.32,0,12.39,3.68a12.43,12.43,0,0,1,4.06,9.64,12.13,12.13,0,0,1-4.12,9.57Q4659.84,263.22,4651.62,263.22Z"/></g></svg>