<svg xmlns="http://www.w3.org/2000/svg" xmlns:xlink="http://www.w3.org/1999/xlink" viewBox="0 0 149 49"><defs><style>.cls-1{fill:none;}.cls-2{clip-path:url(#clip-path);}.cls-3{fill:url(#Безымянный_градиент_5);}.cls-4{fill:url(#Безымянный_градиент_2);}.cls-5{fill:url(#Безымянный_градиент_3);}.cls-6{fill:url(#Безымянный_градиент_4);}.cls-7{fill:#f9f9f9;}.cls-8{fill:#f9f9fa;}</style><clipPath id="clip-path"><path class="cls-1" d="M34.59,22.08l-6.42-3.7L15.8,11.24c-.69-.4-1.37-.16-1.37.67V41c0,.62.49.89,1.09.55l12.65-7.31,6.42-3.7L40.75,27c.72-.42.65-1,0-1.32s-6.2-3.59-6.2-3.59Z"/></clipPath><linearGradient id="Безымянный_градиент_5" x1="1309.17" y1="-2434.91" x2="1309.17" y2="-2432.29" gradientTransform="translate(-15687.71 29229.49) scale(12)" gradientUnits="userSpaceOnUse"><stop offset="0" stop-color="#257cb0"/><stop offset="0.29" stop-color="#4a93b5"/><stop offset="0.77" stop-color="#78bcbb"/><stop offset="1" stop-color="#89cfbd"/></linearGradient><linearGradient id="Безымянный_градиент_2" x1="1308.51" y1="-2434.26" x2="1310.19" y2="-2434.26" gradientTransform="translate(-15687.71 29229.49) scale(12)" gradientUnits="userSpaceOnUse"><stop offset="0" stop-color="#52c1ad"/><stop offset="1" stop-color="#dee89a"/></linearGradient><linearGradient id="Безымянный_градиент_3" x1="1309.35" y1="-2433.6" x2="1309.35" y2="-2432.28" gradientTransform="translate(-15687.71 29229.49) scale(12)" gradientUnits="userSpaceOnUse"><stop offset="0" stop-color="#ec413d"/><stop offset="0.17" stop-color="#da4452"/><stop offset="0.57" stop-color="#b0487a"/><stop offset="0.86" stop-color="#954a92"/><stop offset="1" stop-color="#8a4a9d"/></linearGradient><linearGradient id="Безымянный_градиент_4" x1="1310.32" y1="-2433.95" x2="1310.32" y2="-2433.25" gradientTransform="translate(-15687.71 29229.49) scale(12)" gradientUnits="userSpaceOnUse"><stop offset="0" stop-color="#f58879"/><stop offset="0.12" stop-color="#f69079"/><stop offset="0.71" stop-color="#fcb877"/><stop offset="1" stop-color="#fec874"/></linearGradient></defs><title>Google play</title><g id="Слой_2" data-name="Слой 2"><path d="M146,41.84a6.29,6.29,0,0,1-6.29,6.29H10.05a6.29,6.29,0,0,1-6.29-6.29V7.89A6.29,6.29,0,0,1,10.05,1.6H139.71A6.29,6.29,0,0,1,146,7.89v34Z"/><g class="cls-2"><path class="cls-3" d="M14.43,10.56V42.07L30.32,26.31Z"/></g><g class="cls-2"><path class="cls-4" d="M34.59,22.08l-6.42-3.7L14.43,10.45v.11L30.32,26.31Z"/></g><g class="cls-2"><path class="cls-5" d="M14.43,42.07v.11l13.74-7.93,6.42-3.7-4.27-4.24Z"/></g><g class="cls-2"><path class="cls-6" d="M34.59,22.08l-4.27,4.23,4.27,4.24,7.33-4.24Z"/></g><path class="cls-7" d="M114.46,32.47a4,4,0,0,1-1.64-.33,3.17,3.17,0,0,1-1.24-1h-.1a11.62,11.62,0,0,1,.1,1.52v3.77h-1.39V23.14h1.13l.2,1.26h.06a3.21,3.21,0,0,1,1.25-1.09,3.83,3.83,0,0,1,1.63-.33,3.38,3.38,0,0,1,2.81,1.24,5.5,5.5,0,0,1,1,3.5,5.44,5.44,0,0,1-1,3.5,3.39,3.39,0,0,1-2.8,1.25Zm-.2-8.32a2.44,2.44,0,0,0-2,.78,4,4,0,0,0-.65,2.48v.31a4.59,4.59,0,0,0,.65,2.76,2.45,2.45,0,0,0,2.06.83,2.15,2.15,0,0,0,1.86-1,4.54,4.54,0,0,0,.67-2.65,4.39,4.39,0,0,0-.67-2.63,2.22,2.22,0,0,0-1.89-.92Zm7.22,8.16h-1.39v-13h1.39Zm8,0L129.18,31h-.07a3.74,3.74,0,0,1-1.36,1.17,4.29,4.29,0,0,1-1.71.3,3,3,0,0,1-2.13-.7,2.55,2.55,0,0,1-.78-2q0-2.77,4.44-2.91l1.56-.05v-.57a2.38,2.38,0,0,0-.46-1.59,1.93,1.93,0,0,0-1.49-.51,6,6,0,0,0-2.59.7l-.43-1.06a6.69,6.69,0,0,1,3.1-.79,3.45,3.45,0,0,1,2.43.73,3,3,0,0,1,.79,2.33v6.26Zm-3.14-1a2.86,2.86,0,0,0,2-.71,2.66,2.66,0,0,0,.74-2V27.8l-1.39.06a5.12,5.12,0,0,0-2.39.51,1.56,1.56,0,0,0-.73,1.42,1.43,1.43,0,0,0,.45,1.14,1.87,1.87,0,0,0,1.28.4Zm5-8.19h1.49l2,5.23A18.9,18.9,0,0,1,135.6,31h.07c.07-.28.22-.77.46-1.46s1-2.8,2.27-6.35h1.48L136,33.58a5.19,5.19,0,0,1-1.37,2.19,2.92,2.92,0,0,1-1.92.65,5.84,5.84,0,0,1-1.25-.14V35.17a5.26,5.26,0,0,0,1,.1,2.11,2.11,0,0,0,2-1.61l.51-1.3-3.69-9.22ZM88.75,24a3.12,3.12,0,0,1-.25,5.31,1.36,1.36,0,0,0-.54.94,1.08,1.08,0,0,0,.5.83l.69.53a3.35,3.35,0,0,1,1.61,2.69c0,1.8-1.74,3.62-5,3.62-2.78,0-4.12-1.32-4.12-2.74a2.75,2.75,0,0,1,1.48-2.34A8.2,8.2,0,0,1,86.74,32a2,2,0,0,1-.58-1.3,1.8,1.8,0,0,1,.19-.75c-.21,0-.42,0-.61,0a3,3,0,0,1-3.18-3,3.46,3.46,0,0,1,1.22-2.57,5.26,5.26,0,0,1,3.44-1.06h3.94L89.94,24ZM87.39,32.5a3,3,0,0,0-.44,0,7.73,7.73,0,0,0-2,.31,2.14,2.14,0,0,0-1.64,2c0,1.36,1.32,2.34,3.37,2.34,1.84,0,2.82-.89,2.82-2.08,0-1-.64-1.49-2.09-2.53Zm.55-3.64a1.94,1.94,0,0,0,.48-1.4c0-1.38-.82-3.52-2.41-3.52a1.78,1.78,0,0,0-1.34.63A2.19,2.19,0,0,0,84.24,26c0,1.28.75,3.41,2.4,3.41a1.92,1.92,0,0,0,1.3-.54ZM76.68,32.2A4.52,4.52,0,0,1,72,27.68,4.74,4.74,0,0,1,77,23a4.47,4.47,0,0,1,4.57,4.52,4.68,4.68,0,0,1-4.86,4.65Zm2.39-1.55a3.47,3.47,0,0,0,.58-2.13c0-1.68-.8-4.9-3.18-4.9a2.63,2.63,0,0,0-1.72.66,2.88,2.88,0,0,0-.88,2.33c0,1.89.94,5,3.25,5a2.42,2.42,0,0,0,1.95-1ZM66.31,32.2a4.52,4.52,0,0,1-4.67-4.52,4.74,4.74,0,0,1,5-4.65,4.47,4.47,0,0,1,4.57,4.52A4.68,4.68,0,0,1,66.31,32.2Zm2.39-1.55a3.47,3.47,0,0,0,.58-2.13c0-1.68-.81-4.9-3.18-4.9a2.63,2.63,0,0,0-1.72.66,2.88,2.88,0,0,0-.88,2.33c0,1.89.94,5,3.25,5A2.44,2.44,0,0,0,68.7,30.65ZM60.18,31.9l-2.75.63a19.74,19.74,0,0,1-3.18.33c-5.31,0-7.32-3.91-7.32-7,0-3.73,2.86-7.19,7.77-7.19a11,11,0,0,1,2.94.4,7.57,7.57,0,0,1,2.54,1.2l-1.6,1.52-.67.15.48-.77a5.51,5.51,0,0,0-4.12-1.81c-3,0-5.33,2.31-5.33,5.68a6.81,6.81,0,0,0,6.81,7,5.77,5.77,0,0,0,2.45-.48v-3.1l-2.91.16,1.54-.83h4.08l-.5.48a.42.42,0,0,0-.19.31c0,.17,0,.73,0,.92V31.9Z"/><path class="cls-7" d="M94.83,31.34c-.64-.05-.77-.17-.77-.92V19.53a.49.49,0,0,0,0-.12c.08-.68.27-.79.87-1.14H92.19l-1.45.7h1.47V30.84c0,.39-.07.45-.52,1H95.1l.71-.42-1-.1Zm7.83.18a6.47,6.47,0,0,1-.63.34,4.41,4.41,0,0,1-1.86.37,4.07,4.07,0,0,1-2.54-.75,5,5,0,0,1-1.95-4A4.33,4.33,0,0,1,100.06,23a3.73,3.73,0,0,1,2,.53,3.15,3.15,0,0,1,1.33,1.89l-4.48,1.82-1.48.11c.48,2.43,2.12,3.84,3.94,3.84a5,5,0,0,0,2.33-.66l-1,.95Zm-1.8-5.69c.36-.14.56-.25.56-.52a1.9,1.9,0,0,0-1.9-1.64,2.35,2.35,0,0,0-2.19,2.65c0,.33,0,.67.06,1l3.47-1.51Zm3.64-2.66v1.26h-.15V23.17h-.42V23h1v.13Zm1.72,1.26V23.16h0l-.38,1.27h-.12l-.4-1.27h0v1.27h-.14V23h.24l.35,1.12h0l.35-1.12h.24v1.39Z"/><path class="cls-8" d="M50.75,15h-1a6.3,6.3,0,0,0-.27-1.11H48.14A5.47,5.47,0,0,0,47.86,15H47c0-.07.23-.71.7-1.91a14.93,14.93,0,0,0,.69-2h1.13A16.54,16.54,0,0,0,50.11,13,17,17,0,0,1,50.75,15Zm-1.38-1.68a17.32,17.32,0,0,1-.51-1.67h0c0,.08-.18.63-.53,1.67ZM54.6,15h-.74A7.15,7.15,0,0,0,53,13.66a7.08,7.08,0,0,1-1-1.69H52a10.63,10.63,0,0,1,.08,1.19c0,.49,0,1.09,0,1.79h-.74c0-.61,0-1.29,0-2s0-1.34,0-1.85h.89A6,6,0,0,0,53,12.33a7.59,7.59,0,0,1,.9,1.59h0c0-.44-.07-.84-.07-1.19,0-.54,0-1.1,0-1.66h.75c0,.49,0,1.11,0,1.85S54.57,14.35,54.6,15Zm4.33-2.07a2.19,2.19,0,0,1-.55,1.48,1.9,1.9,0,0,1-1.52.63c-.29,0-.7,0-1.22,0,0-.6,0-1.28,0-2s0-1.34,0-1.85h1.24a2,2,0,0,1,1.56.54,1.81,1.81,0,0,1,.49,1.29Zm-.82.12a1.44,1.44,0,0,0-.33-1,1.28,1.28,0,0,0-1-.4l-.36,0c0,.4,0,.82,0,1.25s0,.95,0,1.42l.39,0a1.13,1.13,0,0,0,.95-.4,1.53,1.53,0,0,0,.31-1ZM62.92,15H62a5.31,5.31,0,0,0-.54-1.3.67.67,0,0,0-.59-.25h-.33c0,.52,0,1,0,1.55h-.83c0-.6,0-1.28,0-2s0-1.34,0-1.85h1.42c.92,0,1.37.31,1.37.94a1,1,0,0,1-.78,1v.05a.91.91,0,0,1,.53.47A11.44,11.44,0,0,1,62.92,15ZM61.8,12.21c0-.4-.25-.6-.76-.6a3.49,3.49,0,0,0-.5,0c0,.31,0,.71,0,1.21h.28C61.48,12.87,61.8,12.65,61.8,12.21Zm5.4.73a2.12,2.12,0,0,1-.56,1.52,1.82,1.82,0,0,1-1.39.6,1.77,1.77,0,0,1-1.32-.55,2,2,0,0,1-.53-1.41A2.16,2.16,0,0,1,64,11.58a1.84,1.84,0,0,1,1.39-.6,1.74,1.74,0,0,1,1.32.55,1.93,1.93,0,0,1,.53,1.41Zm-.82.08a1.57,1.57,0,0,0-.32-1,1,1,0,0,0-.79-.39.91.91,0,0,0-.74.39,1.62,1.62,0,0,0-.31,1,1.54,1.54,0,0,0,.33,1,1,1,0,0,0,.78.38.91.91,0,0,0,.74-.39,1.52,1.52,0,0,0,.31-1ZM68.89,15h-.84c0-.61,0-1.29,0-2s0-1.34,0-1.85h.84c0,.5,0,1.12,0,1.85S68.87,14.35,68.89,15Zm4.33-2.07a2.23,2.23,0,0,1-.54,1.48,1.91,1.91,0,0,1-1.53.63c-.29,0-.7,0-1.21,0,0-.6,0-1.28,0-2s0-1.34,0-1.85h1.23a2,2,0,0,1,1.57.54,1.84,1.84,0,0,1,.48,1.29Zm-.81.12a1.44,1.44,0,0,0-.34-1,1.27,1.27,0,0,0-1-.4l-.35,0c0,.4,0,.82,0,1.25s0,.95,0,1.42l.39,0a1.16,1.16,0,0,0,.95-.4A1.59,1.59,0,0,0,72.41,13ZM79,15H78a6.3,6.3,0,0,0-.27-1.11H76.36A5.47,5.47,0,0,0,76.08,15h-.9c0-.07.23-.71.7-1.91a14.93,14.93,0,0,0,.69-2H77.7A16.54,16.54,0,0,0,78.33,13,19.81,19.81,0,0,1,79,15Zm-1.38-1.68c-.34-1-.52-1.59-.52-1.67h0c0,.08-.18.63-.53,1.67Zm4.86-1.19a1.18,1.18,0,0,1-.53,1.06,2.33,2.33,0,0,1-1.3.34h-.2c0,.38,0,.87,0,1.48h-.84c0-.57,0-1.25,0-2s0-1.33,0-1.85H81.1a1.72,1.72,0,0,1,1,.25.89.89,0,0,1,.39.78Zm-.77.17c0-.43-.28-.64-.85-.64a2.42,2.42,0,0,0-.45,0c0,.38,0,.81,0,1.28h.17C81.32,12.94,81.68,12.71,81.68,12.25ZM86,12.08a1.16,1.16,0,0,1-.53,1.06,2.31,2.31,0,0,1-1.3.34H84c0,.38,0,.87,0,1.48H83.2c0-.57,0-1.25,0-2s0-1.33,0-1.85h1.48a1.72,1.72,0,0,1,1,.25.89.89,0,0,1,.39.78Zm-.77.17c0-.43-.28-.64-.85-.64a2.25,2.25,0,0,0-.44,0c0,.38,0,.81,0,1.28h.17C84.9,12.94,85.26,12.71,85.26,12.25Zm6.63.69a2.16,2.16,0,0,1-.56,1.52,1.82,1.82,0,0,1-1.39.6,1.74,1.74,0,0,1-1.32-.55,2,2,0,0,1-.53-1.41,2.16,2.16,0,0,1,.56-1.52A1.82,1.82,0,0,1,90,11a1.74,1.74,0,0,1,1.32.55,2,2,0,0,1,.53,1.41Zm-.82.08a1.57,1.57,0,0,0-.32-1,1,1,0,0,0-.79-.39.91.91,0,0,0-.74.39,1.56,1.56,0,0,0-.31,1,1.59,1.59,0,0,0,.32,1,1,1,0,0,0,.79.38.91.91,0,0,0,.74-.39,1.52,1.52,0,0,0,.31-1ZM95.94,15H95.2a7.15,7.15,0,0,0-.82-1.29,7.08,7.08,0,0,1-1-1.69h-.05a10.63,10.63,0,0,1,.08,1.19c0,.49,0,1.09,0,1.79h-.73c0-.61,0-1.29,0-2s0-1.34,0-1.85h.88a6,6,0,0,0,.74,1.26,7.59,7.59,0,0,1,.9,1.59h0a10.59,10.59,0,0,1-.07-1.19c0-.54,0-1.1,0-1.66h.75c0,.49,0,1.11,0,1.85S95.91,14.35,95.94,15Z"/></g></svg>