<svg xmlns="http://www.w3.org/2000/svg" viewBox="0 0 178.45 65">
  <defs>
    <style>.cls-1{fill:#fff;}</style>
  </defs>
  <title>max_icon</title>
  <g id="Слой_2" data-name="Слой 2">
    <g id="Слой_1-2" data-name="Слой 1">
      <path class="cls-1" d="M59.68,2.15v60.7A2.14,2.14,0,0,1,57.54,65H51.08a2.15,2.15,0,0,1-2.15-2.15V23.75a.37.37,0,0,0-.71-.13L33,63.61A2.13,2.13,0,0,1,31,65H28.54a2.13,2.13,0,0,1-2-1.39l-15.2-40a.37.37,0,0,0-.71.13v39.1A2.14,2.14,0,0,1,8.49,65H2.15A2.15,2.15,0,0,1,0,62.85V2.15A2.15,2.15,0,0,1,2.15,0h9.54a2.13,2.13,0,0,1,2,1.38L29.38,42.71a.37.37,0,0,0,.69,0L45.87,1.38a2.13,2.13,0,0,1,2-1.38h9.67A2.14,2.14,0,0,1,59.68,2.15Z"/>
      <path class="cls-1" d="M119.7,61.13,97.16,1.39a2.17,2.17,0,0,0-2-1.39H86.88a2.16,2.16,0,0,0-2,1.4L62.07,62.09a2.15,2.15,0,0,0,2,2.91h7.13a2.14,2.14,0,0,0,2-1.4l4.47-12a.37.37,0,0,1,.35-.24H104.1a.35.35,0,0,1,.34.24l4.47,12a2.16,2.16,0,0,0,2,1.4h7.12a2.16,2.16,0,0,0,2-2.91ZM81.34,40.47l9.38-25.75a.37.37,0,0,1,.69,0l9.27,25.74a.37.37,0,0,1-.35.49H81.69A.36.36,0,0,1,81.34,40.47Z"/>
      <path class="cls-1" d="M176.3,65h-7.66a2.14,2.14,0,0,1-1.76-.92L150.43,40.55a.36.36,0,0,0-.6,0L133.37,64.08a2.14,2.14,0,0,1-1.76.92h-7.74a2.15,2.15,0,0,1-1.74-3.41l.33-.46,20.63-29.26a.38.38,0,0,0,0-.43l-19.7-28A2.15,2.15,0,0,1,125.14,0h7.79a2.15,2.15,0,0,1,1.76.93l15.13,21.83a.37.37,0,0,0,.61,0l15-21.83A2.16,2.16,0,0,1,167.2,0H175a2.15,2.15,0,0,1,1.76,3.39L157,31.44a.38.38,0,0,0,0,.43l21,29.74A2.15,2.15,0,0,1,176.3,65Z"/>
    </g>
  </g>
</svg>