<svg width="135" height="42" viewBox="0 0 135 42" fill="none" 
  xmlns="http://www.w3.org/2000/svg">
  <path d="M21.3169 0.126222C16.5045 0.124862 11.8424 1.80307 8.13436 4.87155C4.42629 7.94003 1.90455 12.2065 1.00387 16.9355C0.103198 21.6644 0.880019 26.5596 3.20042 30.777C5.52082 34.9945 9.23941 38.27 13.7151 40.0388L13.7418 20.1748C13.8875 18.4535 14.6151 16.8333 15.8046 15.5811C16.994 14.3288 18.5745 13.5194 20.2855 13.286C21.9965 13.0527 23.7359 13.4095 25.2171 14.2975C26.6982 15.1855 27.8327 16.5519 28.4337 18.1713C29.0346 19.7907 29.0661 21.5667 28.5229 23.2064C27.9797 24.8461 26.8943 26.2518 25.4455 27.1918C23.9968 28.1318 22.2711 28.5499 20.5529 28.3774C18.8347 28.2049 17.2266 27.452 15.9935 26.2427V40.8058C18.8338 41.5555 21.8013 41.6912 24.6982 41.2036C27.5951 40.7161 30.3548 39.6166 32.7936 37.9785C35.2324 36.3403 37.2942 34.2011 38.8417 31.7033C40.3892 29.2055 41.3868 26.4065 41.7681 23.4927C42.1494 20.579 41.9056 17.6174 41.053 14.8053C40.2004 11.9932 38.7585 9.39514 36.8234 7.18421C34.8883 4.97328 32.5044 3.20025 29.8306 1.98323C27.1568 0.766207 24.2544 0.133146 21.3169 0.126222Z" fill="#0DC78F" />
  <path d="M80.0101 20.8763V27.3107C80.0094 27.5025 79.9654 27.6916 79.8814 27.8639C79.7974 28.0362 79.6755 28.1873 79.5248 28.3059C79.2244 28.5447 78.8519 28.6747 78.4682 28.6747C78.0844 28.6747 77.712 28.5447 77.4115 28.3059C77.261 28.1872 77.1392 28.0361 77.0552 27.8638C76.9711 27.6915 76.9271 27.5024 76.9262 27.3107V20.8763C76.9282 20.6797 76.8824 20.4856 76.7928 20.3107C76.6925 20.1179 76.5548 19.9471 76.3876 19.8083C76.2008 19.6544 75.9879 19.5352 75.7592 19.4564C75.2605 19.2815 74.7171 19.2815 74.2184 19.4564C73.9974 19.5311 73.7931 19.6482 73.6167 19.801C73.4509 19.9434 73.3142 20.1165 73.2139 20.3107C73.1222 20.4849 73.0754 20.6794 73.078 20.8763V27.3107C73.0774 27.5025 73.0334 27.6916 72.9494 27.8639C72.8653 28.0362 72.7434 28.1873 72.5928 28.3059C72.2923 28.5447 71.9199 28.6747 71.5361 28.6747C71.1523 28.6747 70.7799 28.5447 70.4794 28.3059C70.3289 28.1872 70.2071 28.0361 70.1231 27.8638C70.0391 27.6915 69.995 27.5024 69.9942 27.3107V20.8957C69.9888 20.682 69.937 20.4721 69.8423 20.2806C69.7476 20.089 69.6123 19.9204 69.4458 19.7864C69.0645 19.4751 68.5839 19.3115 68.0919 19.3253C67.5992 19.3056 67.1162 19.466 66.7332 19.7767C66.5719 19.8983 66.439 20.0535 66.3439 20.2317C66.2488 20.4098 66.1937 20.6066 66.1824 20.8083V27.3107C66.1815 27.5024 66.1375 27.6915 66.0534 27.8638C65.9694 28.0361 65.8476 28.1872 65.6971 28.3059C65.3967 28.5447 65.0242 28.6747 64.6404 28.6747C64.2567 28.6747 63.8842 28.5447 63.5838 28.3059C63.4331 28.1873 63.3112 28.0362 63.2272 27.8639C63.1432 27.6916 63.0992 27.5025 63.0985 27.3107V18.0292C63.099 17.837 63.1429 17.6475 63.2269 17.4748C63.311 17.302 63.433 17.1505 63.5838 17.0316C63.8842 16.7928 64.2567 16.6627 64.6404 16.6627C65.0242 16.6627 65.3967 16.7928 65.6971 17.0316C65.751 17.0787 65.8021 17.1289 65.85 17.1821C65.9956 17.1068 66.1508 17.0364 66.3134 16.9636C66.8753 16.7223 67.4804 16.5976 68.0919 16.5971C68.8845 16.5929 69.6688 16.7584 70.3921 17.0826C70.8073 17.2722 71.195 17.5171 71.5446 17.8107C72.5231 17.0156 73.7514 16.5925 75.0118 16.6165C75.6692 16.6121 76.3223 16.7238 76.9408 16.9466C77.5162 17.1436 78.0525 17.4402 78.5252 17.8229C78.9724 18.1974 79.341 18.6569 79.6098 19.1748C79.8772 19.7018 80.0145 20.2853 80.0101 20.8763Z" fill="white" />
  <path d="M91.8385 21.2937V27.3107C91.8375 27.5024 91.7934 27.6913 91.7094 27.8636C91.6254 28.0359 91.5036 28.187 91.3533 28.3058C91.0546 28.5505 90.6789 28.6812 90.293 28.6748C89.9083 28.6822 89.5338 28.5513 89.2375 28.3058C89.0865 28.1876 88.9643 28.0366 88.8802 27.8642C88.7961 27.6918 88.7524 27.5025 88.7522 27.3107V21.2937C88.7526 21.0514 88.6926 20.8128 88.5775 20.5995C88.4591 20.364 88.294 20.1551 88.0923 19.9854C87.869 19.8017 87.6141 19.6603 87.3401 19.568C87.0399 19.4634 86.7238 19.4117 86.406 19.415C86.0947 19.4125 85.7853 19.4634 85.4912 19.5655C85.2167 19.6599 84.9593 19.7985 84.7294 19.9757C84.5344 20.1253 84.3745 20.3159 84.2611 20.534C84.1495 20.7439 84.0865 20.9761 84.0767 21.2136V27.3107C84.0755 27.5023 84.0312 27.6913 83.9472 27.8635C83.8633 28.0358 83.7416 28.1869 83.5914 28.3058C83.2907 28.5453 82.9178 28.6756 82.5335 28.6756C82.1492 28.6756 81.7763 28.5453 81.4756 28.3058C81.3254 28.1869 81.2038 28.0358 81.1198 27.8635C81.0358 27.6913 80.9916 27.5023 80.9904 27.3107V18.0291C80.9914 17.8371 81.0355 17.6478 81.1195 17.4751C81.2035 17.3024 81.3252 17.1508 81.4756 17.0316C81.7754 16.7889 82.1504 16.6585 82.5359 16.6626C82.9202 16.6575 83.2939 16.7882 83.5914 17.0316C83.664 17.0956 83.7314 17.1654 83.7928 17.2403C85.2666 16.5548 86.9501 16.4738 88.4829 17.0146C89.1124 17.2301 89.6971 17.5591 90.208 17.9854C90.6983 18.3911 91.0997 18.8934 91.3872 19.4612C91.6818 20.0272 91.8366 20.6556 91.8385 21.2937Z" fill="white" />
  <path d="M60.7158 18.3132C59.7503 17.3517 58.4816 16.7546 57.1255 16.6237C55.7695 16.4928 54.41 16.836 53.2785 17.595C52.147 18.3541 51.3134 19.4819 50.9197 20.7866C50.526 22.0913 50.5965 23.4921 51.1192 24.7506C51.6419 26.0092 52.5844 27.0476 53.7864 27.6891C54.9884 28.3306 56.3755 28.5356 57.7115 28.2691C59.0476 28.0026 60.25 27.2811 61.1141 26.2275C61.9782 25.1738 62.4505 23.8532 62.4507 22.4904C62.4525 21.7139 62.3001 20.9447 62.0023 20.2276C61.7044 19.5105 61.2672 18.8598 60.7158 18.3132ZM56.5425 25.5947C55.9278 25.5947 55.3269 25.4124 54.8157 25.0707C54.3046 24.7291 53.9062 24.2435 53.671 23.6754C53.4357 23.1072 53.3742 22.4821 53.4941 21.8789C53.614 21.2758 53.91 20.7218 54.3447 20.287C54.7794 19.8521 55.3332 19.556 55.9361 19.436C56.5391 19.3161 57.164 19.3776 57.7319 19.613C58.2999 19.8483 58.7853 20.2468 59.1268 20.7581C59.4684 21.2694 59.6507 21.8706 59.6507 22.4855C59.6523 22.8951 59.5731 23.3009 59.4176 23.6798C59.2622 24.0587 59.0336 24.4032 58.7449 24.6936C58.4562 24.984 58.113 25.2146 57.7351 25.3721C57.3572 25.5297 56.9519 25.6111 56.5425 25.6117V25.5947Z" fill="white" />
  <path d="M95.7255 17.9806V27.1116C95.7255 27.4831 95.578 27.8393 95.3155 28.1019C95.0529 28.3646 94.6968 28.5121 94.3255 28.5121C93.9542 28.5121 93.5981 28.3646 93.3356 28.1019C93.073 27.8393 92.9255 27.4831 92.9255 27.1116V17.9806C92.9255 17.6091 93.073 17.2529 93.3356 16.9903C93.5981 16.7276 93.9542 16.5801 94.3255 16.5801C94.6968 16.5801 95.0529 16.7276 95.3155 16.9903C95.578 17.2529 95.7255 17.6091 95.7255 17.9806Z" fill="white" />
  <path d="M95.7255 14.5631V14.5801C95.7233 14.9533 95.5732 15.3105 95.3081 15.5732C95.0431 15.836 94.6847 15.9829 94.3116 15.9818C93.9384 15.9806 93.581 15.8316 93.3175 15.5672C93.0541 15.3029 92.9061 14.9448 92.9061 14.5716C92.9061 14.1983 93.0541 13.8403 93.3175 13.5759C93.581 13.3116 93.9384 13.1625 94.3116 13.1614C94.6847 13.1603 95.0431 13.3072 95.3081 13.5699C95.5732 13.8327 95.7233 14.1898 95.7255 14.5631Z" fill="white" />
  <path d="M102.827 16.5825C101.695 16.5818 100.587 16.907 99.6344 17.5194C99.5244 17.2084 99.3083 16.9462 99.024 16.779C98.7397 16.6118 98.4056 16.5503 98.0805 16.6054C97.7553 16.6605 97.4601 16.8287 97.2468 17.0803C97.0334 17.3319 96.9157 17.6507 96.9144 17.9806V34.2184C96.9066 34.4071 96.9369 34.5954 97.0037 34.772C97.0704 34.9486 97.1722 35.1099 97.3029 35.2462C97.4335 35.3825 97.5904 35.4909 97.764 35.565C97.9376 35.639 98.1245 35.6772 98.3132 35.6772C98.502 35.6772 98.6888 35.639 98.8624 35.565C99.036 35.4909 99.1929 35.3825 99.3236 35.2462C99.4542 35.1099 99.556 34.9486 99.6227 34.772C99.6895 34.5954 99.7199 34.4071 99.712 34.2184V27.5097C100.488 27.9918 101.366 28.2871 102.276 28.3723C103.185 28.4575 104.102 28.3303 104.955 28.0007C105.807 27.6711 106.571 27.1481 107.187 26.4729C107.803 25.7977 108.253 24.9886 108.504 24.1095C108.754 23.2304 108.797 22.3052 108.629 21.4068C108.46 20.5083 108.086 19.6612 107.535 18.932C106.984 18.2028 106.272 17.6115 105.454 17.2046C104.635 16.7978 103.734 16.5865 102.82 16.5874L102.827 16.5825ZM102.827 25.5995C102.213 25.5981 101.613 25.4145 101.103 25.072C100.592 24.7295 100.195 24.2434 99.9611 23.6751C99.7269 23.1068 99.6664 22.4819 99.7872 21.8793C99.9079 21.2766 100.205 20.7233 100.639 20.2892C101.074 19.8551 101.628 19.5597 102.231 19.4403C102.834 19.3209 103.458 19.3829 104.026 19.6184C104.593 19.854 105.078 20.2525 105.42 20.7637C105.761 21.2748 105.943 21.8756 105.943 22.4903C105.944 22.9001 105.864 23.3062 105.708 23.6852C105.552 24.0641 105.323 24.4085 105.034 24.6986C104.744 24.9886 104.4 25.2186 104.022 25.3753C103.643 25.5319 103.237 25.6123 102.827 25.6116V25.5995Z" fill="white" />
  <path d="M120.673 16.9927C120.544 16.8621 120.389 16.7586 120.219 16.6882C120.049 16.6178 119.867 16.5819 119.683 16.5825C119.393 16.5831 119.111 16.6735 118.875 16.8413C118.638 17.0091 118.46 17.246 118.363 17.5194C117.47 16.946 116.439 16.6237 115.379 16.5862C114.319 16.5488 113.268 16.7976 112.336 17.3065C111.405 17.8155 110.628 18.5658 110.087 19.4788C109.546 20.3918 109.26 21.4337 109.26 22.4952C109.26 23.5566 109.546 24.5985 110.087 25.5115C110.628 26.4245 111.405 27.1748 112.336 27.6838C113.268 28.1927 114.319 28.4415 115.379 28.4041C116.439 28.3666 117.47 28.0443 118.363 27.4709C118.471 27.7846 118.686 28.05 118.971 28.2197C119.255 28.3893 119.591 28.4522 119.918 28.3971C120.245 28.3419 120.541 28.1724 120.755 27.9187C120.968 27.665 121.085 27.3437 121.083 27.0121V17.9806C121.084 17.7969 121.048 17.615 120.978 17.4453C120.907 17.2757 120.804 17.1218 120.673 16.9927ZM115.18 25.6117C114.565 25.6117 113.964 25.4293 113.453 25.0877C112.942 24.746 112.544 24.2604 112.308 23.6923C112.073 23.1241 112.012 22.499 112.131 21.8959C112.251 21.2927 112.547 20.7387 112.982 20.3039C113.417 19.869 113.971 19.5729 114.574 19.4529C115.176 19.333 115.801 19.3946 116.369 19.6299C116.937 19.8652 117.423 20.2637 117.764 20.775C118.106 21.2863 118.288 21.8875 118.288 22.5024C118.287 23.3269 117.96 24.1173 117.377 24.7003C116.794 25.2832 116.004 25.611 115.18 25.6117Z" fill="white" />
  <path d="M134.088 17.9806V29.6311C134.088 31.1979 133.466 32.7006 132.359 33.8085C131.251 34.9164 129.749 35.5388 128.183 35.5388C126.616 35.5388 125.114 34.9164 124.007 33.8085C122.899 32.7006 122.277 31.1979 122.277 29.6311C122.277 29.4475 122.313 29.2657 122.383 29.096C122.454 28.9264 122.557 28.7723 122.686 28.6425C122.816 28.5127 122.97 28.4097 123.14 28.3394C123.309 28.2692 123.491 28.233 123.675 28.233C123.858 28.233 124.04 28.2692 124.209 28.3394C124.379 28.4097 124.533 28.5127 124.663 28.6425C124.793 28.7723 124.896 28.9264 124.966 29.096C125.036 29.2657 125.072 29.4475 125.072 29.6311C125.072 30.4557 125.4 31.2465 125.982 31.8296C126.565 32.4127 127.356 32.7403 128.18 32.7403C129.005 32.7403 129.795 32.4127 130.378 31.8296C130.961 31.2465 131.288 30.4557 131.288 29.6311V27.5073C130.395 28.0636 129.369 28.3705 128.316 28.3961C127.264 28.4218 126.224 28.1651 125.305 27.6529C124.385 27.1407 123.619 26.3916 123.087 25.4833C122.555 24.575 122.275 23.5407 122.277 22.4878V17.9806C122.277 17.797 122.313 17.6152 122.383 17.4455C122.454 17.2759 122.557 17.1218 122.686 16.992C122.816 16.8622 122.97 16.7592 123.14 16.6889C123.309 16.6187 123.491 16.5825 123.675 16.5825C123.858 16.5825 124.04 16.6187 124.209 16.6889C124.379 16.7592 124.533 16.8622 124.663 16.992C124.793 17.1218 124.896 17.2759 124.966 17.4455C125.036 17.6152 125.072 17.797 125.072 17.9806V22.4903C125.072 23.3149 125.4 24.1057 125.982 24.6888C126.565 25.2719 127.356 25.5995 128.18 25.5995C129.005 25.5995 129.795 25.2719 130.378 24.6888C130.961 24.1057 131.288 23.3149 131.288 22.4903V17.9806C131.288 17.6091 131.436 17.2529 131.698 16.9903C131.961 16.7276 132.317 16.5801 132.688 16.5801C133.06 16.5801 133.416 16.7276 133.678 16.9903C133.941 17.2529 134.088 17.6091 134.088 17.9806Z" fill="white" />
</svg>