<svg width="222" height="55" viewBox="0 0 222 55" fill="none" xmlns="http://www.w3.org/2000/svg">
  <path d="M27.4627 37.1072C24.6335 38.2292 22.0157 38.7901 19.6093 38.7901C15.4143 38.7901 11.6582 37.4487 8.34126 34.7658C4.11372 31.335 1.99995 26.8636 1.99995 21.3515C1.99995 15.8232 4.11372 11.3436 8.34126 7.91282C11.6582 5.22996 15.4386 3.88853 19.6824 3.88853C21.9913 3.88853 24.5848 4.44949 27.4627 5.57142V15.937C26.6498 14.9452 25.8205 14.1972 24.975 13.6932C23.4303 12.7664 21.7718 12.303 19.9995 12.303C17.7557 12.303 15.8045 12.9777 14.146 14.3273C12.0485 16.0346 10.9997 18.376 10.9997 21.3515C10.9997 24.3108 12.0485 26.6441 14.146 28.3513C15.8045 29.7009 17.7557 30.3757 19.9995 30.3757C21.7718 30.3757 23.4303 29.9123 24.975 28.9855C25.8042 28.4977 26.6335 27.7497 27.4627 26.7416V37.1072ZM58.5351 26.5709C58.5351 29.709 57.5026 32.4 55.4377 34.6439C52.9337 37.3755 49.4297 38.7413 44.9257 38.7413C40.4055 38.7413 36.8934 37.3755 34.3894 34.6439C32.3244 32.4 31.2919 29.644 31.2919 26.3758C31.2919 23.4328 32.3325 20.8231 34.4138 18.5467C36.934 15.7988 40.5193 14.4249 45.1696 14.4249C49.4459 14.4249 52.8605 15.7988 55.4133 18.5467C57.4945 20.7906 58.5351 23.4653 58.5351 26.5709ZM50.2183 26.5709C50.2183 25.1075 49.698 23.8718 48.6573 22.8637C47.633 21.8393 46.3891 21.3271 44.9257 21.3271C43.2672 21.3271 41.9177 21.945 40.877 23.1807C40.0315 24.1726 39.6088 25.3026 39.6088 26.5709C39.6088 27.8554 40.0315 28.9936 40.877 29.9855C41.9177 31.2212 43.2672 31.8391 44.9257 31.8391C46.4054 31.8391 47.6574 31.335 48.6817 30.3269C49.7061 29.3025 50.2183 28.0505 50.2183 26.5709ZM71.608 6.547C71.608 7.81527 71.169 8.88841 70.291 9.76644C69.4292 10.6282 68.3642 11.0591 67.0959 11.0591C65.8439 11.0591 64.7789 10.6201 63.9009 9.74205C63.0391 8.86402 62.6082 7.79901 62.6082 6.547C62.6082 5.295 63.0391 4.23812 63.9009 3.37635C64.7789 2.49832 65.8439 2.05931 67.0959 2.05931C68.3479 2.05931 69.4129 2.49832 70.291 3.37635C71.169 4.23812 71.608 5.295 71.608 6.547ZM71.0958 37.8877H63.096V15.2541H71.0958V37.8877ZM100.461 37.8877H92.4611V26.4246C92.4611 24.4246 92.2335 23.0994 91.7782 22.4491C91.1116 21.4897 90.1116 21.0101 88.7783 21.0101C87.5588 21.0101 86.5345 21.4247 85.7052 22.2539C84.9573 23.0019 84.5833 24.1726 84.5833 25.766V37.8877H76.5835V15.2541H84.5833V18.1077C85.5101 17.0346 86.3637 16.2785 87.1442 15.8395C88.4125 15.124 89.9978 14.7663 91.9002 14.7663C94.3391 14.7663 96.3228 15.4248 97.8512 16.7419C99.591 18.2378 100.461 20.4816 100.461 23.4734V37.8877ZM142.07 21.3515C142.07 25.8717 140.566 29.8391 137.558 33.2537C134.127 37.1397 129.485 39.0828 123.631 39.0828C117.794 39.0828 113.16 37.1397 109.729 33.2537C106.721 29.8391 105.217 25.8717 105.217 21.3515C105.217 19.2865 105.623 17.1728 106.436 15.0102C107.249 12.8314 108.339 10.9697 109.705 9.42498C113.135 5.5389 117.778 3.59586 123.631 3.59586C129.485 3.59586 134.127 5.5389 137.558 9.42498C140.566 12.8395 142.07 16.815 142.07 21.3515ZM133.07 21.3515C133.07 19.0101 132.322 16.9858 130.826 15.2785C128.907 13.0997 126.509 12.0103 123.631 12.0103C121.647 12.0103 119.851 12.5712 118.241 13.6932C116.631 14.7988 115.485 16.2785 114.802 18.1321C114.412 19.189 114.217 20.2621 114.217 21.3515C114.217 23.5954 114.965 25.6034 116.461 27.3758C118.314 29.5708 120.704 30.6684 123.631 30.6684C126.558 30.6684 128.956 29.579 130.826 27.4001C132.322 25.6604 133.07 23.6441 133.07 21.3515ZM163.801 22.6442C162.679 22.1076 161.541 21.8393 160.386 21.8393C157.752 21.8393 156.045 22.9125 155.264 25.0587C154.972 25.8392 154.825 26.888 154.825 28.205V37.8877H146.826V15.2541H154.825V18.9613C155.671 17.6443 156.582 16.6931 157.557 16.1077C158.874 15.3273 160.435 14.937 162.24 14.937C162.663 14.937 163.183 14.9614 163.801 15.0102V22.6442ZM193.703 26.5709C193.703 29.709 192.67 32.4 190.605 34.6439C188.101 37.3755 184.597 38.7413 180.093 38.7413C175.573 38.7413 172.061 37.3755 169.557 34.6439C167.492 32.4 166.459 29.644 166.459 26.3758C166.459 23.4328 167.5 20.8231 169.581 18.5467C172.101 15.7988 175.687 14.4249 180.337 14.4249C184.613 14.4249 188.028 15.7988 190.581 18.5467C192.662 20.7906 193.703 23.4653 193.703 26.5709ZM185.386 26.5709C185.386 25.1075 184.865 23.8718 183.825 22.8637C182.8 21.8393 181.557 21.3271 180.093 21.3271C178.435 21.3271 177.085 21.945 176.044 23.1807C175.199 24.1726 174.776 25.3026 174.776 26.5709C174.776 27.8554 175.199 28.9936 176.044 29.9855C177.085 31.2212 178.435 31.8391 180.093 31.8391C181.573 31.8391 182.825 31.335 183.849 30.3269C184.874 29.3025 185.386 28.0505 185.386 26.5709Z" fill="#0119EE"/>
  <circle cx="123.488" cy="21.6999" r="19.425" fill="#FF550C"/>
</svg>
